SplineFontDB: 3.0
FontName: Anaheim-Regular
FullName: Anaheim Regular
FamilyName: Anaheim
Weight: Regular
Copyright: Copyright (c) 2010-12 by vernon adams. All rights reserved.
Version: 1.001
FONDName: Annaheim
ItalicAngle: 0
UnderlinePosition: 0
UnderlineWidth: 0
Ascent: 1638
Descent: 410
UFOAscent: 1308
UFODescent: -389
LayerCount: 2
Layer: 0 0 "Back"  1
Layer: 1 0 "Fore"  0
FSType: 0
OS2Version: 0
OS2_WeightWidthSlopeOnly: 0
OS2_UseTypoMetrics: 0
CreationTime: 1344552789
ModificationTime: 1364054285
PfmFamily: 33
TTFWeight: 400
TTFWidth: 5
LineGap: 0
VLineGap: 0
OS2TypoAscent: 1968
OS2TypoAOffset: 0
OS2TypoDescent: -672
OS2TypoDOffset: 0
OS2TypoLinegap: 0
OS2WinAscent: 1968
OS2WinAOffset: 0
OS2WinDescent: 672
OS2WinDOffset: 0
HheadAscent: 1968
HheadAOffset: 0
HheadDescent: -672
HheadDOffset: 0
OS2Vendor: 'newt'
Lookup: 4 0 1 "'liga' Standard Ligatures lookup 0"  {"'liga' Standard Ligatures lookup 0-1"  } ['liga' ('DFLT' <'dflt' > 'grek' <'dflt' > 'latn' <'dflt' > ) ]
Lookup: 258 0 0 "'kern' Horizontal Kerning in Latin lookup 0"  {"'kern' Horizontal Kerning in Latin lookup 0 subtable"  } ['kern' ('latn' <'dflt' > ) ]
MarkAttachClasses: 1
DEI: 91125
LangName: 1033 "" "" "" "Anaheim Regular" "" "Version 1.000" "" "Anaheim is a trademark of vernon adams." "Vernon Adams" "Vernon Adams" "Copyright (c) 2010-12 by vernon adams. All rights reserved." "http://code.newtypography.co.uk" "http://code.newtypography.co.uk" "Copyright (c) 2010-12, vernon adams (vern@newtypography.co.uk),+AAoA-with Reserved Font Name Anaheim.+AAoACgAA-This Font Software is licensed under the SIL Open Font License, Version 1.1.+AAoA-This license is copied below, and is also available with a FAQ at:+AAoA-http://scripts.sil.org/OFL" "http://scripts.sil.org/OFL" "" "Anaheim" "Regular" "Anaheim" 
PickledData: "(dp1
S'com.typemytype.robofont.compileSettings.autohint'
p2
I0
sS'com.typemytype.robofont.compileSettings.decompose'
p3
I0
sS'com.typemytype.robofont.foreground.layerStrokeColor'
p4
(F0.5
F0

StartChar: A
Encoding: 1 65 1
Width: 1081
VWidth: 0
Flags: W
PickledData: "(dp1
S'com.typemytype.robofont.layerData'
p2
(dp3
S'B'
(dp4
S'name'
p5
S'A'
sS'lib'
p6
(dp7
sS'unicodes'
p8
(tsS'width'
p9
I1081
sS'contours'
p10
(tsS'components'
p11
(tsS'anchors'
p12
(tsss."
HStem: 0 21G<54 199.098 891.085 1027> 328 92<323 769> 1264 20G<447.769 650.95>
LayerCount: 2
UndoRedoHistory
Layer: 1
Undoes
EndUndoes
Redoes
EndRedoes
EndUndoRedoHistory
Fore
SplineSet
897 0 m 1
 800 328 l 1
 293 328 l 1
 193 0 l 1
 54 0 l 1
 454 1284 l 1
 645 1284 l 1
 1027 0 l 1
 897 0 l 1
769 420 m 1
 550 1174 l 1
 323 420 l 1
 769 420 l 1
EndSplineSet
EndChar

StartChar: AE
Encoding: 2 198 2
Width: 1381
VWidth: 0
Flags: W
HStem: 0 100<817 1282> 328 92<316 689> 626 96<817 1238> 1184 100<817 1272>
VStem: 689 128<100 328 420 626 722 1184>
LayerCount: 2
UndoRedoHistory
Layer: 1
Undoes
EndUndoes
Redoes
EndRedoes
EndUndoRedoHistory
Fore
SplineSet
689 1194 m 1
 316 420 l 1
 689 420 l 1
 689 1194 l 1
817 626 m 1
 817 100 l 1
 1282 100 l 1
 1298 0 l 1
 689 0 l 1
 689 328 l 1
 278 328 l 1
 114 0 l 1
 -26 0 l 1
 616 1284 l 1
 1294 1284 l 1
 1272 1184 l 1
 817 1184 l 1
 817 722 l 1
 1238 722 l 1
 1238 626 l 1
 817 626 l 1
EndSplineSet
EndChar

StartChar: B
Encoding: 9 66 9
Width: 1041
VWidth: 0
Flags: W
PickledData: "(dp1
S'com.typemytype.robofont.layerData'
p2
(dp3
S'B'
(dp4
S'name'
p5
S'B'
sS'lib'
p6
(dp7
sS'unicodes'
p8
(tsS'width'
p9
I1041
sS'contours'
p10
(tsS'components'
p11
(tsS'anchors'
p12
(tsss."
HStem: 0 100<277 717.487> 629 94<277 708.045> 1184 100<277 709.907>
VStem: 149 128<100 629 723 1184> 791 112<804.534 1111.54> 821 128<195.514 531.504>
LayerCount: 2
UndoRedoHistory
Layer: 1
Undoes
EndUndoes
Redoes
EndRedoes
EndUndoRedoHistory
Fore
SplineSet
510 723 m 2xf8
 700 723 791 781 791 971 c 0
 791 1132 701 1184 494 1184 c 2
 277 1184 l 1
 277 723 l 1
 510 723 l 2xf8
821 375 m 0xf4
 821 555 712 629 511 629 c 2
 277 629 l 1
 277 100 l 1
 474 100 l 2
 694 100 821 139 821 375 c 0xf4
709 687 m 1
 852 654 949 556 949 377 c 0xf4
 949 65 780 0 467 0 c 2
 149 0 l 1
 149 1284 l 1
 470 1284 l 2
 764 1284 903 1222 903 971 c 0xf8
 903 810 853 722 709 687 c 1
EndSplineSet
EndChar

StartChar: C
Encoding: 10 67 10
Width: 1014
VWidth: 0
Flags: W
PickledData: "(dp1
S'com.typemytype.robofont.guides'
p2
(tsS'com.typemytype.robofont.layerData'
p3
(dp4
S'B'
(dp5
S'name'
p6
S'C'
sS'lib'
p7
(dp8
sS'unicodes'
p9
(tsS'width'
p10
I1014
sS'contours'
p11
(tsS'components'
p12
(tsS'anchors'
p13
(tsss."
HStem: -10 106<440.965 836.657> 984 242<790.378 896> 1195 106<410.819 785.01>
VStem: 118 128<337.301 990.535> 787 109<984 1173.5>
LayerCount: 2
UndoRedoHistory
Layer: 1
Undoes
EndUndoes
Redoes
EndRedoes
EndUndoRedoHistory
Fore
SplineSet
246 638 m 0xb8
 246 252 401 96 606 96 c 0
 693 96 780 112 883 161 c 1
 923 64 l 1
 806 8 702 -10 598 -10 c 0
 329 -10 118 189 118 641 c 0
 118 1114 270 1301 586 1301 c 0xb8
 685 1301 786 1280 896 1226 c 1
 896 984 l 1
 787 984 l 1xd8
 787 1157 l 1
 735 1180 668 1195 597 1195 c 0
 371 1195 246 1092 246 638 c 0xb8
EndSplineSet
EndChar

StartChar: D
Encoding: 12 68 12
Width: 1099
VWidth: 0
Flags: W
PickledData: "(dp1
S'com.typemytype.robofont.layerData'
p2
(dp3
S'B'
(dp4
S'name'
p5
S'D'
sS'lib'
p6
(dp7
sS'unicodes'
p8
(tsS'width'
p9
I1099
sS'contours'
p10
(tsS'components'
p11
(tsS'anchors'
p12
(tsss."
HStem: 0 100<277 689.252> 1184 100<277 672.391>
VStem: 149 128<100 1184> 853 128<271.162 992.662>
LayerCount: 2
UndoRedoHistory
Layer: 1
Undoes
EndUndoes
Redoes
EndRedoes
EndUndoRedoHistory
Fore
SplineSet
422 1184 m 2
 277 1184 l 1
 277 100 l 1
 433 100 l 2
 817 100 853 266 853 636 c 0
 853 1030 797 1184 422 1184 c 2
433 0 m 2
 149 0 l 1
 149 1284 l 1
 422 1284 l 2
 876 1284 981 1101 981 636 c 0
 981 229 905 0 433 0 c 2
EndSplineSet
EndChar

StartChar: Delta
Encoding: 13 916 13
Width: 1082
VWidth: 0
Flags: W
HStem: 0 102<246 838> 1245 94<539 563>
LayerCount: 2
UndoRedoHistory
Layer: 1
Undoes
EndUndoes
Redoes
EndRedoes
EndUndoRedoHistory
Fore
SplineSet
970 0 m 1
 113 0 l 1
 464 1339 l 1
 640 1339 l 1
 970 0 l 1
246 102 m 1
 838 102 l 1
 563 1245 l 1
 539 1245 l 1
 246 102 l 1
EndSplineSet
EndChar

StartChar: E
Encoding: 14 69 14
Width: 921
VWidth: 0
Flags: W
PickledData: "(dp1
S'com.typemytype.robofont.layerData'
p2
(dp3
S'B'
(dp4
S'name'
p5
S'E'
sS'lib'
p6
(dp7
sS'unicodes'
p8
(tsS'width'
p9
I921
sS'contours'
p10
(tsS'components'
p11
(tsS'anchors'
p12
(tsss."
HStem: 0 100<277 822> 626 96<277 778> 1184 100<277 812>
VStem: 149 128<100 626 722 1184>
LayerCount: 2
UndoRedoHistory
Layer: 1
Undoes
EndUndoes
Redoes
EndRedoes
EndUndoRedoHistory
Fore
SplineSet
277 626 m 1
 277 100 l 1
 822 100 l 1
 838 0 l 1
 149 0 l 1
 149 1284 l 1
 834 1284 l 1
 812 1184 l 1
 277 1184 l 1
 277 722 l 1
 778 722 l 1
 778 626 l 1
 277 626 l 1
EndSplineSet
EndChar

StartChar: Euro
Encoding: 20 8364 20
Width: 1059
VWidth: 0
Flags: W
HStem: -10 106<513.508 907.657> 555 91<71 189 320 717> 749 91<71 192 328 717> 984 242<861.378 967> 1195 106<476.672 856.01>
VStem: 192 128<334.947 555 646 749 840 991.805> 858 109<984 1173.5>
LayerCount: 2
UndoRedoHistory
Layer: 1
Undoes
EndUndoes
Redoes
EndRedoes
EndUndoRedoHistory
Fore
SplineSet
71 749 m 1xee
 71 840 l 1
 200 840 l 1
 240 1167 390 1301 657 1301 c 0xee
 756 1301 857 1280 967 1226 c 1
 967 984 l 1
 858 984 l 1xf6
 858 1157 l 1
 806 1180 739 1195 668 1195 c 0
 480 1195 363 1124 328 840 c 1
 717 840 l 1
 717 749 l 1
 320 749 l 1
 318 717 317 683 317 646 c 1
 717 646 l 1
 717 555 l 1
 320 555 l 1
 341 229 487 96 677 96 c 0
 764 96 851 112 954 161 c 1
 994 64 l 1
 877 8 773 -10 669 -10 c 0
 418 -10 217 164 192 555 c 1
 71 555 l 1
 71 646 l 1
 189 646 l 1
 189 682 190 716 192 749 c 1
 71 749 l 1xee
EndSplineSet
EndChar

StartChar: F
Encoding: 21 70 21
Width: 852
VWidth: 0
Flags: W
PickledData: "(dp1
S'com.typemytype.robofont.layerData'
p2
(dp3
S'B'
(dp4
S'name'
p5
S'F'
sS'lib'
p6
(dp7
sS'unicodes'
p8
(tsS'width'
p9
I852
sS'contours'
p10
(tsS'components'
p11
(tsS'anchors'
p12
(tsss."
HStem: 0 21G<149 277> 603 94<277 733> 1184 100<277 797>
VStem: 149 128<0 603 697 1184>
LayerCount: 2
UndoRedoHistory
Layer: 1
Undoes
EndUndoes
Redoes
EndRedoes
EndUndoRedoHistory
Fore
SplineSet
277 697 m 1
 733 697 l 1
 733 603 l 1
 277 603 l 1
 277 0 l 1
 149 0 l 1
 149 1284 l 1
 816 1284 l 1
 797 1184 l 1
 277 1184 l 1
 277 697 l 1
EndSplineSet
EndChar

StartChar: G
Encoding: 22 71 22
Width: 1094
VWidth: 0
Flags: W
PickledData: "(dp1
S'com.typemytype.robofont.layerData'
p2
(dp3
S'B'
(dp4
S'name'
p5
S'G'
sS'lib'
p6
(dp7
sS'unicodes'
p8
(tsS'width'
p9
I1094
sS'contours'
p10
((dp11
S'points'
p12
((dp13
S'segmentType'
p14
S'curve'
p15
sS'x'
F250
sS'smooth'
p16
I01
sS'y'
F638
s(dp17
S'y'
F1092
sS'x'
F250
sg16
I00
s(dp18
S'y'
F1195
sS'x'
F375
sg16
I00
s(dp19
g14
S'curve'
p20
sS'x'
F601
sg16
I01
sS'y'
F1195
s(dp21
S'y'
F1195
sS'x'
F672
sg16
I00
s(dp22
S'y'
F1180
sS'x'
F743
sg16
I00
s(dp23
g14
S'curve'
p24
sS'x'
F795
sg16
I00
sS'y'
F1157
s(dp25
g14
S'line'
p26
sS'x'
F795
sg16
I00
sS'y'
F984
s(dp27
g14
S'line'
p28
sS'x'
F904
sg16
I00
sS'y'
F984
s(dp29
g14
S'line'
p30
sS'x'
F904
sg16
I00
sS'y'
F1226
s(dp31
S'y'
F1280
sS'x'
F794
sg16
I00
s(dp32
S'y'
F1301
sS'x'
F689
sg16
I00
s(dp33
g14
S'curve'
p34
sS'x'
F590
sg16
I01
sS'y'
F1301
s(dp35
S'y'
F1301
sS'x'
F274
sg16
I00
s(dp36
S'y'
F1114
sS'x'
F126
sg16
I00
s(dp37
g14
S'curve'
p38
sS'x'
F126
sg16
I01
sS'y'
F641
s(dp39
S'y'
F141
sS'x'
F126
sg16
I00
s(dp40
S'y'
F-10
sS'x'
F315
sg16
I00
s(dp41
g14
S'curve'
p42
sS'x'
F613
sg16
I01
sS'y'
F-10
s(dp43
S'y'
F-10
sS'x'
F744
sg16
I00
s(dp44
S'y'
F15
sS'x'
F821
sg16
I00
s(dp45
g14
S'curve'
p46
sS'x'
F931
sg16
I00
sS'y'
F76
s(dp47
g14
S'line'
p48
sS'x'
F891
sg16
I00
sS'y'
F173
s(dp49
S'y'
F116
sS'x'
F780
sg16
I00
s(dp50
S'y'
F96
sS'x'
F708
sg16
I00
s(dp51
g14
S'curve'
p52
sS'x'
F626
sg16
I01
sS'y'
F96
s(dp53
S'y'
F96
sS'x'
F390
sg16
I00
s(dp54
S'y'
F212
sS'x'
F250
sg16
I00
stp55
stp56
sS'components'
p57
(tsS'anchors'
p58
(tsss."
HStem: -10 106<400.053 836.407> 567 98<612 848> 984 242<823.659 929> 1195 106<410.373 817.934>
VStem: 110 125<296.353 980.876> 820 109<984 1172.64> 848 116<128.224 567>
LayerCount: 2
UndoRedoHistory
Layer: 1
Undoes
EndUndoes
Redoes
EndRedoes
EndUndoRedoHistory
Fore
SplineSet
964 92 m 1xda
 901 58 778 -10 584 -10 c 0
 231 -10 110 198 110 650 c 0
 110 1123 283 1301 599 1301 c 0xda
 698 1301 819 1280 929 1226 c 1
 929 984 l 1
 820 984 l 1
 820 1157 l 1xec
 768 1180 681 1195 610 1195 c 0
 386 1195 236 1103 235 659 c 0
 235 263 319 96 590 96 c 0
 678 96 779 112 848 145 c 1
 848 567 l 1
 612 567 l 1
 612 665 l 1
 964 665 l 1
 964 92 l 1xda
EndSplineSet
EndChar

StartChar: H
Encoding: 23 72 23
Width: 1134
VWidth: 0
Flags: W
PickledData: "(dp1
S'com.typemytype.robofont.layerData'
p2
(dp3
S'B'
(dp4
S'name'
p5
S'H'
sS'lib'
p6
(dp7
sS'unicodes'
p8
(tsS'width'
p9
I1134
sS'contours'
p10
(tsS'components'
p11
(tsS'anchors'
p12
(tsss."
HStem: 0 21G<149 277 857 985> 602 101<277 857> 1264 20G<149 277 857 985>
VStem: 149 128<0 602 703 1284> 857 128<0 602 703 1284>
LayerCount: 2
Fore
SplineSet
857 1284 m 1
 985 1284 l 1
 985 0 l 1
 857 0 l 1
 857 602 l 1
 277 602 l 1
 277 0 l 1
 149 0 l 1
 149 1284 l 1
 277 1284 l 1
 277 703 l 1
 857 703 l 1
 857 1284 l 1
EndSplineSet
EndChar

StartChar: I
Encoding: 24 73 24
Width: 730
VWidth: 0
Flags: W
PickledData: "(dp1
S'com.typemytype.robofont.layerData'
p2
(dp3
S'B'
(dp4
S'name'
p5
S'I'
sS'lib'
p6
(dp7
sS'unicodes'
p8
(tsS'width'
p9
I730
sS'contours'
p10
(tsS'components'
p11
(tsS'anchors'
p12
(tsss."
HStem: 0 100<110 304 432 620> 1184 100<110 304 432 616>
VStem: 304 128<100 1184>
LayerCount: 2
UndoRedoHistory
Layer: 1
Undoes
EndUndoes
Redoes
EndRedoes
EndUndoRedoHistory
Fore
SplineSet
432 1184 m 1
 432 100 l 1
 620 100 l 1
 620 0 l 1
 110 0 l 1
 110 100 l 1
 304 100 l 1
 304 1184 l 1
 110 1184 l 1
 110 1284 l 1
 616 1284 l 1
 616 1184 l 1
 432 1184 l 1
EndSplineSet
EndChar

StartChar: J
Encoding: 29 74 29
Width: 643
VWidth: 0
Flags: W
PickledData: "(dp1
S'com.typemytype.robofont.layerData'
p2
(dp3
S'B'
(dp4
S'name'
p5
S'J'
sS'lib'
p6
(dp7
sS'unicodes'
p8
(tsS'width'
p9
I643
sS'contours'
p10
(tsS'components'
p11
(tsS'anchors'
p12
(tsss."
HStem: -232 105<58.2193 325.204> 1184 100<105 366>
VStem: 366 128<-85.8166 1184>
LayerCount: 2
UndoRedoHistory
Layer: 1
Undoes
EndUndoes
Redoes
EndRedoes
EndUndoRedoHistory
Fore
SplineSet
494 1284 m 1
 494 91 l 2
 494 -155 395 -232 223 -232 c 0
 166 -232 102 -221 47 -200 c 1
 62 -99 l 1
 110 -116 167 -127 214 -127 c 0
 327 -127 366 -62 366 91 c 2
 366 1184 l 1
 105 1184 l 1
 105 1284 l 1
 494 1284 l 1
EndSplineSet
EndChar

StartChar: K
Encoding: 30 75 30
Width: 1032
VWidth: 0
Flags: W
PickledData: "(dp1
S'com.typemytype.robofont.layerData'
p2
(dp3
S'B'
(dp4
S'name'
p5
S'K'
sS'lib'
p6
(dp7
sS'unicodes'
p8
(tsS'width'
p9
I1032
sS'contours'
p10
(tsS'components'
p11
(tsS'anchors'
p12
(tsss."
HStem: 0 21G<149 277 847.515 1001> 1264 20G<149 277 809.466 975>
VStem: 149 128<0 480 609 1284>
LayerCount: 2
Fore
SplineSet
277 0 m 1
 149 0 l 1
 149 1284 l 1
 277 1284 l 1
 277 609 l 1
 432 778 l 1
 825 1284 l 1
 975 1284 l 1
 550 721 l 1
 1001 0 l 1
 860 0 l 1
 453 652 l 1
 277 480 l 1
 277 0 l 1
EndSplineSet
EndChar

StartChar: L
Encoding: 31 76 31
Width: 825
VWidth: 0
Flags: W
PickledData: "(dp1
S'com.typemytype.robofont.layerData'
p2
(dp3
S'B'
(dp4
S'name'
p5
S'L'
sS'lib'
p6
(dp7
sS'unicodes'
p8
(tsS'width'
p9
I825
sS'contours'
p10
(tsS'components'
p11
(tsS'anchors'
p12
(tsss."
HStem: 0 100<277 769> 1264 20G<149 277>
VStem: 149 128<100 1284>
LayerCount: 2
UndoRedoHistory
Layer: 1
Undoes
EndUndoes
Redoes
EndRedoes
EndUndoRedoHistory
Fore
SplineSet
277 1284 m 1
 277 100 l 1
 769 100 l 1
 786 0 l 1
 149 0 l 1
 149 1284 l 1
 277 1284 l 1
EndSplineSet
EndChar

StartChar: M
Encoding: 32 77 32
Width: 1362
VWidth: 0
Flags: W
PickledData: "(dp1
S'com.typemytype.robofont.layerData'
p2
(dp3
S'B'
(dp4
S'name'
p5
S'M'
sS'lib'
p6
(dp7
sS'unicodes'
p8
(tsS'width'
p9
I1362
sS'contours'
p10
(tsS'components'
p11
(tsS'anchors'
p12
(tsss."
HStem: 0 21G<137 256.562 1105.27 1225> 1264 20G<235.442 387.604 966.624 1117.7>
LayerCount: 2
UndoRedoHistory
Layer: 1
Undoes
EndUndoes
Redoes
EndRedoes
EndUndoRedoHistory
Fore
SplineSet
1012 1099 m 1
 739 438 l 1
 624 438 l 1
 341 1101 l 1
 255 0 l 1
 137 0 l 1
 237 1284 l 1
 379 1284 l 1
 681 582 l 1
 975 1284 l 1
 1116 1284 l 1
 1225 0 l 1
 1107 0 l 1
 1012 1099 l 1
EndSplineSet
EndChar

StartChar: N
Encoding: 33 78 33
Width: 1193
VWidth: 0
Flags: W
PickledData: "(dp1
S'com.typemytype.robofont.layerData'
p2
(dp3
S'B'
(dp4
S'name'
p5
S'N'
sS'lib'
p6
(dp7
sS'unicodes'
p8
(tsS'width'
p9
I1193
sS'contours'
p10
(tsS'components'
p11
(tsS'anchors'
p12
(tsss."
HStem: 0 21G<149 271 906.03 1044> 1264 20G<149 297.075 928 1044>
VStem: 149 122<0 1081> 928 116<219 1284>
LayerCount: 2
UndoRedoHistory
Layer: 1
Undoes
EndUndoes
Redoes
EndRedoes
EndUndoRedoHistory
Fore
SplineSet
928 1284 m 1
 1044 1284 l 1
 1044 0 l 1
 918 0 l 1
 271 1081 l 1
 271 0 l 1
 149 0 l 1
 149 1284 l 1
 285 1284 l 1
 928 219 l 1
 928 1284 l 1
EndSplineSet
EndChar

StartChar: O
Encoding: 35 79 35
Width: 1128
VWidth: 0
Flags: W
PickledData: "(dp1
S'com.typemytype.robofont.layerData'
p2
(dp3
S'B'
(dp4
S'name'
p5
S'O'
sS'lib'
p6
(dp7
sS'unicodes'
p8
(tsS'width'
p9
I1128
sS'contours'
p10
(tsS'components'
p11
(tsS'anchors'
p12
(tsss."
HStem: -10 106<390.967 737.033> 1195 106<393.849 734.151>
VStem: 116 128<283.271 1010.31> 884 128<283.271 1010.31>
LayerCount: 2
Fore
SplineSet
564 96 m 0
 814 96 884 264 884 645 c 0
 884 1030 811 1195 564 1195 c 0
 317 1195 244 1030 244 645 c 0
 244 264 314 96 564 96 c 0
564 1301 m 0
 913 1301 1012 1065 1012 648 c 0
 1012 232 925 -10 564 -10 c 0
 203 -10 116 232 116 648 c 0
 116 1065 215 1301 564 1301 c 0
EndSplineSet
EndChar

StartChar: OE
Encoding: 36 338 36
Width: 1656
VWidth: 0
Flags: W
PickledData: "(dp1
S'com.typemytype.robofont.layerData'
p2
(dp3
S'B'
(dp4
S'name'
p5
S'OE'
p6
sS'lib'
p7
(dp8
sS'unicodes'
p9
(tsS'width'
p10
I2131
sS'contours'
p11
(tsS'components'
p12
(tsS'anchors'
p13
(tsss."
HStem: 0 104<388.603 884 1012 1557> 626 96<1012 1513> 1184 100<393.059 885 1012 1547>
VStem: 116 128<286.082 1006> 884 128<105 626 722 1184>
LayerCount: 2
UndoRedoHistory
Layer: 1
Undoes
EndUndoes
Redoes
EndRedoes
EndUndoRedoHistory
Fore
SplineSet
885 1185 m 1
 564 1184 l 2
 317 1184 244 1030 244 645 c 0
 244 264 314 104 564 104 c 2
 884 105 l 1
 885 1185 l 1
1012 626 m 1
 1012 104 l 1
 1557 104 l 1
 1573 0 l 1
 564 0 l 2
 203 0 116 232 116 648 c 0
 116 1065 215 1284 564 1284 c 2
 1569 1284 l 1
 1547 1184 l 1
 1012 1184 l 1
 1012 722 l 1
 1513 722 l 1
 1513 626 l 1
 1012 626 l 1
EndSplineSet
EndChar

StartChar: Omega
Encoding: 41 937 41
Width: 1055
VWidth: 0
Flags: W
HStem: 0 102<165 336 406.667 473 580 648.156 716 899> 1256 107<387.517 667.784>
VStem: 139 112<333.32 1093.53> 805 108<339.582 659 660 1081.06>
LayerCount: 2
UndoRedoHistory
Layer: 1
Undoes
EndUndoes
Redoes
EndRedoes
EndUndoRedoHistory
Fore
SplineSet
804 660 m 1
 804 1025 772 1245 526 1256 c 1
 296 1249 246 1029 246 763 c 1
 251 570 l 1
 275 318 344 153 473 103 c 1
 473 1 l 1
 165 1 l 1
 165 93 l 1
 336 93 l 1
 336 103 l 1
 193 211 139 391 139 675 c 0
 139 1071 194 1363 526 1363 c 0
 846 1363 913 1085 913 710 c 0
 913 396 863 214 716 102 c 1
 899 102 l 1
 899 0 l 1
 580 0 l 1
 580 102 l 1
 740 158 805 413 805 659 c 1
 804 660 l 1
EndSplineSet
EndChar

StartChar: P
Encoding: 44 80 44
Width: 981
VWidth: 0
Flags: W
PickledData: "(dp1
S'com.typemytype.robofont.layerData'
p2
(dp3
S'B'
(dp4
S'name'
p5
S'P'
sS'lib'
p6
(dp7
sS'unicodes'
p8
(tsS'width'
p9
I981
sS'contours'
p10
(tsS'components'
p11
(tsS'anchors'
p12
(tsss."
HStem: 0 21G<149 277> 536 104<277 693.684> 1184 100<277 699.18>
VStem: 149 128<0 536 640 1184> 789 128<727.656 1096.7>
LayerCount: 2
UndoRedoHistory
Layer: 1
Undoes
EndUndoes
Redoes
EndRedoes
EndUndoRedoHistory
Fore
SplineSet
498 1284 m 2
 757 1284 917 1200 917 905 c 0
 917 597 729 536 384 536 c 2
 277 536 l 1
 277 0 l 1
 149 0 l 1
 149 1284 l 1
 498 1284 l 2
277 640 m 1
 361 640 l 2
 651 640 789 647 789 903 c 0
 789 1127 694 1184 506 1184 c 2
 277 1184 l 1
 277 640 l 1
EndSplineSet
EndChar

StartChar: Q
Encoding: 45 81 45
Width: 1132
VWidth: 0
Flags: W
PickledData: "(dp1
S'com.typemytype.robofont.layerData'
p2
(dp3
S'B'
(dp4
S'name'
p5
S'Q'
sS'lib'
p6
(dp7
sS'unicodes'
p8
(tsS'width'
p9
I1132
sS'contours'
p10
(tsS'components'
p11
(tsS'anchors'
p12
(tsss."
HStem: -16 112<392.967 717.596> 1196 112<395.849 736.151>
VStem: 118 128<282.452 1011.44> 886 128<277.031 1011.44>
LayerCount: 2
UndoRedoHistory
Layer: 1
Undoes
EndUndoes
Redoes
EndRedoes
EndUndoRedoHistory
Fore
SplineSet
922 -159 m 1
 787 29 l 1
 728 -1 656 -16 566 -16 c 0
 205 -16 118 232 118 648 c 0
 118 1065 217 1308 566 1308 c 0
 915 1308 1014 1065 1014 648 c 0
 1014 384 979 188 861 80 c 1
 993 -104 l 1
 922 -159 l 1
566 96 m 0
 627 96 678 102 719 124 c 1
 596 295 l 1
 667 351 l 1
 789 180 l 1
 861 267 886 419 886 645 c 0
 886 1030 813 1196 566 1196 c 0
 319 1196 246 1030 246 645 c 0
 246 264 316 96 566 96 c 0
EndSplineSet
EndChar

StartChar: R
Encoding: 46 82 46
Width: 1053
VWidth: 0
Flags: W
PickledData: "(dp1
S'com.typemytype.robofont.layerData'
p2
(dp3
S'B'
(dp4
S'name'
p5
S'R'
sS'lib'
p6
(dp7
sS'unicodes'
p8
(tsS'width'
p9
I1053
sS'contours'
p10
(tsS'components'
p11
(tsS'anchors'
p12
(tsss."
HStem: 0 21G<149 277> 567 95<277 547.743> 1184 100<277 694.172>
VStem: 149 128<0 567 662 1184> 789 128<745.368 1094.45>
LayerCount: 2
UndoRedoHistory
Layer: 1
Undoes
EndUndoes
Redoes
EndRedoes
EndUndoRedoHistory
Fore
SplineSet
975 41 m 1
 870 -25 l 1
 870 -25 663 316 550 573 c 1
 502 569 444 567 387 567 c 2
 277 567 l 1
 277 0 l 1
 149 0 l 1
 149 1284 l 1
 402 1284 l 2
 743 1284 917 1238 917 922 c 0
 917 722 834 629 669 591 c 1
 762 381 975 41 975 41 c 1
789 920 m 0
 789 1166 656 1184 396 1184 c 2
 277 1184 l 1
 277 662 l 1
 364 662 l 2
 689 662 789 697 789 920 c 0
EndSplineSet
EndChar

StartChar: S
Encoding: 47 83 47
Width: 947
VWidth: 0
Flags: W
PickledData: "(dp1
S'com.typemytype.robofont.layerData'
p2
(dp3
S'B'
(dp4
S'name'
p5
S'S'
sS'lib'
p6
(dp7
sS'unicodes'
p8
(tsS'width'
p9
F947.10076023500005
sS'contours'
p10
(tsS'components'
p11
(tsS'anchors'
p12
(tsss."
HStem: -10 106<212.918 643.457> 1195 106<319.7 781.196>
VStem: 105 128<840.573 1110.4> 745 128<195.334 498.523>
LayerCount: 2
UndoRedoHistory
Layer: 1
Undoes
EndUndoes
Redoes
EndRedoes
EndUndoRedoHistory
Fore
SplineSet
819 1137 m 1
 734 1169 641 1195 514 1195 c 0
 359 1195 233 1143 233 972 c 0
 233 867 265 816 417 761 c 2
 531 720 l 2
 694 661 873 617 873 353 c 0
 873 117 717 -10 481 -10 c 0
 352 -10 211 11 105 68 c 1
 133 173 l 1
 209 140 310 96 471 96 c 0
 634 96 745 175 745 355 c 0
 745 512 660 549 499 603 c 2
 376 644 l 2
 209 700 105 786 105 969 c 0
 105 1213 282 1301 497 1301 c 0
 615 1301 733 1284 842 1239 c 1
 819 1137 l 1
EndSplineSet
EndChar

StartChar: T
Encoding: 48 84 48
Width: 891
VWidth: 0
Flags: W
PickledData: "(dp1
S'com.typemytype.robofont.layerData'
p2
(dp3
S'B'
(dp4
S'name'
p5
S'T'
sS'lib'
p6
(dp7
sS'unicodes'
p8
(tsS'width'
p9
I891
sS'contours'
p10
(tsS'components'
p11
(tsS'anchors'
p12
(tsss."
HStem: 0 21G<379 507> 1184 100<35 379 507 856>
VStem: 379 128<0 1184>
LayerCount: 2
UndoRedoHistory
Layer: 1
Undoes
EndUndoes
Redoes
EndRedoes
EndUndoRedoHistory
Fore
SplineSet
35 1184 m 1
 35 1284 l 1
 856 1284 l 1
 856 1184 l 1
 507 1184 l 1
 507 0 l 1
 379 0 l 1
 379 1184 l 1
 35 1184 l 1
EndSplineSet
EndChar

StartChar: U
Encoding: 49 85 49
Width: 1080
VWidth: 0
Flags: W
PickledData: "(dp1
S'com.typemytype.robofont.layerData'
p2
(dp3
S'B'
(dp4
S'name'
p5
S'U'
sS'lib'
p6
(dp7
sS'unicodes'
p8
(tsS'width'
p9
I1080
sS'contours'
p10
(tsS'components'
p11
(tsS'anchors'
p12
(tsss."
HStem: -16 112<358.495 721.505> 1264 20G<124 252 828 956>
VStem: 124 128<214.125 1284> 828 128<214.125 1284>
LayerCount: 2
UndoRedoHistory
Layer: 1
Undoes
EndUndoes
Redoes
EndRedoes
EndUndoRedoHistory
Fore
SplineSet
540 96 m 0
 813 96 828 263 828 540 c 2
 828 1284 l 1
 956 1284 l 1
 956 635 l 2
 956 224 926 -16 540 -16 c 0
 154 -16 124 224 124 635 c 2
 124 1284 l 1
 252 1284 l 1
 252 540 l 2
 252 263 267 96 540 96 c 0
EndSplineSet
EndChar

StartChar: V
Encoding: 54 86 54
Width: 1008
VWidth: 0
Flags: W
PickledData: "(dp1
S'com.typemytype.robofont.layerData'
p2
(dp3
S'B'
(dp4
S'name'
p5
S'V'
sS'lib'
p6
(dp7
sS'unicodes'
p8
(tsS'width'
p9
I1008
sS'contours'
p10
(tsS'components'
p11
(tsS'anchors'
p12
(tsss."
HStem: 0 21G<419.257 588.743> 1265 20G<56 245.5 759.5 952>
LayerCount: 2
UndoRedoHistory
Layer: 1
Undoes
EndUndoes
Redoes
EndRedoes
EndUndoRedoHistory
Fore
SplineSet
188 1285 m 1
 303 838 415 468 504 134 c 1
 593 468 702 838 817 1285 c 1
 952 1285 l 1
 583 0 l 1
 425 0 l 1
 56 1285 l 1
 188 1285 l 1
EndSplineSet
EndChar

StartChar: W
Encoding: 55 87 55
Width: 1337
VWidth: 0
Flags: W
PickledData: "(dp1
S'com.typemytype.robofont.layerData'
p2
(dp3
S'B'
(dp4
S'name'
p5
S'W'
sS'lib'
p6
(dp7
sS'unicodes'
p8
(tsS'width'
p9
I1337
sS'contours'
p10
(tsS'components'
p11
(tsS'anchors'
p12
(tsss."
HStem: 0 21G<283.991 434.236 935.536 1086.87> 1264 20G<157 277.093 1085.07 1205>
LayerCount: 2
Back
SplineSet
369 178 m 5
 182 1284 l 5
 62 1284 l 5
 291 0 l 5
 418 0 l 5
 663 835 l 5
 918 0 l 5
 1039 0 l 5
 1275 1284 l 5
 1156 1284 l 5
 966 176 l 5
 720 1003 l 5
 605 1003 l 5
 369 178 l 5
EndSplineSet
UndoRedoHistory
Layer: 1
Undoes
EndUndoes
Redoes
EndRedoes
EndUndoRedoHistory
Fore
SplineSet
390 185 m 1
 623 846 l 1
 738 846 l 1
 981 183 l 5
 1087 1284 l 1
 1205 1284 l 1
 1085 0 l 5
 943 0 l 5
 681 702 l 1
 427 0 l 1
 286 0 l 1
 157 1284 l 1
 275 1284 l 1
 390 185 l 1
EndSplineSet
EndChar

StartChar: X
Encoding: 56 88 56
Width: 899
VWidth: 0
Flags: W
PickledData: "(dp1
S'com.typemytype.robofont.layerData'
p2
(dp3
S'B'
(dp4
S'name'
p5
S'X'
sS'lib'
p6
(dp7
sS'unicodes'
p8
(tsS'width'
p9
I899
sS'contours'
p10
(tsS'components'
p11
(tsS'anchors'
p12
(tsss."
HStem: 0 21G<44 191.525 717.369 855> 1264 20G<70 209.351 692.724 820>
LayerCount: 2
UndoRedoHistory
Layer: 1
Undoes
EndUndoes
Redoes
EndRedoes
EndUndoRedoHistory
Fore
SplineSet
70 1284 m 1
 200 1284 l 1
 452 745 l 1
 702 1284 l 1
 820 1284 l 1
 535 657 l 1
 855 0 l 1
 727 0 l 1
 453 569 l 1
 182 0 l 1
 44 0 l 1
 362 658 l 1
 70 1284 l 1
EndSplineSet
EndChar

StartChar: Y
Encoding: 57 89 57
Width: 926
VWidth: 0
Flags: W
PickledData: "(dp1
S'com.typemytype.robofont.layerData'
p2
(dp3
S'B'
(dp4
S'name'
p5
S'Y'
sS'lib'
p6
(dp7
sS'unicodes'
p8
(tsS'width'
p9
I926
sS'contours'
p10
(tsS'components'
p11
(tsS'anchors'
p12
(tsss."
HStem: 0 21G<399 527> 1264 20G<15 167.552 754.586 911>
VStem: 399 128<0 586>
LayerCount: 2
UndoRedoHistory
Layer: 1
Undoes
EndUndoes
Redoes
EndRedoes
EndUndoRedoHistory
Fore
SplineSet
399 586 m 1
 15 1284 l 1
 157 1284 l 1
 463 704 l 1
 765 1284 l 1
 911 1284 l 1
 527 588 l 1
 527 0 l 1
 399 0 l 1
 399 586 l 1
EndSplineSet
EndChar

StartChar: Z
Encoding: 59 90 59
Width: 927
VWidth: 0
Flags: W
PickledData: "(dp1
S'com.typemytype.robofont.layerData'
p2
(dp3
S'B'
(dp4
S'name'
p5
S'Z'
sS'lib'
p6
(dp7
sS'unicodes'
p8
(tsS'width'
p9
I927
sS'contours'
p10
(tsS'components'
p11
(tsS'anchors'
p12
(tsss."
HStem: 0 100<252 841> 1184 100<135 673>
LayerCount: 2
UndoRedoHistory
Layer: 1
Undoes
EndUndoes
Redoes
EndRedoes
EndUndoRedoHistory
Fore
SplineSet
841 100 m 1
 841 0 l 1
 125 0 l 1
 104 98 l 1
 673 1184 l 1
 135 1184 l 1
 135 1284 l 1
 804 1284 l 1
 820 1176 l 1
 252 100 l 1
 841 100 l 1
EndSplineSet
EndChar

StartChar: a
Encoding: 60 97 60
Width: 953
VWidth: 0
Flags: W
PickledData: "(dp1
S'com.typemytype.robofont.layerData'
p2
(dp3
S'B'
(dp4
S'name'
p5
S'a'
sS'lib'
p6
(dp7
sS'unicodes'
p8
(tsS'width'
p9
I941
sS'contours'
p10
(tsS'components'
p11
(tsS'anchors'
p12
(tsss."
HStem: -10 102<289.427 640.123> 473 94<339.889 685> 895 105<219.175 605.251>
VStem: 109 120<152.273 385.573> 685 125<133.985 473 567 806.195> 718 92<0 47.3088>
LayerCount: 2
Back
SplineSet
229 278 m 4
 229 455 462 473 629 473 c 6
 685 473 l 5
 685 158 l 5
 630 122 533 92 445 92 c 4
 305 92 229 153 229 278 c 4
166 945 m 5
 192 841 l 5
 299 872 393 895 469 895 c 4
 604 895 684 822 685 587 c 5
 685 567 l 5
 597 567 l 6
 223 567 109 429 109 284 c 4
 109 85 241 -10 425 -10 c 4
 532 -10 653 30 698 66 c 5
 718 0 l 5
 813 0 l 5
 813 623 l 6
 813 909 667 1000 475 1000 c 4
 379 1000 272 979 166 945 c 5
EndSplineSet
UndoRedoHistory
Layer: 1
Undoes
EndUndoes
Redoes
EndRedoes
EndUndoRedoHistory
Fore
SplineSet
166 942 m 1xf8
 270 976 377 1000 474 1000 c 0
 663 1000 810 902 810 617 c 2xf8
 810 0 l 1
 718 0 l 1xf4
 698 66 l 1
 653 30 532 -10 425 -10 c 0
 241 -10 109 85 109 284 c 0
 109 429 223 567 597 567 c 2
 685 567 l 1
 685 599 l 2
 684 831 594 895 468 895 c 0
 386 895 289 868 191 843 c 1
 166 942 l 1xf8
229 278 m 0
 229 153 305 92 445 92 c 0
 533 92 630 122 685 158 c 1
 685 473 l 1
 629 473 l 2
 462 473 229 455 229 278 c 0
EndSplineSet
EndChar

StartChar: acute
Encoding: 63 180 63
Width: 410
VWidth: 0
Flags: W
HStem: 973 390
VStem: 113 351
LayerCount: 2
UndoRedoHistory
Layer: 1
Undoes
EndUndoes
Redoes
EndRedoes
EndUndoRedoHistory
Fore
SplineSet
113 1022 m 1
 358 1363 l 1
 464 1283 l 1
 367 1174 l 1
 320 1116 166 973 166 973 c 1
 113 1022 l 1
EndSplineSet
EndChar

StartChar: ae
Encoding: 65 230 65
Width: 1541
VWidth: 0
Flags: W
HStem: -10 106<284.185 635.075 937.03 1316.28> 469 90<328.831 685 813 1271.09> 895 105<219.175 604.746 942.685 1242.21>
VStem: 109 120<152.273 385.573> 685 128<238.457 469 567 743.125> 1321 108<606.455 817.47>
LayerCount: 2
Back
SplineSet
813 559 m 5
 1320 559 l 5
 1320 609 l 6
 1320 783 1230 894.978 1085 894.978 c 4
 912 894.978 828 766 813 559 c 5
229 278 m 4
 229 153 305 92 445 92 c 4
 551.292 92 627.543 113.59 732.465 216.111 c 5
 703.798 284.105 687.411 368.847 685.246 472.207 c 5
 685 473 l 5
 629 473 l 6
 462 473 229 455 229 278 c 4
166 942 m 5
 270.332 976.245 377.664 999.903 474.178 999.903 c 4
 599.087 999.903 725.436 944.473 761.799 789.234 c 5
 828.295 941.448 947.979 1000 1084 1000 c 4
 1306 1000 1439 841 1439 604 c 4
 1439 574 1436 528 1431 469 c 5
 813 469 l 5
 817 162 956 96 1102 96 c 4
 1201.7 96 1289.29 116.799 1382 176 c 5
 1421 75 l 5
 1325 16 1204 -10 1109 -10 c 4
 960.285 -10 841.707 38.2174 768.183 148.99 c 5
 710.092 63.6838 624.589 -10 425 -10 c 4
 241 -10 109 85 109 284 c 4
 109 429 223 567 597 567 c 6
 685 567 l 5
 685 599 l 6
 684.011 831.365 593.873 894.978 467.989 894.978 c 4
 385.92 894.978 288.657 867.94 191 843 c 5
 166 942 l 5
EndSplineSet
UndoRedoHistory
Layer: 1
Undoes
EndUndoes
Redoes
EndRedoes
EndUndoRedoHistory
Fore
SplineSet
166 942 m 1
 270 976 377 1000 474 1000 c 0
 599 1000 726 944 762 789 c 1
 829 941 950 1000 1087 1000 c 0
 1290 1000 1429 844 1429 707 c 0
 1429 581 1341 469 1128 469 c 2
 813 469 l 1
 817 162 956 96 1102 96 c 0
 1202 96 1289 117 1382 176 c 1
 1421 75 l 1
 1325 16 1204 -10 1109 -10 c 0
 960 -10 842 38 768 149 c 1
 710 64 625 -10 425 -10 c 0
 241 -10 109 85 109 284 c 0
 109 429 223 567 597 567 c 2
 685 567 l 1
 685 599 l 2
 684 831 594 895 468 895 c 0
 386 895 289 868 191 843 c 1
 166 942 l 1
229 278 m 0
 229 153 305 92 445 92 c 0
 551 92 627 113 732 216 c 1
 703 284 687 369 685 472 c 1
 685 473 l 1
 629 473 l 2
 462 473 229 455 229 278 c 0
813 559 m 1
 1126 559 l 2
 1261 559 1321 630 1321 707 c 0
 1321 798 1238 896 1099 896 c 0
 917 896 829 767 813 559 c 1
EndSplineSet
EndChar

StartChar: ampersand
Encoding: 67 38 67
Width: 1100
VWidth: 0
Flags: W
HStem: -10 106<330.983 686.088> 1196 105<373.983 605.769>
VStem: 124 128<167.247 443.032> 209 128<877.323 1159.1> 640 128<893.648 1162.84> 915 109<384.918 493.34>
LayerCount: 2
Back
SplineSet
819 1137 m 5
 734 1169 641 1195 514 1195 c 4
 359 1195 233 1143 233 972 c 4
 233 867 265 816 417 761 c 6
 531 720 l 6
 694 661 873 617 873 353 c 4
 873 117.01 716.903 -10 481 -10 c 4
 352 -10 211 11 105 68 c 5
 133 173 l 5
 209 140 310 96 471 96 c 4
 633.751 96 745 175.394 745 355 c 4
 745 512 660 549 499 603 c 6
 376 644 l 6
 209 700 105 786 105 969 c 4
 105 1213 282 1301 497 1301 c 4
 615 1301 733 1284 842 1239 c 5
 819 1137 l 5
EndSplineSet
UndoRedoHistory
Layer: 1
Undoes
EndUndoes
Redoes
EndRedoes
EndUndoRedoHistory
Fore
SplineSet
449 606 m 1xec
 342 519 252 426 252 297 c 0
 252 169 332 96 519 96 c 0
 615 96 690 130 751 191 c 1
 449 606 l 1xec
465 753 m 1
 561 833 640 922 640 1033 c 0
 640 1145 589 1196 492 1196 c 0
 397 1196 337 1145 337 1044 c 0xdc
 337 945 380 871 436 792 c 1
 465 753 l 1
1024 489 m 1
 1000 382 959 277 898 191 c 1
 1002 54 l 1
 908 -19 l 1
 819 100 l 1
 739 28 636 -10 505 -10 c 0
 261 -10 124 96 124 291 c 0xec
 124 472 250 586 378 689 c 1
 312 778 l 1
 255 859 209 954 209 1041 c 0
 209 1222 349 1301 489 1301 c 0
 645 1301 768 1220 768 1038 c 0
 768 886 657 769 537 667 c 1
 824 288 l 1
 861 353 891 432 915 522 c 1
 1024 489 l 1
EndSplineSet
EndChar

StartChar: approxequal
Encoding: 68 8776 68
Width: 1146
VWidth: 0
Flags: W
HStem: 202 100<645.297 872.12> 368 99<278.599 494.664> 578 105<654.114 872.538> 746 102<280.301 493.897>
LayerCount: 2
UndoRedoHistory
Layer: 1
Undoes
EndUndoes
Redoes
EndRedoes
EndUndoRedoHistory
Fore
SplineSet
943 660 m 2
 897 606 838 579 773 578 c 0
 725 578 655 606 630 620 c 1
 564 662 l 1
 503 696 l 1
 442 733 410 746 377 746 c 0
 314 746 259 691 192 603 c 1
 125 667 l 1
 211 786 294 848 380 848 c 0
 433 848 470 829 609 752 c 0
 697 703 741 683 777 683 c 0
 832 683 893 733 956 821 c 1
 1020 758 l 1
 1020 755 l 1
 980 703 l 1
 943 660 l 2
940 284 m 2
 894 230 833 203 771 202 c 0
 735 202 699 208 663 226 c 2
 621 247 l 2
 611 252 596 261 575 275 c 2
 537 300 l 1
 467 340 420 368 375 368 c 0
 308 368 248 302 189 225 c 1
 123 289 l 1
 205 408 295 467 377 467 c 0
 438 467 519 426 599 376 c 2
 656 340 l 2
 681 324 739 302 778 302 c 0
 832 302 893 355 956 441 c 1
 1020 380 l 1
 1017 379 l 1
 977 327 l 1
 940 284 l 2
EndSplineSet
EndChar

StartChar: asciicircum
Encoding: 70 94 70
Width: 943
VWidth: 0
Flags: W
PickledData: "(dp1
S'com.typemytype.robofont.layerData'
p2
(dp3
S'B'
(dp4
S'name'
p5
S'asciicircum'
p6
sS'lib'
p7
(dp8
sS'unicodes'
p9
(tsS'width'
p10
I943
sS'contours'
p11
(tsS'components'
p12
(tsS'anchors'
p13
(tsss."
HStem: 775 533
VStem: 128 640
LayerCount: 2
UndoRedoHistory
Layer: 1
Undoes
EndUndoes
Redoes
EndRedoes
EndUndoRedoHistory
Fore
SplineSet
448 1211 m 1
 247 775 l 1
 128 775 l 1
 380 1308 l 1
 517 1308 l 1
 768 776 l 1
 654 776 l 1
 448 1211 l 1
EndSplineSet
EndChar

StartChar: asciitilde
Encoding: 71 126 71
Width: 1038
VWidth: 0
Flags: W
HStem: 437 116<598.918 787.563> 599 118<251.139 444.507>
LayerCount: 2
UndoRedoHistory
Layer: 1
Undoes
EndUndoes
Redoes
EndRedoes
EndUndoRedoHistory
Fore
SplineSet
108 530 m 1
 177 637 245 717 334 717 c 0
 386 717 423 698 555 622 c 0
 636 575 678 553 707 553 c 0
 756 553 799 602 854 679 c 1
 930 620 l 1
 880 538 817 437 703 437 c 0
 646 437 605 457 483 531 c 1
 409 578 367 599 338 599 c 0
 286 599 244 558 183 469 c 1
 105 530 l 1
 108 530 l 1
EndSplineSet
EndChar

StartChar: asterisk
Encoding: 72 42 72
Width: 923
VWidth: 0
Flags: W
HStem: 753 672
VStem: 415 91<1130 1425>
LayerCount: 2
UndoRedoHistory
Layer: 1
Undoes
EndUndoes
Redoes
EndRedoes
EndUndoRedoHistory
Fore
SplineSet
786 1223 m 1
 812 1138 l 1
 534 1043 l 1
 708 807 l 1
 635 753 l 1
 460 989 l 1
 286 753 l 1
 213 807 l 1
 386 1043 l 1
 108 1137 l 1
 134 1223 l 1
 415 1130 l 1
 415 1425 l 1
 506 1425 l 1
 506 1130 l 1
 786 1223 l 1
EndSplineSet
EndChar

StartChar: at
Encoding: 73 64 73
Width: 1512
VWidth: 0
Flags: W
PickledData: "(dp1
S'com.typemytype.robofont.layerData'
p2
(dp3
S'B'
(dp4
S'name'
p5
S'at'
p6
sS'lib'
p7
(dp8
sS'unicodes'
p9
(tsS'width'
p10
I1434
sS'contours'
p11
(tsS'components'
p12
(tsS'anchors'
p13
(tsss."
HStem: -63 99<575.568 1014.82> 242 84<639.919 845.12> 256 106<1024.77 1181.89> 897 90<652.675 921.513> 1195 106<571.688 978.493>
VStem: 140 121<368.96 841.738> 454 108<411.049 793.111> 923 101<393.271 881.402> 1264 108<472.689 908.302>
LayerCount: 2
UndoRedoHistory
Layer: 1
Undoes
EndUndoes
Redoes
EndRedoes
EndUndoRedoHistory
Fore
SplineSet
736 326 m 0xdf80
 777 326 843 353 891 405 c 0
 918 434 923 522 923 648 c 0
 923 712 923 785 923 864 c 1
 879 886 825 897 761 897 c 0
 627 897 562 748 562 602 c 0
 562 463 621 326 736 326 c 0xdf80
1100 256 m 0xbf80
 1014 256 961 309 928 375 c 1
 889 307 819 242 713 242 c 0xdf80
 593 242 454 343 454 598 c 0
 454 815 561 987 753 987 c 0
 786 987 944 976 1024 903 c 1
 1024 406 l 2
 1024 393 1030 362 1102 362 c 0
 1204 362 1264 547 1264 687 c 0
 1264 921 1124 1195 763 1195 c 0
 496 1195 261 951 261 607 c 0
 261 274 483 36 779 36 c 0
 867 36 952 56 1058 95 c 1
 1084 4 l 1
 978 -39 878 -63 773 -63 c 0
 444 -63 140 198 140 600 c 0
 140 1025 415 1301 754 1301 c 0
 1197 1300 1372 979 1372 692 c 0
 1372 468 1273 256 1100 256 c 0xbf80
EndSplineSet
EndChar

StartChar: b
Encoding: 75 98 75
Width: 984
VWidth: 0
Flags: W
PickledData: "(dp1
S'com.typemytype.robofont.guides'
p2
(tsS'com.typemytype.robofont.layerData'
p3
(dp4
S'B'
(dp5
S'name'
p6
S'b'
sS'lib'
p7
(dp8
sS'unicodes'
p9
(tsS'width'
p10
I984
sS'contours'
p11
(tsS'components'
p12
(tsS'anchors'
p13
(tsss."
HStem: -10 106<286.789 640.878> 895 105<349.721 651.82> 1338 20G<140 268>
VStem: 140 128<119.105 833.252 923 1358> 140 104<0 50> 748 128<221.794 778.674>
LayerCount: 2
Fore
SplineSet
268 137 m 1xf4
 350 99 408 96 463 96 c 0
 473 96 482 96 492 96 c 0
 672 96 748 206 748 491 c 0
 748 767 681 895 524 895 c 0
 456 895 377 872 268 809 c 1
 268 137 l 1xf4
268 1358 m 1
 268 923 l 1xf4
 370 986 456 1000 540 1000 c 0
 740 1000 876 852 876 493 c 0
 876 126 747 -10 510 -10 c 0
 435 -10 336 6 254 50 c 1
 244 0 l 1
 140 0 l 1xec
 140 1358 l 1
 268 1358 l 1
EndSplineSet
EndChar

StartChar: backslash
Encoding: 76 92 76
Width: 884
VWidth: 0
Flags: W
LayerCount: 2
UndoRedoHistory
Layer: 1
Undoes
EndUndoes
Redoes
EndRedoes
EndUndoRedoHistory
Fore
SplineSet
159 1473 m 1
 784 -55 l 1
 709 -96 l 1
 83 1432 l 1
 159 1473 l 1
EndSplineSet
EndChar

StartChar: bar
Encoding: 77 124 77
Width: 423
VWidth: 0
Flags: W
VStem: 162 107<-65 1331>
LayerCount: 2
UndoRedoHistory
Layer: 1
Undoes
EndUndoes
Redoes
EndRedoes
EndUndoRedoHistory
Fore
SplineSet
162 -65 m 1
 162 1331 l 1
 269 1331 l 1
 269 -65 l 1
 162 -65 l 1
EndSplineSet
EndChar

StartChar: braceleft
Encoding: 78 123 78
Width: 620
VWidth: 0
Flags: W
HStem: -156 92<350.06 544> 1392 92<350.06 544>
VStem: 216 104<-31.9868 524.562 803.438 1359.99>
LayerCount: 2
UndoRedoHistory
Layer: 1
Undoes
EndUndoes
Redoes
EndRedoes
EndUndoRedoHistory
Fore
SplineSet
64 712 m 1
 210 801 l 1
 214 853 216 905 216 985 c 0
 216 995 216 1006 216 1017 c 2
 215 1146 l 1
 215 1452 262 1484 544 1484 c 1
 552 1392 l 1
 543 1392 535 1392 527 1392 c 0
 348 1392 320 1387 320 1135 c 2
 320 749 l 1
 175 664 l 1
 320 579 l 1
 320 193 l 2
 320 -59 348 -64 527 -64 c 0
 535 -64 543 -64 552 -64 c 1
 544 -156 l 1
 262 -156 215 -124 215 182 c 1
 216 311 l 2
 216 322 216 333 216 343 c 0
 216 423 214 475 210 527 c 1
 64 616 l 1
 64 712 l 1
EndSplineSet
EndChar

StartChar: braceright
Encoding: 79 125 79
Width: 620
VWidth: 0
Flags: W
HStem: -156 92<78 271.94> 1392 92<78 271.94>
VStem: 302 104<-31.9868 524.562 803.438 1359.99>
LayerCount: 2
UndoRedoHistory
Layer: 1
Undoes
EndUndoes
Redoes
EndRedoes
EndUndoRedoHistory
Fore
SplineSet
558 616 m 1
 412 527 l 1
 408 475 406 423 406 343 c 0
 406 333 406 322 406 311 c 2
 407 182 l 1
 407 -124 360 -156 78 -156 c 1
 70 -64 l 1
 79 -64 87 -64 95 -64 c 0
 274 -64 302 -59 302 193 c 2
 302 579 l 1
 447 664 l 1
 302 749 l 1
 302 1135 l 2
 302 1387 274 1392 95 1392 c 0
 87 1392 79 1392 70 1392 c 1
 78 1484 l 1
 360 1484 407 1452 407 1146 c 1
 406 1017 l 2
 406 1006 406 995 406 985 c 0
 406 905 408 853 412 801 c 1
 558 712 l 1
 558 616 l 1
EndSplineSet
EndChar

StartChar: bracketleft
Encoding: 80 91 80
Width: 604
VWidth: 0
Flags: W
PickledData: "(dp1
S'com.typemytype.robofont.layerData'
p2
(dp3
S'B'
(dp4
S'name'
p5
S'bracketleft'
p6
sS'lib'
p7
(dp8
sS'unicodes'
p9
(tsS'width'
p10
I604
sS'contours'
p11
(tsS'components'
p12
(tsS'anchors'
p13
(tsss."
HStem: -103 103<288 544> 1254 104<288 544>
VStem: 160 384<-103 0 1254 1358> 160 128<0 1254>
LayerCount: 2
UndoRedoHistory
Layer: 1
Undoes
EndUndoes
Redoes
EndRedoes
EndUndoRedoHistory
Fore
SplineSet
288 0 m 1xd0
 544 0 l 1
 544 -103 l 1
 160 -103 l 1
 160 1358 l 1
 544 1358 l 1
 544 1254 l 1xe0
 288 1254 l 1
 288 0 l 1xd0
EndSplineSet
EndChar

StartChar: bracketright
Encoding: 81 93 81
Width: 604
VWidth: 0
Flags: W
PickledData: "(dp1
S'com.typemytype.robofont.layerData'
p2
(dp3
S'B'
(dp4
S'name'
p5
S'bracketright'
p6
sS'lib'
p7
(dp8
sS'unicodes'
p9
(tsS'width'
p10
I604
sS'contours'
p11
(tsS'components'
p12
(tsS'anchors'
p13
(tsss."
HStem: -103 104<160 416> 1255 103<160 416>
VStem: 160 384<-103 1 1255 1358> 416 128<1 1255>
LayerCount: 2
UndoRedoHistory
Layer: 1
Undoes
EndUndoes
Redoes
EndRedoes
EndUndoRedoHistory
Fore
SplineSet
416 1255 m 1xd0
 160 1255 l 1
 160 1358 l 1
 544 1358 l 1
 544 -103 l 1
 160 -103 l 1
 160 1 l 1xe0
 416 1 l 1
 416 1255 l 1xd0
EndSplineSet
EndChar

StartChar: bullet
Encoding: 82 8226 82
Width: 707
VWidth: 0
Flags: W
HStem: 374 416<224.531 481.469>
VStem: 145 416<453.531 710.469>
LayerCount: 2
UndoRedoHistory
Layer: 1
Undoes
EndUndoes
Redoes
EndRedoes
EndUndoRedoHistory
Fore
SplineSet
145 582 m 0
 145 697 238 790 353 790 c 0
 468 790 561 697 561 582 c 0
 561 467 468 374 353 374 c 0
 238 374 145 467 145 582 c 0
EndSplineSet
EndChar

StartChar: c
Encoding: 83 99 83
Width: 864
VWidth: 0
Flags: W
PickledData: "(dp1
S'com.typemytype.robofont.layerData'
p2
(dp3
S'B'
(dp4
S'name'
p5
S'c'
sS'lib'
p6
(dp7
sS'unicodes'
p8
(tsS'width'
p9
I864
sS'contours'
p10
(tsS'components'
p11
(tsS'anchors'
p12
(tsss."
HStem: -10 104<375.968 696.571> 898 102<352.298 654.444>
VStem: 108 128<261.306 762.643> 657 102<682 885.731>
LayerCount: 2
Back
SplineSet
738 191 m 5
 702 160 599 97 491 96 c 4
 286 96 236 254 236 494 c 4
 236 733 290 895 492 895 c 4
 549 895 603 884 654 864 c 5
 654 672 l 5
 759 682 l 5
 759 940 l 5
 674 980 587 1000 496 1000 c 4
 237 1000 108 832 108 496 c 4
 108 151 232 -10 492 -10 c 4
 621 -10 747 42 792 102 c 5
 738 191 l 5
EndSplineSet
UndoRedoHistory
Layer: 1
Undoes
EndUndoes
Redoes
EndRedoes
EndUndoRedoHistory
Fore
SplineSet
750 170 m 1
 798 79 l 1
 705 11 610 -10 507 -10 c 0
 285 -10 108 158 108 495 c 0
 108 831 237 1000 496 1000 c 0
 587 1000 674 980 759 940 c 1
 759 682 l 1
 657 672 l 1
 657 872 l 1
 606 892 551 898 494 898 c 0
 292 898 236 732 236 493 c 0
 236 233 351 94 521 94 c 0
 594 94 666 113 750 170 c 1
EndSplineSet
EndChar

StartChar: caron
Encoding: 84 711 84
Width: 410
VWidth: 0
Flags: W
HStem: 993 370
VStem: -115 559
LayerCount: 2
UndoRedoHistory
Layer: 1
Undoes
EndUndoes
Redoes
EndRedoes
EndUndoRedoHistory
Fore
SplineSet
164 1106 m 1
 356 1363 l 1
 444 1303 l 1
 372 1205 295 1113 216 1022 c 0
 200 1003 182 993 164 993 c 0
 146 993 129 1003 113 1022 c 0
 34 1113 -43 1205 -115 1303 c 1
 -27 1363 l 1
 164 1106 l 1
EndSplineSet
EndChar

StartChar: cedilla
Encoding: 86 184 86
Width: 936
VWidth: 0
Flags: W
HStem: -461 86<361.338 543.056> -371 20G<362.25 382.5> -186 116<387 479.334>
VStem: 387 104<-137 -70> 555 112<-364.722 -209.783>
LayerCount: 2
UndoRedoHistory
Layer: 1
Undoes
EndUndoes
Redoes
EndRedoes
EndUndoRedoHistory
Fore
SplineSet
481 -137 m 1
 595 -138 667 -186 667 -279 c 0
 667 -404 584 -461 483 -461 c 0
 440 -461 395 -451 351 -431 c 1
 366 -351 l 1
 399 -366 433 -375 463 -375 c 0
 516 -375 555 -348 555 -284 c 0
 555 -194 469 -195 386 -186 c 1
 387 -70 l 1
 491 -70 l 1
 481 -137 l 1
EndSplineSet
EndChar

StartChar: cent
Encoding: 87 162 87
Width: 878
VWidth: 0
Flags: W
VStem: 124 105<236.029 734.692> 441 98<-147 -10.3398 979.246 1125>
LayerCount: 2
UndoRedoHistory
Layer: 1
Undoes
EndUndoes
Redoes
EndRedoes
EndUndoRedoHistory
Fore
SplineSet
445 -15 m 1
 226 11 124 198 124 486 c 0
 124 792 230 957 441 982 c 1
 441 1125 l 1
 539 1125 l 1
 539 984 l 1
 608 977 668 964 719 946 c 1
 696 844 l 1
 627 869 559 881 492 881 c 0
 295 881 229 705 229 487 c 0
 229 237 316 86 492 86 c 0
 550 86 627 105 723 143 c 1
 751 41 l 1
 680 11 611 -8 543 -16 c 1
 543 -147 l 1
 445 -147 l 1
 445 -103 445 -59 445 -15 c 1
EndSplineSet
EndChar

StartChar: circumflex
Encoding: 88 710 88
Width: 869
VWidth: 0
Flags: W
HStem: 1022 341
VStem: 136 597
LayerCount: 2
UndoRedoHistory
Layer: 1
Undoes
EndUndoes
Redoes
EndRedoes
EndUndoRedoHistory
Fore
SplineSet
435 1260 m 1
 222 1022 l 1
 136 1102 l 1
 219 1195 282 1267 382 1363 c 1
 487 1363 l 1
 587 1267 650 1195 733 1102 c 1
 647 1022 l 1
 435 1260 l 1
EndSplineSet
EndChar

StartChar: colon
Encoding: 89 58 89
Width: 481
VWidth: 0
Flags: W
HStem: 47 196<145 308> 639 202<145 308>
VStem: 145 163<47 243 639 841>
LayerCount: 2
UndoRedoHistory
Layer: 1
Undoes
EndUndoes
Redoes
EndRedoes
EndUndoRedoHistory
Fore
SplineSet
308 243 m 1
 308 47 l 1
 145 47 l 1
 145 243 l 1
 308 243 l 1
308 841 m 1
 308 639 l 1
 145 639 l 1
 145 841 l 1
 308 841 l 1
EndSplineSet
EndChar

StartChar: comma
Encoding: 90 44 90
Width: 491
VWidth: 0
Flags: W
PickledData: "(dp1
S'com.typemytype.robofont.layerData'
p2
(dp3
S'B'
(dp4
S'name'
p5
S'comma'
p6
sS'lib'
p7
(dp8
sS'unicodes'
p9
(tsS'width'
p10
I434
sS'contours'
p11
(tsS'components'
p12
(tsS'anchors'
p13
(tsss."
HStem: 0 210<149 244>
VStem: 149 192<3.99042 210> 244 97<-143.532 0>
LayerCount: 2
UndoRedoHistory
Layer: 1
Undoes
EndUndoes
Redoes
EndRedoes
EndUndoRedoHistory
Fore
SplineSet
341 39 m 2xc0
 341 -89 288 -178 205 -274 c 1
 158 -221 l 1
 212 -138 241 -61 244 0 c 1xa0
 149 0 l 1
 149 210 l 1
 341 210 l 1
 341 39 l 2xc0
EndSplineSet
EndChar

StartChar: copyright
Encoding: 91 169 91
Width: 1583
VWidth: 0
Flags: W
HStem: -5 89<578.01 1002.25> 211 81<651.888 992.803> 825 198<944.949 1032> 1004 81<656.228 941.166> 1208 89<578.01 1002.25>
VStem: 140 97<432.41 859.59> 399 105<441.55 842.885> 943 89<825 991.671> 1345 97<432.41 859.59>
LayerCount: 2
UndoRedoHistory
Layer: 1
Undoes
EndUndoes
Redoes
EndRedoes
EndUndoRedoHistory
Fore
SplineSet
814 292 m 0xdf80
 879 292 944 305 1021 346 c 1
 1054 273 l 1
 965 226 886 211 807 211 c 0
 544 211 399 400 399 640 c 0
 399 866 524 1085 798 1085 c 0xdf80
 873 1085 949 1067 1032 1023 c 1
 1032 825 l 1
 943 825 l 1xef80
 943 978 l 1
 902 994 850 1004 795 1004 c 0
 598 1004 504 823 504 638 c 0
 504 436 611 292 814 292 c 0xdf80
140 646 m 0
 140 1005 431 1297 790 1297 c 0
 1149 1297 1442 1005 1442 646 c 0
 1442 287 1149 -5 790 -5 c 0
 431 -5 140 287 140 646 c 0
237 646 m 0
 237 336 484 84 790 84 c 0
 1096 84 1345 336 1345 646 c 0
 1345 956 1096 1208 790 1208 c 0
 484 1208 237 956 237 646 c 0
EndSplineSet
EndChar

StartChar: d
Encoding: 92 100 92
Width: 1010
VWidth: 0
Flags: W
PickledData: "(dp1
S'com.typemytype.robofont.layerData'
p2
(dp3
S'B'
(dp4
S'name'
p5
S'd'
sS'lib'
p6
(dp7
sS'unicodes'
p8
(tsS'width'
p9
I1010
sS'contours'
p10
(tsS'components'
p11
(tsS'anchors'
p12
(tsss."
HStem: -10 106<371.175 723.386> 895 105<364.993 662.848> 1338 20G<742 870>
VStem: 108 128<248.092 737.857> 742 128<119.105 833.252 923 1358> 766 104<0 50>
LayerCount: 2
UndoRedoHistory
Layer: 1
Undoes
EndUndoes
Redoes
EndRedoes
EndUndoRedoHistory
Fore
SplineSet
742 137 m 1xf8
 742 809 l 1
 633 872 568 895 500 895 c 0
 343 895 236 767 236 491 c 0
 236 206 352 96 532 96 c 0
 542 96 551 96 560 96 c 0
 612 96 660 99 742 137 c 1xf8
742 1358 m 1
 870 1358 l 1xf8
 870 0 l 1
 766 0 l 1xf4
 756 50 l 1
 674 6 589 -10 514 -10 c 0
 277 -10 108 126 108 493 c 0
 108 852 284 1000 484 1000 c 0
 568 1000 640 986 742 923 c 1
 742 1358 l 1
EndSplineSet
EndChar

StartChar: dagger
Encoding: 93 8224 93
Width: 1013
VWidth: 0
Flags: W
HStem: 0 21G<450 560> 888 97<142 450 560 870> 1281 20G<450 560>
VStem: 450 110<0 888 985 1301>
LayerCount: 2
UndoRedoHistory
Layer: 1
Undoes
EndUndoes
Redoes
EndRedoes
EndUndoRedoHistory
Fore
SplineSet
560 0 m 1
 450 0 l 1
 450 888 l 1
 142 888 l 1
 142 985 l 1
 450 985 l 1
 450 1301 l 1
 560 1301 l 1
 560 985 l 1
 870 985 l 1
 870 888 l 1
 560 888 l 1
 560 0 l 1
EndSplineSet
EndChar

StartChar: daggerdbl
Encoding: 94 8225 94
Width: 1025
VWidth: 0
Flags: W
HStem: 0 21G<456 566> 226 96<148 456 566 876> 980 97<148 456 566 876> 1281 20G<456 566>
VStem: 456 110<0 226 322 980 1077 1301>
LayerCount: 2
UndoRedoHistory
Layer: 1
Undoes
EndUndoes
Redoes
EndRedoes
EndUndoRedoHistory
Fore
SplineSet
566 226 m 1
 566 0 l 1
 456 0 l 1
 456 226 l 1
 148 226 l 1
 148 322 l 1
 456 322 l 1
 456 980 l 1
 148 980 l 1
 148 1077 l 1
 456 1077 l 1
 456 1301 l 1
 566 1301 l 1
 566 1077 l 1
 876 1077 l 1
 876 980 l 1
 566 980 l 1
 566 322 l 1
 876 322 l 1
 876 226 l 1
 566 226 l 1
EndSplineSet
EndChar

StartChar: degree
Encoding: 95 176 95
Width: 699
VWidth: 0
Flags: W
HStem: 917 94<248.125 350 351 445.094> 1328 93<249.694 447.953>
VStem: 112 101<1044.21 1292.94> 486 100<1047.78 1290.19>
LayerCount: 2
UndoRedoHistory
Layer: 1
Undoes
EndUndoes
Redoes
EndRedoes
EndUndoRedoHistory
Fore
SplineSet
350 917 m 1
 208 917 112 1019 112 1169 c 0
 112 1325 214 1421 352 1421 c 0
 490 1421 586 1319 586 1169 c 0
 586 1016 487 918 351 918 c 1
 350 917 l 1
486 1168 m 0
 486 1265 434 1328 347 1328 c 0
 263 1328 213 1266 213 1170 c 0
 213 1073 262 1011 347 1011 c 0
 432 1011 486 1075 486 1168 c 0
EndSplineSet
EndChar

StartChar: dieresis
Encoding: 96 168 96
Width: 450
VWidth: 0
Flags: W
HStem: 1000 126<0 139 314 451>
VStem: 0 139<1000 1126> 314 137<1000 1126>
LayerCount: 2
UndoRedoHistory
Layer: 1
Undoes
EndUndoes
Redoes
EndRedoes
EndUndoRedoHistory
Fore
SplineSet
451 1126 m 1
 451 1000 l 1
 314 1000 l 1
 314 1126 l 1
 451 1126 l 1
139 1126 m 1
 139 1000 l 1
 0 1000 l 1
 0 1126 l 1
 139 1126 l 1
EndSplineSet
EndChar

StartChar: divide
Encoding: 97 247 97
Width: 978
VWidth: 0
Flags: W
HStem: 219 195<416.699 548.799> 548 98<110 866> 771 197<412.309 553.794>
VStem: 401 164<234.625 398.375 775.333 964.329>
LayerCount: 2
UndoRedoHistory
Layer: 1
Undoes
EndUndoes
Redoes
EndRedoes
EndUndoRedoHistory
Fore
SplineSet
401 282 m 2
 401 347 418 391 453 414 c 1
 506 414 544 393 565 352 c 1
 565 287 548 242 514 219 c 1
 459 219 421 240 401 281 c 1
 401 282 l 2
453 771 m 1
 418 788 401 824 401 881 c 0
 401 930 418 959 453 968 c 1
 514 968 l 1
 548 951 565 914 565 857 c 0
 565 808 548 779 514 771 c 1
 453 771 l 1
110 548 m 1
 110 646 l 1
 866 646 l 1
 866 548 l 1
 110 548 l 1
EndSplineSet
EndChar

StartChar: dollar
Encoding: 98 36 98
Width: 947
VWidth: 0
Flags: W
HStem: -7 108<201.845 459 538 650.523>
VStem: 105 128<840.573 1110.43> 459 79<-188 -10 101 590 746 1193 1300 1465> 745 128<193.437 496.835>
LayerCount: 2
UndoRedoHistory
Layer: 1
Undoes
EndUndoes
Redoes
EndRedoes
EndUndoRedoHistory
Fore
SplineSet
458 746 m 1
 458 1193 l 1
 330 1181 233 1122 233 972 c 0
 233 867 265 816 417 761 c 2
 458 746 l 1
538 590 m 1
 538 101 l 1
 664 121 745 201 745 355 c 0
 745 499 674 542 538 590 c 1
538 -188 m 1
 459 -188 l 1
 459 -10 l 1
 336 -8 205 14 105 68 c 1
 133 173 l 1
 207 141 305 98 459 96 c 1
 459 616 l 1
 376 644 l 2
 209 700 105 786 105 969 c 0
 105 1198 261 1290 458 1300 c 1
 458 1465 l 1
 538 1465 l 1
 538 1300 l 1
 642 1296 746 1279 842 1239 c 1
 819 1137 l 1
 739 1167 653 1192 538 1195 c 1
 538 717 l 1
 699 659 873 613 873 353 c 0
 873 137 742 12 538 -7 c 1
 538 -188 l 1
EndSplineSet
EndChar

StartChar: dotlessi
Encoding: 99 305 99
Width: 673
VWidth: 0
Flags: W
HStem: 0 90<111 303 431 623> 895 90<111 303>
VStem: 303 128<90 895>
LayerCount: 2
UndoRedoHistory
Layer: 1
Undoes
EndUndoes
Redoes
EndRedoes
EndUndoRedoHistory
Fore
SplineSet
111 895 m 1
 111 985 l 1
 431 985 l 1
 431 90 l 1
 623 90 l 1
 623 0 l 1
 111 0 l 1
 111 90 l 1
 303 90 l 1
 303 895 l 1
 111 895 l 1
EndSplineSet
EndChar

StartChar: e
Encoding: 100 101 100
Width: 964
VWidth: 0
Flags: W
PickledData: "(dp1
S'com.typemytype.robofont.guides'
p2
(tsS'com.typemytype.robofont.layerData'
p3
(dp4
S'B'
(dp5
S'name'
p6
S'e'
sS'lib'
p7
(dp8
sS'unicodes'
p9
(tsS'width'
p10
I964
sS'contours'
p11
(tsS'components'
p12
(tsS'anchors'
p13
(tsss."
HStem: -10 106<363.115 739.281> 469 90<236 743> 895 105<362.54 642.763>
VStem: 108 128<240.649 469 559 744.428> 743 119<559.717 783.657>
LayerCount: 2
Fore
SplineSet
525 96 m 0
 625 96 712 117 805 176 c 1
 844 75 l 1
 748 16 627 -10 532 -10 c 0
 275 -10 108 134 108 496 c 0
 108 843 274 1000 507 1000 c 0
 729 1000 862 841 862 604 c 0
 862 574 859 528 854 469 c 1
 236 469 l 1
 240 162 379 96 525 96 c 0
508 895 m 0
 335 895 251 766 236 559 c 1
 743 559 l 1
 743 609 l 2
 743 783 653 895 508 895 c 0
EndSplineSet
EndChar

StartChar: eight
Encoding: 105 56 105
Width: 1034
VWidth: 0
Flags: W
HStem: -10 106<338.884 680.247> 1195 106<363.143 691.73>
VStem: 128 128<178.872 465.353> 160 128<857.473 1125.31> 768 128<180.134 462.167 851.964 1121.79>
LayerCount: 2
UndoRedoHistory
Layer: 1
Undoes
EndUndoes
Redoes
EndRedoes
EndUndoRedoHistory
Fore
SplineSet
160 994 m 0xd8
 160 1211 334 1301 528 1301 c 0
 723 1301 896 1197 896 998 c 0
 896 863 800 727 654 665 c 1
 783 597 896 496 896 306 c 0
 896 89 707 -10 512 -10 c 0
 303 -10 128 93 128 304 c 0xe8
 128 445 213 597 383 675 c 1
 266 736 160 825 160 994 c 0xd8
545 716 m 1
 676 761 768 875 768 987 c 0
 768 1107 696 1195 530 1195 c 0
 404 1195 288 1149 288 989 c 0xd8
 288 840 408 776 545 716 c 1
512 96 m 0
 646 96 768 152 768 321 c 0
 768 487 625 568 492 626 c 1
 333 546 256 440 256 317 c 0xe8
 256 157 369 96 512 96 c 0
EndSplineSet
EndChar

StartChar: emdash
Encoding: 107 8212 107
Width: 1124
VWidth: 0
Flags: W
HStem: 547 96<116 1006>
LayerCount: 2
UndoRedoHistory
Layer: 1
Undoes
EndUndoes
Redoes
EndRedoes
EndUndoRedoHistory
Fore
SplineSet
116 547 m 1
 116 643 l 1
 1006 643 l 1
 1006 547 l 1
 116 547 l 1
EndSplineSet
EndChar

StartChar: endash
Encoding: 108 8211 108
Width: 894
VWidth: 0
Flags: W
HStem: 547 96<116 776>
VStem: 116 660<547 643>
LayerCount: 2
UndoRedoHistory
Layer: 1
Undoes
EndUndoes
Redoes
EndRedoes
EndUndoRedoHistory
Fore
SplineSet
116 547 m 1
 116 643 l 1
 776 643 l 1
 776 547 l 1
 116 547 l 1
EndSplineSet
EndChar

StartChar: equal
Encoding: 109 61 109
Width: 1025
VWidth: 0
Flags: W
HStem: 371 96<123 897> 684 96<123 897>
LayerCount: 2
UndoRedoHistory
Layer: 1
Undoes
EndUndoes
Redoes
EndRedoes
EndUndoRedoHistory
Fore
SplineSet
123 780 m 1
 897 780 l 1
 897 684 l 1
 123 684 l 1
 123 780 l 1
123 467 m 1
 897 467 l 1
 897 371 l 1
 123 371 l 1
 123 467 l 1
EndSplineSet
EndChar

StartChar: exclam
Encoding: 110 33 110
Width: 446
VWidth: 0
Flags: W
HStem: 0 154<157 295> 1264 20G<151 288>
VStem: 157 138<0 154 1052.8 1284> 191 59<341 678.971>
LayerCount: 2
UndoRedoHistory
Layer: 1
Undoes
EndUndoes
Redoes
EndRedoes
EndUndoRedoHistory
Fore
SplineSet
151 1284 m 1xd0
 288 1284 l 1
 250 341 l 1
 191 341 l 1
 151 1284 l 1xd0
157 154 m 1xe0
 295 154 l 1
 295 0 l 1
 157 0 l 1
 157 154 l 1xe0
EndSplineSet
EndChar

StartChar: f
Encoding: 112 102 112
Width: 686
VWidth: 0
Flags: W
PickledData: "(dp1
S'com.typemytype.robofont.layerData'
p2
(dp3
S'B'
(dp4
S'name'
p5
S'f'
sS'lib'
p6
(dp7
sS'unicodes'
p8
(tsS'width'
p9
I686
sS'contours'
p10
(tsS'components'
p11
(tsS'anchors'
p12
(tsss."
HStem: 0 21G<254 382> 893 92<62 254 382 606> 1289 105<423.916 686.33>
VStem: 254 128<0 893 985 1245.97>
LayerCount: 2
UndoRedoHistory
Layer: 1
Undoes
EndUndoes
Redoes
EndRedoes
EndUndoRedoHistory
Fore
SplineSet
254 0 m 1
 254 893 l 1
 62 893 l 1
 62 985 l 1
 254 985 l 1
 254 1271 300 1387 513 1394 c 1
 569 1394 631 1391 698 1368 c 1
 682 1268 l 1
 660 1274 579 1289 541 1289 c 0
 425 1289 382 1250 382 985 c 1
 606 985 l 1
 606 893 l 1
 382 893 l 1
 382 0 l 1
 254 0 l 1
EndSplineSet
EndChar

StartChar: uniFB01
Encoding: 113 64257 113
Width: 1317
VWidth: 0
Flags: W
PickledData: "(dp1
S'com.typemytype.robofont.layerData'
p2
(dp3
S'B'
(dp4
S'name'
p5
S'fi'
p6
sS'lib'
p7
(dp8
sS'unicodes'
p9
(tsS'width'
p10
I1551
sS'contours'
p11
(tsS'components'
p12
(tsS'anchors'
p13
(tsss."
HStem: 0 90<755 947 1075 1267> 895 90<62 254 382 947> 1176 180<931.895 1091.77> 1289 105<423.916 686.33>
VStem: 254 128<0 895 985 1245.97> 920 181<1187.02 1344.12> 947 128<90 895>
LayerCount: 2
UndoRedoHistory
Layer: 1
Undoes
EndUndoes
Redoes
EndRedoes
EndUndoRedoHistory
Fore
SplineSet
254 0 m 1xda
 254 895 l 1
 62 895 l 1
 62 985 l 1
 254 985 l 1
 254 1271 300 1387 513 1394 c 1
 569 1394 631 1391 698 1368 c 1
 682 1268 l 1
 660 1274 579 1289 541 1289 c 0
 425 1289 382 1250 382 985 c 1
 1075 985 l 1
 1075 90 l 1
 1267 90 l 1
 1267 0 l 1
 755 0 l 1
 755 90 l 1
 947 90 l 1
 947 895 l 1
 382 895 l 1
 382 0 l 1
 254 0 l 1xda
920 1264 m 0xec
 920 1321 960 1356 1011 1356 c 0
 1064 1356 1101 1326 1101 1266 c 0
 1101 1206 1064 1176 1011 1176 c 0
 960 1176 920 1208 920 1264 c 0xec
EndSplineSet
Ligature2: "'liga' Standard Ligatures lookup 0-1" f i
EndChar

StartChar: five
Encoding: 114 53 114
Width: 999
VWidth: 0
Flags: W
PickledData: "(dp1
S'com.typemytype.robofont.layerData'
p2
(dp3
S'B'
(dp4
S'name'
p5
S'five'
p6
sS'lib'
p7
(dp8
sS'unicodes'
p9
(tsS'width'
p10
I999
sS'contours'
p11
(tsS'components'
p12
(tsS'anchors'
p13
(tsss."
HStem: -10 106<203.154 625.12> 683 104<305.799 633.231> 1184 100<292 796>
VStem: 179 113<746.274 1184> 179 98<726 1163.73> 736 128<205.698 572.122>
LayerCount: 2
UndoRedoHistory
Layer: 1
Undoes
EndUndoes
Redoes
EndRedoes
EndUndoRedoHistory
Fore
SplineSet
736 371 m 0xec
 736 580 640 683 497 683 c 0
 412 683 329 667 250 608 c 1
 179 637 l 1
 179 1284 l 1xec
 796 1284 l 1
 796 1184 l 1
 292 1184 l 1xf4
 277 726 l 1
 343 771 419 787 498 787 c 0
 718 787 864 626 864 369 c 0
 864 119 692 -10 443 -10 c 0
 347 -10 198 17 131 50 c 1
 157 159 l 1
 227 126 360 96 450 96 c 0
 634 96 736 196 736 371 c 0xec
EndSplineSet
EndChar

StartChar: uniFB02
Encoding: 115 64258 115
Width: 1368
VWidth: 0
Flags: W
PickledData: "(dp1
S'com.typemytype.robofont.layerData'
p2
(dp3
S'B'
(dp4
S'name'
p5
S'fl'
p6
sS'lib'
p7
(dp8
sS'unicodes'
p9
(tsS'width'
p10
I1548
sS'contours'
p11
(tsS'components'
p12
(tsS'anchors'
p13
(tsss."
HStem: 0 90<756 979 1107 1318> 893 92<62 254 382 606> 1267 91<445.924 979>
VStem: 254 128<0 893 985 1201.86> 979 128<90 1267>
LayerCount: 2
UndoRedoHistory
Layer: 1
Undoes
EndUndoes
Redoes
EndRedoes
EndUndoRedoHistory
Fore
SplineSet
254 0 m 1
 254 893 l 1
 62 893 l 1
 62 985 l 1
 254 985 l 1
 254 1246 316 1358 603 1358 c 2
 1107 1358 l 1
 1107 90 l 1
 1318 90 l 1
 1318 0 l 1
 756 0 l 1
 756 90 l 1
 979 90 l 1
 979 1267 l 1
 631 1267 l 2
 449 1267 382 1231 382 985 c 1
 606 985 l 1
 606 893 l 1
 382 893 l 1
 382 0 l 1
 254 0 l 1
EndSplineSet
Ligature2: "'liga' Standard Ligatures lookup 0-1" f l
EndChar

StartChar: florin
Encoding: 116 402 116
Width: 997
VWidth: 0
Flags: W
HStem: -418 112<57 190.125> 840 112<240 397 525 801> 1290 113<622.591 864.474>
LayerCount: 2
UndoRedoHistory
Layer: 1
Undoes
EndUndoes
Redoes
EndRedoes
EndUndoRedoHistory
Fore
SplineSet
393 -31 m 1
 365 -239 315 -416 88 -418 c 0
 79 -418 65 -417 48 -416 c 1
 57 -305 l 1
 62 -305 67 -306 72 -306 c 0
 108 -306 139 -296 165 -276 c 1
 238 -244 261 -170 282 -37 c 0
 300 81 339 373 397 840 c 1
 224 840 l 1
 240 952 l 1
 412 952 l 1
 441 1186 489 1389 703 1403 c 1
 776 1403 l 1
 811 1399 851 1391 895 1380 c 1
 867 1266 l 1
 813 1282 766 1290 727 1290 c 0
 652 1290 623 1261 594 1194 c 1
 560 1137 537 1057 525 952 c 1
 819 952 l 1
 801 840 l 1
 511 840 l 1
 395 -31 l 1
 393 -31 l 1
EndSplineSet
EndChar

StartChar: four
Encoding: 117 52 117
Width: 1002
VWidth: 0
Flags: W
PickledData: "(dp1
S'com.typemytype.robofont.layerData'
p2
(dp3
S'B'
(dp4
S'name'
p5
S'four'
p6
sS'lib'
p7
(dp8
sS'unicodes'
p9
(tsS'width'
p10
I1002
sS'contours'
p11
(tsS'components'
p12
(tsS'anchors'
p13
(tsss."
HStem: 0 21G<608 736> 260 100<201 608 736 896> 1264 20G<403.522 536>
VStem: 608 128<0 260 360 797>
LayerCount: 2
UndoRedoHistory
Layer: 1
Undoes
EndUndoes
Redoes
EndRedoes
EndUndoRedoHistory
Fore
SplineSet
608 0 m 1
 608 260 l 1
 64 260 l 1
 64 356 l 1
 411 1284 l 1
 536 1284 l 1
 201 360 l 1
 608 360 l 1
 608 797 l 1
 736 797 l 1
 736 360 l 1
 896 360 l 1
 896 260 l 1
 736 260 l 1
 736 0 l 1
 608 0 l 1
EndSplineSet
EndChar

StartChar: fraction
Encoding: 118 8260 118
Width: 814
VWidth: 0
Flags: W
HStem: -6 21G<109 215.245>
VStem: 109 625
LayerCount: 2
UndoRedoHistory
Layer: 1
Undoes
EndUndoes
Redoes
EndRedoes
EndUndoRedoHistory
Fore
SplineSet
734 1446 m 1
 208 -6 l 1
 109 0 l 1
 632 1446 l 1
 734 1446 l 1
EndSplineSet
EndChar

StartChar: g
Encoding: 119 103 119
Width: 1092
VWidth: 0
Flags: W
PickledData: "(dp1
S'com.typemytype.robofont.layerData'
p2
(dp3
S'B'
(dp4
S'name'
p5
S'g'
sS'lib'
p6
(dp7
sS'unicodes'
p8
(tsS'width'
p9
I1092
sS'contours'
p10
(tsS'components'
p11
(tsS'anchors'
p12
(tsss."
HStem: -340 105<299.297 744.499> 65 100<280.236 824.983> 377 98<360.603 719.852> 883 94<806 1029> 905 95<363.765 707.081>
VStem: 118 128<-185.029 29.8978> 158 114<165.594 376.997 562.775 814.997> 797 117<548.335 813.886> 845 120<-149.399 45.5585>
LayerCount: 2
UndoRedoHistory
Layer: 1
Undoes
EndUndoes
Redoes
EndRedoes
EndUndoRedoHistory
Fore
SplineSet
545 905 m 0xe9
 351 905 278 811 278 689 c 0
 278 548 376 475 535 475 c 0
 704 475 797 542 797 678 c 0
 797 800 720 905 545 905 c 0xe9
742 977 m 2xf2
 1029 977 l 1
 1029 883 l 1
 806 883 l 1
 877 829 914 746 914 674 c 0
 914 491 763 377 544 377 c 0
 477 377 398 390 338 414 c 1
 306 362 272 301 272 254 c 0xf3
 272 200 303 165 303 165 c 1
 682 165 l 2
 900 165 965 97 965 -41 c 0
 965 -168 869 -340 515 -340 c 0
 182 -340 118 -184 118 -93 c 0xf480
 118 -10 189 73 229 96 c 1
 184 126 158 187 158 237 c 0
 158 313 193 369 261 465 c 1
 200 516 150 589 150 688 c 0
 150 909 325 1000 539 1000 c 0xea
 626 1000 663 977 742 977 c 2xf2
521 -235 m 0
 753 -235 845 -139 845 -49 c 0
 845 18 825 65 698 65 c 2
 319 65 l 1
 280 28 246 -18 246 -79 c 0xe480
 246 -145 258 -235 521 -235 c 0
EndSplineSet
EndChar

StartChar: germandbls
Encoding: 120 223 120
Width: 997
VWidth: 0
Flags: W
HStem: -10.4551 105.825<446.607 746.503> 1195 106<335.855 629.844>
VStem: 133 128<0 1108.98> 411.312 125.561<613.877 740.734> 693 137<901.819 1133.37> 802 131<151.057 388.45>
LayerCount: 2
UndoRedoHistory
Layer: 1
Undoes
EndUndoes
Redoes
EndRedoes
EndUndoRedoHistory
Fore
SplineSet
802 279 m 0xf4
 802 514.077 411.312 464.266 411.312 664.084 c 0
 411.312 784.071 544.097 849.82 693 922 c 1
 693 1121.66 648.668 1195 477 1195 c 0
 321.632 1195 261 1100.39 261 901 c 2
 261 0 l 1
 133 0 l 1
 133 912 l 2
 133 1172 245.258 1301 481 1301 c 0
 762.24 1301 830 1150.73 830 855 c 1xf8
 643.727 795.306 536.873 732.555 536.873 673.646 c 0
 536.873 556.983 933 558.152 933 270 c 0
 933 77.0303 787.629 -10.4551 621.639 -10.4551 c 0
 540.995 -10.4551 455.291 15.9453 380 66 c 1
 418 156 l 1
 480.199 117.13 548.595 95.3701 610.506 95.3701 c 0
 715.954 95.3701 802 149.772 802 279 c 0xf4
EndSplineSet
EndChar

StartChar: grave
Encoding: 121 96 121
Width: 486
VWidth: 0
Flags: W
HStem: 973 390
VStem: 68 351
LayerCount: 2
UndoRedoHistory
Layer: 1
Undoes
EndUndoes
Redoes
EndRedoes
EndUndoRedoHistory
Fore
SplineSet
419 1022 m 1
 366 973 l 1
 366 973 214 1106 167 1164 c 2
 68 1283 l 1
 174 1363 l 1
 419 1022 l 1
EndSplineSet
EndChar

StartChar: greater
Encoding: 122 62 122
Width: 1009
VWidth: 0
Flags: W
LayerCount: 2
UndoRedoHistory
Layer: 1
Undoes
EndUndoes
Redoes
EndRedoes
EndUndoRedoHistory
Fore
SplineSet
774 596 m 1
 130 1030 l 1
 186 1116 l 1
 899 629 l 1
 899 563 l 1
 186 61 l 1
 130 150 l 1
 774 596 l 1
EndSplineSet
EndChar

StartChar: greaterequal
Encoding: 123 8805 123
Width: 1129
VWidth: 0
Flags: W
HStem: 49 74<183 946>
LayerCount: 2
UndoRedoHistory
Layer: 1
Undoes
EndUndoes
Redoes
EndRedoes
EndUndoRedoHistory
Fore
SplineSet
883 723 m 1
 883 725 l 1
 136 1065 l 1
 158 1161 l 1
 999 768 l 1
 999 678 l 1
 158 274 l 1
 136 369 l 1
 883 723 l 1
956 123 m 1
 946 43 l 1
 306 49 l 1
 174 49 l 1
 183 123 l 1
 441 123 698 123 956 123 c 1
EndSplineSet
EndChar

StartChar: guillemotleft
Encoding: 124 171 124
Width: 967
VWidth: 0
Flags: W
LayerCount: 2
UndoRedoHistory
Layer: 1
Undoes
EndUndoes
Redoes
EndRedoes
EndUndoRedoHistory
Fore
SplineSet
493 817 m 1
 219 545 l 1
 493 279 l 1
 463 160 l 1
 106 520 l 1
 128 600 l 1
 463 936 l 1
 493 817 l 1
834 817 m 1
 561 545 l 1
 834 279 l 1
 806 160 l 1
 447 520 l 1
 469 600 l 1
 806 936 l 1
 834 817 l 1
EndSplineSet
EndChar

StartChar: guillemotright
Encoding: 125 187 125
Width: 968
VWidth: 0
Flags: W
LayerCount: 2
UndoRedoHistory
Layer: 1
Undoes
EndUndoes
Redoes
EndRedoes
EndUndoRedoHistory
Fore
SplineSet
831 608 m 1
 859 520 l 1
 502 160 l 1
 472 279 l 1
 747 545 l 1
 472 817 l 1
 502 936 l 1
 831 608 l 1
497 600 m 1
 518 520 l 1
 159 160 l 1
 131 279 l 1
 404 545 l 1
 131 817 l 1
 159 936 l 1
 497 600 l 1
EndSplineSet
EndChar

StartChar: guilsinglleft
Encoding: 126 8249 126
Width: 621
VWidth: 0
Flags: W
VStem: 109 380
LayerCount: 2
UndoRedoHistory
Layer: 1
Undoes
EndUndoes
Redoes
EndRedoes
EndUndoRedoHistory
Fore
SplineSet
449 123 m 1
 109 483 l 1
 109 573 l 1
 449 934 l 1
 489 823 l 1
 222 526 l 1
 489 236 l 1
 449 123 l 1
EndSplineSet
EndChar

StartChar: guilsinglright
Encoding: 127 8250 127
Width: 620
VWidth: 0
Flags: W
VStem: 130 378
LayerCount: 2
UndoRedoHistory
Layer: 1
Undoes
EndUndoes
Redoes
EndRedoes
EndUndoRedoHistory
Fore
SplineSet
397 526 m 1
 130 823 l 1
 170 934 l 1
 508 573 l 1
 508 483 l 1
 170 123 l 1
 130 236 l 1
 397 526 l 1
EndSplineSet
EndChar

StartChar: h
Encoding: 128 104 128
Width: 972
VWidth: 0
Flags: W
PickledData: "(dp1
S'com.typemytype.robofont.layerData'
p2
(dp3
S'B'
(dp4
S'name'
p5
S'h'
sS'lib'
p6
(dp7
sS'unicodes'
p8
(tsS'width'
p9
I972
sS'contours'
p10
(tsS'components'
p11
(tsS'anchors'
p12
(tsss."
HStem: 0 21G<140 268 716 844> 895 105<374.439 675.17> 1338 20G<140 268>
VStem: 140 128<0 821.38 911 1358> 716 128<0 853.353>
LayerCount: 2
UndoRedoHistory
Layer: 1
Undoes
EndUndoes
Redoes
EndRedoes
EndUndoRedoHistory
Fore
SplineSet
268 800 m 1
 268 0 l 1
 140 0 l 1
 140 1358 l 1
 268 1358 l 1
 268 911 l 1
 375 970 472 1000 567 1000 c 0
 753 1000 844 900 844 663 c 2
 844 0 l 1
 716 0 l 1
 716 669 l 2
 716 826 678 895 559 895 c 0
 488 895 398 870 268 800 c 1
EndSplineSet
EndChar

StartChar: hyphen
Encoding: 129 45 129
Width: 750
VWidth: 0
Flags: W
HStem: 449 116<114 633>
VStem: 114 519<449 565>
LayerCount: 2
UndoRedoHistory
Layer: 1
Undoes
EndUndoes
Redoes
EndRedoes
EndUndoRedoHistory
Fore
SplineSet
114 449 m 1
 114 565 l 1
 633 565 l 1
 633 449 l 1
 114 449 l 1
EndSplineSet
EndChar

StartChar: i
Encoding: 130 105 130
Width: 679
VWidth: 0
Flags: W
PickledData: "(dp1
."
HStem: 0 90<118 310 438 630> 895 90<118 310> 1176 180<294.895 454.767>
VStem: 283 181<1187.02 1344.12> 310 128<90 895>
LayerCount: 2
UndoRedoHistory
Layer: 1
Undoes
EndUndoes
Redoes
EndRedoes
EndUndoRedoHistory
Fore
SplineSet
118 895 m 1xe8
 118 985 l 1
 438 985 l 1
 438 90 l 1
 630 90 l 1
 630 0 l 1
 118 0 l 1
 118 90 l 1
 310 90 l 1
 310 895 l 1
 118 895 l 1xe8
283 1264 m 0xf0
 283 1321 323 1356 374 1356 c 0
 427 1356 464 1326 464 1266 c 0
 464 1206 427 1176 374 1176 c 0
 323 1176 283 1208 283 1264 c 0xf0
EndSplineSet
EndChar

StartChar: infinity
Encoding: 135 8734 135
Width: 1319
VWidth: 0
Flags: W
HStem: 250 99<275.013 491.551 839.598 1045.6> 857 99<274.27 486.062 834.213 963 964 1043.38>
VStem: 119 97<412.897 792.886> 1100 96<410.984 597 598 798.02>
LayerCount: 2
UndoRedoHistory
Layer: 1
Undoes
EndUndoes
Redoes
EndRedoes
EndUndoRedoHistory
Fore
SplineSet
964 953 m 1
 1137 953 1196 797 1196 599 c 0
 1196 391 1111 249 952 249 c 0
 805 249 735 346 659 498 c 1
 609 398 541 250 363 250 c 0
 188 250 119 409 119 602 c 0
 119 814 202 956 373 956 c 0
 551 956 610 838 670 707 c 1
 721 827 789 954 963 954 c 1
 964 953 l 1
217 599 m 1
 217 448 266 349 377 349 c 0
 497 349 545 445 616 598 c 1
 580 677 l 2
 526 794 469 857 374 857 c 0
 373 857 373 857 372 857 c 0
 255 857 216 732 216 599 c 1
 217 599 l 1
1099 598 m 1
 1099 771 1049 858 948 858 c 0
 829 858 788 767 715 612 c 1
 718 607 719 602 722 597 c 0
 809 397 857 349 948 349 c 0
 1054 349 1100 456 1100 597 c 1
 1099 598 l 1
EndSplineSet
EndChar

StartChar: integral
Encoding: 136 8747 136
Width: 777
VWidth: 0
Flags: W
HStem: -387 108<55.811 269.982> 1565 106<506.726 715.937>
VStem: 339 107<-193.537 1503.4>
LayerCount: 2
UndoRedoHistory
Layer: 1
Undoes
EndUndoes
Redoes
EndRedoes
EndUndoRedoHistory
Fore
SplineSet
330 1153 m 1
 330 1421 360 1671 613 1671 c 0
 656 1671 697 1664 735 1651 c 1
 709 1548 l 1
 680 1559 650 1565 618 1565 c 0
 463 1565 437 1435 437 1147 c 0
 437 969 446 310 446 133 c 0
 446 -144 413 -387 168 -387 c 0
 119 -387 76 -380 37 -367 c 1
 62 -260 l 1
 95 -273 127 -279 159 -279 c 0
 311 -279 339 -142 339 135 c 0
 339 313 329 975 329 1153 c 1
 330 1153 l 1
EndSplineSet
EndChar

StartChar: j
Encoding: 137 106 137
Width: 626
VWidth: 0
Flags: W
PickledData: "(dp1
S'com.typemytype.robofont.layerData'
p2
(dp3
S'B'
(dp4
S'name'
p5
S'j'
sS'lib'
p6
(dp7
sS'unicodes'
p8
(tsS'width'
p9
I620
sS'contours'
p10
(tsS'components'
p11
(tsS'anchors'
p12
(tsss."
HStem: -295 113<50.9234 307.916> 895 90<115 339> 1176 180<321.895 481.767>
VStem: 310 181<1187.02 1344.12> 339 128<-152.524 895>
LayerCount: 2
UndoRedoHistory
Layer: 1
Undoes
EndUndoes
Redoes
EndRedoes
EndUndoRedoHistory
Fore
SplineSet
310 1264 m 0xf0
 310 1321 350 1356 401 1356 c 0
 454 1356 491 1326 491 1266 c 0
 491 1206 454 1176 401 1176 c 0
 350 1176 310 1208 310 1264 c 0xf0
202 -182 m 0
 315 -182 339 -123 339 28 c 2
 339 895 l 1
 115 895 l 1
 115 985 l 1
 467 985 l 1
 467 18 l 2xe8
 467 -203 378 -295 206 -295 c 0
 149 -295 93 -291 38 -275 c 1
 54 -166 l 1
 99 -177 139 -182 202 -182 c 0
EndSplineSet
EndChar

StartChar: k
Encoding: 138 107 138
Width: 937
VWidth: 0
Flags: W
PickledData: "(dp1
S'com.typemytype.robofont.layerData'
p2
(dp3
S'B'
(dp4
S'name'
p5
S'k'
sS'lib'
p6
(dp7
sS'unicodes'
p8
(tsS'width'
p9
I937
sS'contours'
p10
(tsS'components'
p11
(tsS'anchors'
p12
(tsss."
HStem: 0 21G<140 268 663.5 908> 965 20G<619.5 872> 1338 20G<140 268>
VStem: 140 128<0 377 494 1358>
LayerCount: 2
Fore
SplineSet
140 0 m 1
 140 1358 l 1
 268 1358 l 1
 268 494 l 1
 370 603 520 760 719 985 c 1
 872 985 l 1
 456 522 l 1
 908 0 l 1
 760 0 l 1
 567 216 385 429 385 429 c 1
 359 458 l 1
 268 377 l 1
 268 0 l 1
 140 0 l 1
EndSplineSet
EndChar

StartChar: l
Encoding: 139 108 139
Width: 682
VWidth: 0
Flags: W
PickledData: "(dp1
S'com.typemytype.robofont.layerData'
p2
(dp3
S'B'
(dp4
S'name'
p5
S'l'
sS'lib'
p6
(dp7
sS'unicodes'
p8
(tsS'width'
p9
I682
sS'contours'
p10
(tsS'components'
p11
(tsS'anchors'
p12
(tsss."
HStem: 0 90<70 293 421 632> 1267 91<72 293>
VStem: 293 128<90 1267>
LayerCount: 2
UndoRedoHistory
Layer: 1
Undoes
EndUndoes
Redoes
EndRedoes
EndUndoRedoHistory
Fore
SplineSet
72 1358 m 1
 421 1358 l 1
 421 90 l 1
 632 90 l 1
 632 0 l 1
 70 0 l 1
 70 90 l 1
 293 90 l 1
 293 1267 l 1
 72 1267 l 1
 72 1358 l 1
EndSplineSet
EndChar

StartChar: less
Encoding: 140 60 140
Width: 1005
VWidth: 0
Flags: W
LayerCount: 2
UndoRedoHistory
Layer: 1
Undoes
EndUndoes
Redoes
EndRedoes
EndUndoRedoHistory
Fore
SplineSet
233 596 m 1
 874 150 l 1
 819 61 l 1
 108 563 l 1
 108 629 l 1
 819 1116 l 1
 876 1030 l 1
 233 596 l 1
EndSplineSet
EndChar

StartChar: lessequal
Encoding: 141 8804 141
Width: 1127
VWidth: 0
Flags: W
HStem: 43 86<177 940>
LayerCount: 2
UndoRedoHistory
Layer: 1
Undoes
EndUndoes
Redoes
EndRedoes
EndUndoRedoHistory
Fore
SplineSet
243 725 m 1
 989 369 l 1
 968 274 l 1
 129 680 l 1
 129 768 l 1
 968 1161 l 1
 989 1065 l 1
 243 725 l 1
940 129 m 1
 949 43 l 1
 692 43 434 43 177 43 c 1
 168 129 l 1
 425 129 683 129 940 129 c 1
EndSplineSet
EndChar

StartChar: logicalnot
Encoding: 142 172 142
Width: 1151
VWidth: 0
Flags: W
HStem: 725 106<148 881>
VStem: 881 118<322 725>
LayerCount: 2
UndoRedoHistory
Layer: 1
Undoes
EndUndoes
Redoes
EndRedoes
EndUndoRedoHistory
Fore
SplineSet
148 725 m 1
 148 831 l 1
 999 831 l 1
 999 322 l 1
 881 322 l 1
 881 725 l 1
 148 725 l 1
EndSplineSet
EndChar

StartChar: lozenge
Encoding: 143 9674 143
Width: 1098
VWidth: 0
Flags: W
LayerCount: 2
UndoRedoHistory
Layer: 1
Undoes
EndUndoes
Redoes
EndRedoes
EndUndoRedoHistory
Fore
SplineSet
528 -33 m 1
 388 218 249 469 110 721 c 1
 528 1477 l 1
 610 1399 l 1
 983 721 l 1
 610 47 l 1
 528 -33 l 1
547 1305 m 1
 507 1229 449 1123 374 986 c 2
 230 723 l 1
 377 452 l 2
 450 317 509 214 547 139 c 1
 585 214 643 319 717 454 c 2
 863 723 l 1
 726 973 l 2
 647 1117 588 1228 547 1305 c 1
EndSplineSet
EndChar

StartChar: m
Encoding: 144 109 144
Width: 1501
VWidth: 0
Flags: W
PickledData: "(dp1
S'com.typemytype.robofont.layerData'
p2
(dp3
S'B'
(dp4
S'name'
p5
S'm'
sS'lib'
p6
(dp7
sS'unicodes'
p8
(tsS'width'
p9
I1484
sS'contours'
p10
(tsS'components'
p11
(tsS'anchors'
p12
(tsss."
HStem: 0 21G<140 268 701 829 1245 1373> 895 105<335.714 657.797 855.781 1192.56> 965 20G<140 259.587>
VStem: 140 128<0 844.372 922 985> 701 128<0 829.472> 1245 128<0 838.962>
LayerCount: 2
UndoRedoHistory
Layer: 1
Undoes
EndUndoes
Redoes
EndRedoes
EndUndoRedoHistory
Fore
SplineSet
1080 1000 m 0xdc
 1265 1000 1373 894 1373 671 c 2
 1373 0 l 1
 1245 0 l 1
 1245 672 l 2
 1245 827 1187 895 1084 895 c 0xdc
 1035 895 914 891 817 830 c 1
 819 820 829 728 829 664 c 2
 829 0 l 1
 701 0 l 1
 701 668 l 2
 701 826 663 895 543 896 c 0
 542 896 542 896 541 896 c 0
 482 896 370 879 268 823 c 1
 268 0 l 1
 140 0 l 1
 140 985 l 1
 258 985 l 1xbc
 263 922 l 1
 364 978 474 1000 560 1000 c 0
 647 1000 730 978 770 918 c 1
 889 982 999 1000 1080 1000 c 0xdc
EndSplineSet
EndChar

StartChar: macron
Encoding: 145 175 145
Width: 608
VWidth: 0
Flags: W
PickledData: "(dp1
S'com.typemytype.robofont.layerData'
p2
(dp3
S'B'
(dp4
S'name'
p5
S'macron'
p6
sS'lib'
p7
(dp8
sS'unicodes'
p9
(tsS'width'
p10
I608
sS'contours'
p11
(tsS'components'
p12
(tsS'anchors'
p13
(tsss."
HStem: 1078 106<64 544>
VStem: 64 480<1078 1184>
LayerCount: 2
UndoRedoHistory
Layer: 1
Undoes
EndUndoes
Redoes
EndRedoes
EndUndoRedoHistory
Fore
SplineSet
64 1078 m 1
 64 1184 l 1
 544 1184 l 1
 544 1078 l 1
 64 1078 l 1
EndSplineSet
EndChar

StartChar: mu
Encoding: 146 956 146
Width: 985
VWidth: 0
Flags: W
HStem: -23 115<329.555 609.826> 0 21G<733 839> 965 20G<160 271 730 839>
VStem: 160 111<-305.895 55 151.487 985> 730 109<0 100 184.395 985>
LayerCount: 2
UndoRedoHistory
Layer: 1
Undoes
EndUndoes
Redoes
EndRedoes
EndUndoRedoHistory
Fore
SplineSet
132 -309 m 1xb8
 151 -243 160 -162 160 -66 c 2
 160 985 l 1
 271 985 l 1
 271 344 l 2
 271 177 321 92 454 92 c 0xb8
 555 92 615 120 711 180 c 1
 724 274 730 352 730 414 c 2
 730 985 l 1
 839 985 l 1
 839 0 l 1
 733 0 l 1x78
 733 100 l 1
 648 43 l 1
 585 4 520 -23 441 -23 c 0
 366 -23 298 8 262 55 c 1
 268 -68 l 1
 268 -183 256 -269 231 -328 c 1
 133 -309 l 1
 132 -309 l 1xb8
EndSplineSet
EndChar

StartChar: n
Encoding: 147 110 147
Width: 985
VWidth: 0
Flags: W
PickledData: "(dp1
S'com.typemytype.robofont.layerData'
p2
(dp3
S'B'
(dp4
S'name'
p5
S'n'
sS'lib'
p6
(dp7
sS'unicodes'
p8
(tsS'width'
p9
I978
sS'contours'
p10
(tsS'components'
p11
(tsS'anchors'
p12
(tsss."
HStem: 0 21G<140 268 729 857> 895 105<333.618 680.84> 965 20G<140 247.812>
VStem: 140 128<0 844.086> 140 105<921 985> 729 128<0 849.354>
LayerCount: 2
Fore
SplineSet
268 822 m 1xd4
 268 0 l 1
 140 0 l 1xd4
 140 985 l 1
 245 985 l 1xac
 254 921 l 1
 389 985 463 1000 560 1000 c 0
 763 1000 857 891 857 663 c 2
 857 0 l 1
 729 0 l 1
 729 668 l 2
 729 825 689 895 553 895 c 0
 479 895 388 888 268 822 c 1xd4
EndSplineSet
EndChar

StartChar: nine
Encoding: 148 57 148
Width: 1002
VWidth: 0
Flags: W
HStem: -10 106<242.16 441.385> 467 110<307.012 621.014> 1195 106<318.204 609.492>
VStem: 96 128<664.317 1090.8> 720 128<392.75 565 652.51 1055.68>
LayerCount: 2
UndoRedoHistory
Layer: 1
Undoes
EndUndoes
Redoes
EndRedoes
EndUndoRedoHistory
Fore
SplineSet
713 565 m 1
 609 492 528 467 430 467 c 0
 242 467 96 594 96 871 c 0
 96 1144 233 1301 465 1301 c 0
 737 1301 848 1105 848 741 c 0
 848 186 624 13 245 -10 c 1
 224 96 l 1
 568 104 713 310 713 565 c 1
720 763 m 2
 720 1051 650 1195 470 1195 c 0
 302 1195 224 1095 224 870 c 0
 224 664 302 577 445 577 c 0
 532 577 601 602 720 679 c 1
 720 763 l 2
EndSplineSet
EndChar

StartChar: notequal
Encoding: 149 8800 149
Width: 1152
VWidth: 0
Flags: W
HStem: 334 94<128 369 531 1021> 715 92<128 603 771 1021>
LayerCount: 2
UndoRedoHistory
Layer: 1
Undoes
EndUndoes
Redoes
EndRedoes
EndUndoRedoHistory
Fore
SplineSet
712 715 m 1
 531 428 l 1
 1021 428 l 1
 1021 334 l 1
 471 334 l 1
 293 53 l 1
 223 111 l 1
 369 334 l 1
 128 334 l 1
 128 428 l 1
 428 428 l 1
 603 715 l 1
 128 715 l 1
 128 807 l 1
 666 807 l 1
 842 1085 l 1
 914 1030 l 1
 771 807 l 1
 1021 807 l 1
 1021 715 l 1
 712 715 l 1
EndSplineSet
EndChar

StartChar: numbersign
Encoding: 151 35 151
Width: 1082
VWidth: 0
Flags: W
HStem: 449 104<126 294 408 615 733 918> 928 102<162 350 466 674 786 953> 1344 20G<396.665 504 717.665 823>
LayerCount: 2
UndoRedoHistory
Layer: 1
Undoes
EndUndoes
Redoes
EndRedoes
EndUndoRedoHistory
Fore
SplineSet
720 449 m 1
 679 92 l 1
 573 92 l 1
 615 449 l 1
 399 449 l 1
 359 92 l 1
 252 92 l 1
 294 449 l 1
 126 449 l 1
 126 553 l 1
 307 553 l 1
 350 928 l 1
 162 928 l 1
 162 1030 l 1
 360 1030 l 1
 399 1364 l 1
 504 1364 l 1
 466 1030 l 1
 681 1030 l 1
 720 1364 l 1
 823 1364 l 1
 786 1030 l 1
 953 1030 l 1
 953 928 l 1
 774 928 l 1
 733 553 l 1
 918 553 l 1
 918 449 l 1
 720 449 l 1
630 553 m 1
 674 928 l 1
 450 928 l 1
 408 553 l 1
 630 553 l 1
EndSplineSet
EndChar

StartChar: o
Encoding: 152 111 152
Width: 984
VWidth: 0
Flags: W
PickledData: "(dp1
S'com.typemytype.robofont.layerData'
p2
(dp3
S'B'
(dp4
S'name'
p5
S'o'
sS'lib'
p6
(dp7
sS'unicodes'
p8
(tsS'width'
p9
I984
sS'contours'
p10
(tsS'components'
p11
(tsS'anchors'
p12
(tsss."
HStem: -10 106<345.795 638.205> 895 105<348.89 635.11>
VStem: 108 128<227.597 760.647> 748 128<227.597 760.647>
LayerCount: 2
Fore
SplineSet
492 895 m 0
 295 895 236 730 236 495 c 0
 236 257 292 96 492 96 c 0
 692 96 748 257 748 495 c 0
 748 730 689 895 492 895 c 0
492 -10 m 0
 225 -10 108 182 108 495 c 0
 108 826 223 1000 492 1000 c 0
 761 1000 876 826 876 495 c 0
 876 182 759 -10 492 -10 c 0
EndSplineSet
EndChar

StartChar: oe
Encoding: 156 339 156
Width: 1604
VWidth: 0
Flags: W
PickledData: "(dp1
S'com.typemytype.robofont.layerData'
p2
(dp3
S'B'
(dp4
S'name'
p5
S'oe'
p6
sS'lib'
p7
(dp8
sS'unicodes'
p9
(tsS'width'
p10
I2012
sS'contours'
p11
(tsS'components'
p12
(tsS'anchors'
p13
(tsss."
HStem: -10 106<345.795 638.236 1000.35 1379.28> 469 90<876 1383> 895 105<348.89 633.017 999.644 1282.76>
VStem: 108 128<227.597 760.647> 748 128<241.201 469 559 747.913> 1383 119<559.717 783.657>
LayerCount: 2
UndoRedoHistory
Layer: 1
Undoes
EndUndoes
Redoes
EndRedoes
EndUndoRedoHistory
Fore
SplineSet
1165 96 m 0
 1265 96 1352 117 1445 176 c 1
 1484 75 l 1
 1388 16 1267 -10 1172 -10 c 0
 1012 -10 887 62 815 192 c 1
 755 73 650 -10 492 -10 c 0
 225 -10 108 182 108 495 c 0
 108 826 223 1000 492 1000 c 0
 653 1000 759 927 818 806 c 1
 888 931 1005 1000 1147 1000 c 0
 1369 1000 1502 841 1502 604 c 0
 1502 574 1499 528 1494 469 c 1
 876 469 l 1
 880 162 1019 96 1165 96 c 0
492 895 m 0
 295 895 236 730 236 495 c 0
 236 257 292 96 492 96 c 0
 692 96 748 257 748 495 c 0
 748 730 689 895 492 895 c 0
1148 895 m 0
 975 895 891 766 876 559 c 1
 1383 559 l 1
 1383 609 l 2
 1383 783 1293 895 1148 895 c 0
EndSplineSet
EndChar

StartChar: one
Encoding: 158 49 158
Width: 799
VWidth: 0
Flags: W
PickledData: "(dp1
S'com.typemytype.robofont.layerData'
p2
(dp3
S'B'
(dp4
S'name'
p5
S'one'
p6
sS'lib'
p7
(dp8
sS'unicodes'
p9
(tsS'width'
p10
I799
sS'contours'
p11
(tsS'components'
p12
(tsS'anchors'
p13
(tsss."
HStem: 0 100<160 384 512 704> 1264 20G<355.434 512>
VStem: 384 128<100 1167>
LayerCount: 2
UndoRedoHistory
Layer: 1
Undoes
EndUndoes
Redoes
EndRedoes
EndUndoRedoHistory
Fore
SplineSet
512 100 m 1
 704 100 l 1
 704 0 l 1
 160 0 l 1
 160 100 l 1
 384 100 l 1
 384 1167 l 1
 157 1061 l 1
 119 1154 l 1
 118 1155 l 1
 399 1284 l 1
 512 1284 l 1
 512 100 l 1
EndSplineSet
EndChar

StartChar: ordfeminine
Encoding: 159 170 159
Width: 740
VWidth: 0
Flags: W
HStem: 680 89<234.958 455.327> 1004 81<243.622 496> 1264 89<360 473.316>
VStem: 128 92<784.634 981.612> 496 90<809.334 1007 1083 1244.39>
LayerCount: 2
UndoRedoHistory
Layer: 1
Undoes
EndUndoes
Redoes
EndRedoes
EndUndoRedoHistory
Fore
SplineSet
359 1265 m 1
 278 1258 224 1242 191 1197 c 1
 149 1265 l 1
 205 1324 282 1353 379 1353 c 0
 538 1353 586 1286 586 1074 c 2
 586 845 l 2
 586 814 584 801 598 789 c 1
 605 693 l 1
 569 686 546 683 536 683 c 1
 517 699 506 725 503 762 c 1
 444 707 382 680 316 680 c 0
 196 680 128 753 128 881 c 0
 128 1024 205 1078 349 1085 c 1
 382 1085 468 1083 496 1083 c 1
 494 1199 484 1264 381 1264 c 2
 360 1264 l 1
 359 1265 l 1
496 863 m 1
 496 1007 l 1
 424 1004 l 2
 419 1004 414 1004 409 1004 c 0
 307 1004 220 1001 220 886 c 0
 220 798 254 769 338 769 c 0
 408 769 460 800 496 863 c 1
EndSplineSet
EndChar

StartChar: ordmasculine
Encoding: 160 186 160
Width: 754
VWidth: 0
Flags: W
HStem: 679 89<261.257 489.967> 1264 85<258.643 486.121>
VStem: 123 92<816.012 1220.95> 534 92<810.261 1218.22>
LayerCount: 2
UndoRedoHistory
Layer: 1
Undoes
EndUndoes
Redoes
EndRedoes
EndUndoRedoHistory
Fore
SplineSet
534 1016 m 0
 534 1185 501 1264 373 1264 c 0
 246 1264 215 1190 215 1016 c 0
 215 857 244 768 373 768 c 0
 504 768 534 843 534 1016 c 0
373 1349 m 1
 553 1349 626 1237 626 1017 c 0
 626 806 556 679 373 679 c 0
 216 679 123 778 123 1015 c 0
 123 1224 193 1350 373 1350 c 1
 373 1349 l 1
EndSplineSet
EndChar

StartChar: oslash
Encoding: 161 248 161
Width: 1016
VWidth: 0
Flags: W
HStem: -10 106<345.795 638.205> 895 105<348.89 635.11>
VStem: 108 128<227.597 760.647> 748 128<227.597 760.647>
LayerCount: 2
UndoRedoHistory
Layer: 1
Undoes
EndUndoes
Redoes
EndRedoes
EndUndoRedoHistory
Fore
SplineSet
284.58203125 -118.826171875 m 5
 213.125976562 -90.953125 l 5
 715.005859375 1104.12304688 l 1
 786.462890625 1076.25097656 l 1
 284.58203125 -118.826171875 l 5
EndSplineSet
Refer: 152 111 N 1 0 0 1 0 0 2
EndChar

StartChar: p
Encoding: 163 112 163
Width: 982
VWidth: 0
Flags: W
PickledData: "(dp1
S'com.typemytype.robofont.layerData'
p2
(dp3
S'B'
(dp4
S'name'
p5
S'p'
sS'lib'
p6
(dp7
sS'unicodes'
p8
(tsS'width'
p9
I982
sS'contours'
p10
(tsS'components'
p11
(tsS'anchors'
p12
(tsss."
HStem: -389 21G<140 268> -10 106<286.789 640.878> 895 105<348.562 651.82> 965 20G<140 248.478>
VStem: 140 128<-389 43 119.105 833.252> 140 105<916 985> 748 128<221.794 778.674>
LayerCount: 2
UndoRedoHistory
Layer: 1
Undoes
EndUndoes
Redoes
EndRedoes
EndUndoRedoHistory
Fore
SplineSet
268 809 m 1xea
 268 137 l 1
 350 99 408 96 463 96 c 0
 473 96 482 96 492 96 c 0
 672 96 748 206 748 491 c 0
 748 767 681 895 524 895 c 0
 456 895 377 872 268 809 c 1xea
268 43 m 1
 268 -389 l 1
 140 -389 l 1xea
 140 985 l 1
 245 985 l 1xd6
 257 916 l 1
 363 985 457 1000 540 1000 c 0
 740 1000 876 852 876 493 c 0
 876 126 747 -10 510 -10 c 0
 439 -10 347 4 268 43 c 1
EndSplineSet
EndChar

StartChar: paragraph
Encoding: 164 182 164
Width: 1039
VWidth: 0
Flags: W
HStem: 0 21G<564 629 824 889> 482 65<390.708 564> 1241 60<347.253 564 629 824>
VStem: 121 65<725.124 1087.92> 564 65<0 484.326 547 1241> 824 65<0 1241>
LayerCount: 2
UndoRedoHistory
Layer: 1
Undoes
EndUndoes
Redoes
EndRedoes
EndUndoRedoHistory
Fore
SplineSet
889 0 m 1
 824 0 l 1
 824 1241 l 1
 629 1241 l 1
 629 0 l 1
 564 0 l 1
 564 482 l 1
 293 505 121 584 121 906 c 0
 121 1218 284 1301 564 1301 c 2
 889 1301 l 1
 889 0 l 1
564 547 m 1
 564 1242 l 1
 360 1242 186 1211 186 904 c 0
 186 638 319 567 564 547 c 1
EndSplineSet
EndChar

StartChar: parenleft
Encoding: 165 40 165
Width: 520
VWidth: 0
Flags: W
VStem: 74 131<270.384 1025.86>
LayerCount: 2
UndoRedoHistory
Layer: 1
Undoes
EndUndoes
Redoes
EndRedoes
EndUndoRedoHistory
Fore
SplineSet
382 -305 m 1
 177 -32 74 309 74 650 c 0
 74 991 177 1331 382 1604 c 1
 461 1528 l 1
 291 1270 205 957 205 645 c 0
 205 335 290 25 461 -231 c 1
 382 -307 l 1
 382 -305 l 1
EndSplineSet
EndChar

StartChar: parenright
Encoding: 166 41 166
Width: 520
VWidth: 0
Flags: W
VStem: 318 131<270.384 1025.86>
LayerCount: 2
UndoRedoHistory
Layer: 1
Undoes
EndUndoes
Redoes
EndRedoes
EndUndoRedoHistory
Fore
SplineSet
141 -305 m 1
 141 -307 l 1
 62 -231 l 1
 233 25 318 335 318 645 c 0
 318 957 232 1270 62 1528 c 1
 141 1604 l 1
 346 1331 449 991 449 650 c 0
 449 309 346 -32 141 -305 c 1
EndSplineSet
EndChar

StartChar: partialdiff
Encoding: 167 8706 167
Width: 905
VWidth: 0
Flags: W
HStem: -13 100<320.384 582.319> 714 100<310.053 570.513> 1266 20G<306.458 482.5>
VStem: 125 107<184.827 630.544> 666 108<177.446 711.933>
LayerCount: 2
UndoRedoHistory
Layer: 1
Undoes
EndUndoes
Redoes
EndRedoes
EndUndoRedoHistory
Fore
SplineSet
447 -13 m 1
 228 -13 125 150 125 407 c 0
 125 678 232 814 445 814 c 0
 539 814 613 770 666 683 c 1
 614 886 565 1001 456 1084 c 0
 423 1109 362 1145 274 1190 c 1
 315 1286 l 1
 650 1141 774 901 774 412 c 0
 774 128 665 -14 447 -14 c 1
 447 -13 l 1
440 714 m 0
 288 714 232 608 232 407 c 0
 232 194 304 87 447 87 c 0
 606 87 666 196 666 396 c 0
 666 589 594 714 440 714 c 0
EndSplineSet
EndChar

StartChar: percent
Encoding: 168 37 168
Width: 1471
VWidth: 0
Flags: W
HStem: -10 88<1035.27 1249.96> 449 90<1035.68 1251.84> 752 88<222.273 436.865> 1211 90<222.684 438.743> 1348 20G<985.843 1054.65>
VStem: 69 98<895.437 1154.55> 493 97<893.408 1160.01> 882 98<133.437 392.548> 1306 98<131.408 398.014>
LayerCount: 2
UndoRedoHistory
Layer: 1
Undoes
EndUndoes
Redoes
EndRedoes
EndUndoRedoHistory
Fore
SplineSet
1404 265 m 0
 1404 81 1273 -10 1144 -10 c 0
 1013 -10 882 84 882 265 c 0
 882 449 1014 539 1144 539 c 0
 1274 539 1404 449 1404 265 c 0
1306 265 m 0
 1306 390 1226 449 1144 449 c 0
 1063 449 980 386 980 265 c 0
 980 140 1062 78 1144 78 c 0
 1225 78 1306 141 1306 265 c 0
994 1368 m 1
 1088 1337 l 1
 522 -44 l 1
 432 -10 l 1
 994 1368 l 1
590 1027 m 0
 590 843 460 752 331 752 c 0
 200 752 69 846 69 1027 c 0
 69 1211 201 1301 331 1301 c 0
 461 1301 590 1211 590 1027 c 0
493 1027 m 0
 493 1152 413 1211 331 1211 c 0
 250 1211 167 1148 167 1027 c 0
 167 902 249 840 331 840 c 0
 412 840 493 903 493 1027 c 0
EndSplineSet
EndChar

StartChar: period
Encoding: 169 46 169
Width: 452
VWidth: 0
Flags: W
PickledData: "(dp1
S'com.typemytype.robofont.layerData'
p2
(dp3
S'B'
(dp4
S'name'
p5
S'period'
p6
sS'lib'
p7
(dp8
sS'unicodes'
p9
(tsS'width'
p10
I452
sS'contours'
p11
(tsS'components'
p12
(tsS'anchors'
p13
(tsss."
HStem: 0 202<145 305>
VStem: 145 160<0 202>
LayerCount: 2
UndoRedoHistory
Layer: 1
Undoes
EndUndoes
Redoes
EndRedoes
EndUndoRedoHistory
Fore
SplineSet
305 202 m 1
 305 0 l 1
 145 0 l 1
 145 202 l 1
 305 202 l 1
EndSplineSet
EndChar

StartChar: periodcentered
Encoding: 170 183 170
Width: 452
VWidth: 0
Flags: W
HStem: 554 192<215 375>
VStem: 215 160<554 746>
LayerCount: 2
UndoRedoHistory
Layer: 1
Undoes
EndUndoes
Redoes
EndRedoes
EndUndoRedoHistory
Fore
SplineSet
375 746 m 1
 375 554 l 1
 215 554 l 1
 215 746 l 1
 375 746 l 1
EndSplineSet
EndChar

StartChar: perthousand
Encoding: 171 8240 171
Width: 2115
VWidth: 0
Flags: W
HStem: -10 88<1035.27 1249.77 1677.27 1891.87> 449 90<1035.68 1251.65 1677.68 1893.74> 752 88<221.273 435.865> 1211 90<221.684 437.743> 1348 20G<983.843 1052.65>
VStem: 68 98<895.437 1154.55> 492 97<893.408 1160.01> 882 98<133.437 392.548> 1306 96<131.408 398.014> 1524 98<133.437 392.548> 1948 97<131.408 398.014>
LayerCount: 2
UndoRedoHistory
Layer: 1
Undoes
EndUndoes
Redoes
EndRedoes
EndUndoRedoHistory
Fore
SplineSet
1402 265 m 0
 1402 81 1273 -10 1144 -10 c 0
 1013 -10 882 84 882 265 c 0
 882 449 1014 539 1144 539 c 0
 1274 539 1402 449 1402 265 c 0
1306 265 m 0
 1306 390 1226 449 1144 449 c 0
 1063 449 980 386 980 265 c 0
 980 140 1062 78 1144 78 c 0
 1225 78 1306 141 1306 265 c 0
992 1368 m 1
 1086 1337 l 1
 522 -44 l 1
 430 -10 l 1
 992 1368 l 1
589 1027 m 0
 589 843 459 752 330 752 c 0
 199 752 68 846 68 1027 c 0
 68 1211 200 1301 330 1301 c 0
 460 1301 589 1211 589 1027 c 0
492 1027 m 0
 492 1152 412 1211 330 1211 c 0
 249 1211 166 1148 166 1027 c 0
 166 902 248 840 330 840 c 0
 411 840 492 903 492 1027 c 0
2045 265 m 0
 2045 81 1915 -10 1786 -10 c 0
 1655 -10 1524 84 1524 265 c 0
 1524 449 1656 539 1786 539 c 0
 1916 539 2045 449 2045 265 c 0
1948 265 m 0
 1948 390 1868 449 1786 449 c 0
 1705 449 1622 386 1622 265 c 0
 1622 140 1704 78 1786 78 c 0
 1867 78 1948 141 1948 265 c 0
EndSplineSet
EndChar

StartChar: pi
Encoding: 172 960 172
Width: 1205
VWidth: 0
Flags: W
HStem: 0 21G<269 397.5 800.5 917> 909 110<124.679 323 435 793 906 1084>
VStem: 323 112<464.208 909> 793 113<0 909>
LayerCount: 2
UndoRedoHistory
Layer: 1
Undoes
EndUndoes
Redoes
EndRedoes
EndUndoRedoHistory
Fore
SplineSet
114 1000 m 1
 185 1013 274 1019 382 1019 c 2
 1084 1019 l 1
 1084 910 l 1
 906 910 l 1
 906 280 l 2
 906 177 910 83 917 0 c 1
 804 0 l 1
 797 88 793 178 793 270 c 2
 793 909 l 1
 435 909 l 1
 430 600 413 297 382 0 c 1
 269 0 l 1
 298 270 316 573 323 909 c 1
 246 909 179 905 122 897 c 1
 113 999 l 1
 114 1000 l 1
EndSplineSet
EndChar

StartChar: plus
Encoding: 173 43 173
Width: 996
VWidth: 0
Flags: W
HStem: 541 104<110 445 550 884>
VStem: 445 105<176 541 645 1010>
LayerCount: 2
UndoRedoHistory
Layer: 1
Undoes
EndUndoes
Redoes
EndRedoes
EndUndoRedoHistory
Fore
SplineSet
550 1010 m 1
 550 645 l 1
 884 645 l 1
 884 541 l 1
 550 541 l 1
 550 176 l 1
 445 176 l 1
 445 541 l 1
 110 541 l 1
 110 645 l 1
 445 645 l 1
 445 1010 l 1
 550 1010 l 1
EndSplineSet
EndChar

StartChar: plusminus
Encoding: 174 177 174
Width: 1176
VWidth: 0
Flags: W
HStem: 82 106<151 1024> 610 109<151 534 641 1024>
VStem: 534 107<299 610 719 1042>
LayerCount: 2
UndoRedoHistory
Layer: 1
Undoes
EndUndoes
Redoes
EndRedoes
EndUndoRedoHistory
Fore
SplineSet
151 82 m 1
 151 188 l 1
 1024 188 l 1
 1024 82 l 1
 151 82 l 1
641 1042 m 1
 641 719 l 1
 1024 719 l 1
 1024 610 l 1
 641 610 l 1
 641 299 l 1
 534 299 l 1
 534 610 l 1
 151 610 l 1
 151 719 l 1
 534 719 l 1
 534 1042 l 1
 641 1042 l 1
EndSplineSet
EndChar

StartChar: product
Encoding: 175 8719 175
Width: 1194
VWidth: 0
Flags: W
HStem: 1260 112<102 278 392 801 915 1094>
VStem: 278 114<-96 1260> 801 114<-96 1260>
LayerCount: 2
UndoRedoHistory
Layer: 1
Undoes
EndUndoes
Redoes
EndRedoes
EndUndoRedoHistory
Fore
SplineSet
392 1260 m 1
 392 -96 l 1
 278 -96 l 1
 278 1260 l 1
 102 1260 l 1
 102 1372 l 1
 1094 1372 l 1
 1094 1260 l 1
 915 1260 l 1
 915 -96 l 1
 801 -96 l 1
 801 1260 l 1
 392 1260 l 1
EndSplineSet
EndChar

StartChar: q
Encoding: 176 113 176
Width: 984
VWidth: 0
Flags: W
PickledData: "(dp1
S'com.typemytype.robofont.layerData'
p2
(dp3
S'B'
(dp4
S'name'
p5
S'q'
sS'lib'
p6
(dp7
sS'unicodes'
p8
(tsS'width'
p9
I984
sS'contours'
p10
(tsS'components'
p11
(tsS'anchors'
p12
(tsss."
HStem: -389 21G<716 844> -10 106<339.403 700.777> 895 105<344.483 658.966> 965 20G<731.226 844>
VStem: 108 128<212.848 763.775> 716 128<-389 42 119.638 844.607>
LayerCount: 2
UndoRedoHistory
Layer: 1
Undoes
EndUndoes
Redoes
EndRedoes
EndUndoRedoHistory
Fore
SplineSet
487 96 m 0xec
 550 96 628 97 716 137 c 1
 716 821 l 1
 607 884 542 895 474 895 c 0
 317 895 236 767 236 491 c 0
 236 206 307 96 487 96 c 0xec
716 42 m 1
 642 0 551 -10 481 -10 c 0
 244 -10 108 126 108 493 c 0
 108 866 257 1000 462 1000 c 0xec
 546 1000 616 985 717 923 c 1
 738 985 l 1
 844 985 l 1xdc
 844 -389 l 1
 716 -389 l 1
 716 42 l 1
EndSplineSet
EndChar

StartChar: question
Encoding: 177 63 177
Width: 881
VWidth: 0
Flags: W
PickledData: "(dp1
S'com.typemytype.robofont.layerData'
p2
(dp3
S'B'
(dp4
S'name'
p5
S'question'
p6
sS'lib'
p7
(dp8
sS'unicodes'
p9
(tsS'width'
p10
I881
sS'contours'
p11
(tsS'components'
p12
(tsS'anchors'
p13
(tsss."
HStem: -6 141<345 470> 1195 106<267.626 585.676>
VStem: 340 97<294.977 551.326> 345 125<-6 135> 647 119<867.807 1133.74>
LayerCount: 2
UndoRedoHistory
Layer: 1
Undoes
EndUndoes
Redoes
EndRedoes
EndUndoRedoHistory
Fore
SplineSet
766 1005 m 0xe8
 766 721 437 659 437 412 c 0
 437 389 441 335 444 293 c 1
 361 293 l 1
 353 321 340 455 340 455 c 1
 340 673 647 803 647 998 c 0
 647 1107 584 1195 458 1195 c 0
 330 1195 245 1153 158 1071 c 1
 102 1151 l 1
 170 1229 303 1301 449 1301 c 0
 635 1301 766 1184 766 1005 c 0xe8
345 135 m 1xd8
 470 135 l 1
 470 -6 l 1
 345 -6 l 1
 345 135 l 1xd8
EndSplineSet
EndChar

StartChar: quotedbl
Encoding: 179 34 179
Width: 634
VWidth: 0
Flags: W
HStem: 950 461<125 237 388 503>
VStem: 125 121<950 1411> 388 115<950 1411>
LayerCount: 2
UndoRedoHistory
Layer: 1
Undoes
EndUndoes
Redoes
EndRedoes
EndUndoRedoHistory
Fore
SplineSet
125 1411 m 1
 246 1411 l 1
 246 1229 l 1
 237 950 l 1
 125 950 l 1
 125 1104 125 1257 125 1411 c 1
388 1411 m 1
 510 1411 l 1
 503 1217 l 1
 503 950 l 1
 388 950 l 1
 388 1104 388 1257 388 1411 c 1
EndSplineSet
EndChar

StartChar: quotedblleft
Encoding: 180 8220 180
Width: 690
VWidth: 0
Flags: W
HStem: 958 439
VStem: 244 67<1322.24 1371.06> 512 66<1322.24 1371.17>
LayerCount: 2
UndoRedoHistory
Layer: 1
Undoes
EndUndoes
Redoes
EndRedoes
EndUndoRedoHistory
Fore
SplineSet
241 958 m 1
 112 987 l 1
 149 1149 194 1289 244 1397 c 1
 311 1364 l 1
 278 1238 257 1100 241 958 c 1
508 958 m 1
 380 987 l 1
 417 1149 462 1289 512 1397 c 1
 578 1364 l 1
 545 1238 524 1100 508 958 c 1
EndSplineSet
EndChar

StartChar: quotedblright
Encoding: 181 8221 181
Width: 700
VWidth: 0
Flags: W
HStem: 973 434
VStem: 119 467
LayerCount: 2
UndoRedoHistory
Layer: 1
Undoes
EndUndoes
Redoes
EndRedoes
EndUndoRedoHistory
Fore
SplineSet
456 1407 m 1
 586 1382 l 1
 552 1231 502 1043 454 973 c 1
 388 994 l 1
 386 994 l 2
 387 994 436 1268 456 1407 c 1
187 1407 m 1
 317 1382 l 1
 279 1221 266 1132 186 973 c 1
 119 994 l 1
 118 994 l 2
 119 994 167 1268 187 1407 c 1
EndSplineSet
EndChar

StartChar: quoteleft
Encoding: 182 8216 182
Width: 423
VWidth: 0
Flags: W
HStem: 958 439
VStem: 244 67<1322.24 1371.06>
LayerCount: 2
UndoRedoHistory
Layer: 1
Undoes
EndUndoes
Redoes
EndRedoes
EndUndoRedoHistory
Fore
SplineSet
241 958 m 1
 112 987 l 1
 149 1149 194 1289 244 1397 c 1
 311 1364 l 1
 278 1238 257 1100 241 958 c 1
EndSplineSet
EndChar

StartChar: quoteright
Encoding: 183 8217 183
Width: 431
VWidth: 0
Flags: W
HStem: 973 434
VStem: 119 198
LayerCount: 2
UndoRedoHistory
Layer: 1
Undoes
EndUndoes
Redoes
EndRedoes
EndUndoRedoHistory
Fore
SplineSet
187 1407 m 1
 317 1382 l 1
 279 1221 266 1132 186 973 c 1
 119 994 l 1
 118 994 l 2
 119 994 167 1268 187 1407 c 1
EndSplineSet
EndChar

StartChar: quotesingle
Encoding: 184 39 184
Width: 371
VWidth: 0
Flags: W
HStem: 950 461<125 239>
VStem: 125 114<950 1411>
LayerCount: 2
UndoRedoHistory
Layer: 1
Undoes
EndUndoes
Redoes
EndRedoes
EndUndoRedoHistory
Fore
SplineSet
125 1411 m 1
 248 1411 l 1
 239 1212 l 1
 239 950 l 1
 125 950 l 1
 125 1104 125 1257 125 1411 c 1
EndSplineSet
EndChar

StartChar: r
Encoding: 185 114 185
Width: 651
VWidth: 0
Flags: W
PickledData: "(dp1
S'com.typemytype.robofont.layerData'
p2
(dp3
S'B'
(dp4
S'name'
p5
S'r'
sS'lib'
p6
(dp7
sS'unicodes'
p8
(tsS'width'
p9
I651
sS'contours'
p10
(tsS'components'
p11
(tsS'anchors'
p12
(tsss."
HStem: 0 21G<146 274> 893 107<388.464 589> 965 20G<146 269.163>
VStem: 146 128<0 828.924 899 985>
LayerCount: 2
UndoRedoHistory
Layer: 1
Undoes
EndUndoes
Redoes
EndRedoes
EndUndoRedoHistory
Fore
SplineSet
273 899 m 1xb0
 351 952 487 996 589 1000 c 1
 589 893 l 1xd0
 467 893 336 849 274 804 c 1
 274 0 l 1
 146 0 l 1
 146 985 l 1
 268 985 l 1
 273 899 l 1xb0
EndSplineSet
EndChar

StartChar: radical
Encoding: 186 8730 186
Width: 1086
VWidth: 0
Flags: W
HStem: -8 21G<498.631 678.478> 1352 20G<875.611 983>
LayerCount: 2
UndoRedoHistory
Layer: 1
Undoes
EndUndoes
Redoes
EndRedoes
EndUndoRedoHistory
Fore
SplineSet
112 846 m 1
 374 885 l 1
 556 170 l 1
 604 98 l 1
 655 353 717 630 792 971 c 2
 880 1372 l 1
 983 1372 l 1
 674 -8 l 1
 504 -8 l 1
 293 778 l 1
 121 756 l 1
 112 846 l 1
EndSplineSet
EndChar

StartChar: registered
Encoding: 187 174 187
Width: 1583
VWidth: 0
Flags: W
HStem: -5 89<578.01 1002.25> 623 80<635 824.118> 995 84<635 982.023> 1208 89<578.01 1002.25>
VStem: 140 97<432.41 859.59> 527 108<227 623 703 995> 1027 107<747.176 952.792> 1345 97<432.41 859.59>
LayerCount: 2
UndoRedoHistory
Layer: 1
Undoes
EndUndoes
Redoes
EndRedoes
EndUndoRedoHistory
Fore
SplineSet
140 646 m 0
 140 1005 431 1297 790 1297 c 0
 1149 1297 1442 1005 1442 646 c 0
 1442 287 1149 -5 790 -5 c 0
 431 -5 140 287 140 646 c 0
237 646 m 0
 237 336 484 84 790 84 c 0
 1096 84 1345 336 1345 646 c 0
 1345 956 1096 1208 790 1208 c 0
 484 1208 237 956 237 646 c 0
1102 273 m 1
 1004 226 l 1
 1004 226 889 455 826 628 c 1
 786 625 737 623 689 623 c 2
 635 623 l 1
 635 227 l 1
 527 227 l 1
 527 1079 l 1
 722 1079 l 2
 981 1079 1134 1050 1134 850 c 0
 1134 721 1057 661 926 637 c 1
 979 498 1102 273 1102 273 c 1
1027 853 m 0
 1027 986 915 995 697 995 c 2
 635 995 l 1
 635 703 l 1
 670 703 l 2
 943 703 1027 724 1027 853 c 0
EndSplineSet
EndChar

StartChar: s
Encoding: 188 115 188
Width: 838
VWidth: 0
Flags: W
PickledData: "(dp1
S'com.typemytype.robofont.layerData'
p2
(dp3
S'B'
(dp4
S'name'
p5
S's'
sS'lib'
p6
(dp7
sS'unicodes'
p8
(tsS'width'
p9
F824.28529041599995
sS'contours'
p10
(tsS'components'
p11
(tsS'anchors'
p12
(tsss."
HStem: -10 106<210.102 583.966> 895 105<300.707 664.856>
VStem: 123 122<633.473 839.628> 637 125<146.099 380.474>
LayerCount: 2
Back
SplineSet
440 96 m 4
 330 96 205 139 144 172 c 5
 101 69 l 5
 177 28 320 -10 434 -10 c 4
 609 -10 748 72 748 273 c 4
 748 434 686 491 533 540 c 6
 386 587 l 6
 290 618 237 637 237 730 c 4
 237 850.144 320.166 895 445 895 c 4
 526 895 613 875 667 846 c 5
 705 942 l 5
 624 979 528 1000 437 1000 c 4
 262.815 1000 115 920.532 115 735 c 4
 115 568 203 518 348 472 c 6
 498 425 l 6
 579 400 629 364 629 265 c 4
 629 155 561 96 440 96 c 4
EndSplineSet
UndoRedoHistory
Layer: 1
Undoes
EndUndoes
Redoes
EndRedoes
EndUndoRedoHistory
Fore
SplineSet
150 167 m 1
 211 133 328 96 432 96 c 0
 542 96 637 137 637 265 c 0
 637 364 587 400 506 425 c 2
 356 472 l 2
 211 518 123 568 123 735 c 0
 123 926 277 1000 447 1000 c 0
 539 1000 635 978 713 942 c 1
 675 846 l 1
 614 875 532 895 456 895 c 0
 344 895 245 852 245 730 c 0
 245 637 298 618 394 587 c 2
 541 540 l 2
 694 491 762 432 762 271 c 0
 762 63 609 -10 438 -10 c 0
 327 -10 206 22 109 69 c 1
 150 167 l 1
EndSplineSet
EndChar

StartChar: section
Encoding: 189 167 189
Width: 935
VWidth: 0
Flags: W
HStem: -79 105<262.102 610.458> 1303 104<323.637 664.611>
VStem: 141 111<585.588 812.225> 165 111<1018.09 1256.59> 657 111<75.4062 302.115> 695 108<497.703 714.113>
LayerCount: 2
UndoRedoHistory
Layer: 1
Undoes
EndUndoes
Redoes
EndRedoes
EndUndoRedoHistory
Fore
SplineSet
633 476 m 2xe4
 667 516 694 546 695 617 c 1
 695 699 627 742 563 771 c 0
 532 785 389 842 353 859 c 1
 286 818 252 765 252 698 c 0
 252 609 291 574 370 545 c 1
 479 500 l 2
 530 479 573 463 606 446 c 1
 606 444 l 1
 633 476 l 2xe4
769 200 m 1
 769 8 654 -79 458 -79 c 0
 314 -79 222 -50 142 26 c 1
 185 116 l 1
 270 56 361 26 460 26 c 0
 591 26 657 80 657 187 c 0
 657 275 626 305 550 339 c 2
 410 400 l 2
 209 487 141 519 141 682 c 0xe8
 141 777 187 851 280 903 c 1
 203 952 165 1025 165 1124 c 0
 165 1319 284 1407 477 1407 c 0
 602 1407 699 1376 768 1313 c 1xd8
 722 1225 l 1
 645 1277 564 1303 479 1303 c 0
 346 1303 276 1256 276 1133 c 0
 276 1031 335 995 418 959 c 0
 675 846 803 835 803 616 c 0xd4
 803 532 764 458 687 395 c 1
 741 353 768 288 768 199 c 1xc8
 769 200 l 1
EndSplineSet
EndChar

StartChar: semicolon
Encoding: 190 59 190
Width: 462
VWidth: 0
Flags: W
HStem: 636 210<145 307>
VStem: 145 162<636 846> 150 173<86 302>
LayerCount: 2
UndoRedoHistory
Layer: 1
Undoes
EndUndoes
Redoes
EndRedoes
EndUndoRedoHistory
Fore
SplineSet
145 846 m 1xc0
 307 846 l 1
 307 636 l 1
 145 636 l 1
 145 846 l 1xc0
323 129 m 2xa0
 323 -2 269 -90 184 -186 c 1
 138 -133 l 1
 190 -51 219 22 224 86 c 1
 150 86 l 1
 150 302 l 1
 323 302 l 1
 323 129 l 2xa0
EndSplineSet
EndChar

StartChar: seven
Encoding: 191 55 191
Width: 875
VWidth: 0
Flags: W
HStem: 0 21G<243 379> 1195 106<106 638>
VStem: 243 136<0 300.803>
LayerCount: 2
Back
SplineSet
769 1181 m 6
 769 1301 l 5
 106 1301 l 5
 106 1300 106 1261 105 1184 c 5
 655 1184 l 5
 642 1139 626 1090 601 1035 c 6
 520 856 l 6
 344 468 260 230 257 3 c 5
 379 3 l 5
 379 146 430 343 487 500 c 4
 548 667 741 1086 758 1129 c 4
 765 1148 769 1166 769 1181 c 6
EndSplineSet
UndoRedoHistory
Layer: 1
Undoes
EndUndoes
Redoes
EndRedoes
EndUndoRedoHistory
Fore
SplineSet
779 1198 m 1
 704 1081 379 417 379 0 c 1
 243 0 l 1
 253 373 421 763 638 1195 c 1
 106 1195 l 1
 106 1301 l 1
 769 1301 l 1
 779 1198 l 1
EndSplineSet
EndChar

StartChar: six
Encoding: 192 54 192
Width: 998
VWidth: 0
Flags: W
HStem: -10 106<339.453 625.796> 715 110<322.986 636.988> 1189 112<488.695 701.688>
VStem: 96 128<237.376 639.49 727 911.547> 720 128<200.891 627.683>
LayerCount: 2
UndoRedoHistory
Layer: 1
Undoes
EndUndoes
Redoes
EndRedoes
EndUndoRedoHistory
Fore
SplineSet
224 529 m 2
 224 241 294 96 474 96 c 0
 642 96 720 197 720 422 c 0
 720 628 642 715 499 715 c 0
 412 715 343 690 224 613 c 1
 224 529 l 2
231 727 m 1
 335 800 416 825 514 825 c 0
 702 825 848 698 848 421 c 0
 848 148 711 -10 479 -10 c 0
 207 -10 96 190 96 551 c 0
 96 1106 311 1262 699 1301 c 1
 720 1189 l 1
 376 1181 242 996 231 727 c 1
EndSplineSet
EndChar

StartChar: slash
Encoding: 193 47 193
Width: 888
VWidth: 0
Flags: W
LayerCount: 2
Fore
SplineSet
812 1458 m 1
 178 -121 l 1
 99 -84 l 1
 731 1497 l 1
 812 1458 l 1
EndSplineSet
EndChar

StartChar: sterling
Encoding: 195 163 195
Width: 913
VWidth: 0
Flags: W
HStem: -1 97<250 822> 616 96<85 218 350 665> 1195 108<382.449 719.307>
VStem: 178 113<716.141 1103.62> 261 113<257.056 613.118>
LayerCount: 2
UndoRedoHistory
Layer: 1
Undoes
EndUndoes
Redoes
EndRedoes
EndUndoRedoHistory
Fore
SplineSet
156 -1 m 1xe8
 117 117 l 1
 200 204 261 307 261 455 c 0xe8
 261 504 255 557 240 616 c 1
 85 616 l 1
 85 712 l 1
 218 712 l 1
 191 803 178 884 178 954 c 0
 178 1183 315 1303 549 1303 c 0
 634 1303 721 1276 797 1221 c 1
 755 1128 l 1
 694 1171 621 1195 551 1195 c 0
 374 1195 291 1104 291 938 c 0xf0
 291 874 304 798 328 712 c 1
 665 712 l 1
 665 616 l 1
 350 616 l 1
 362 552 374 483 374 413 c 0
 374 305 346 195 250 96 c 1
 822 96 l 1
 823 0 l 1
 156 -1 l 1xe8
EndSplineSet
EndChar

StartChar: summation
Encoding: 196 8721 196
Width: 1020
VWidth: 0
Flags: W
HStem: -168 113<264 905> 1264 110<277 896>
LayerCount: 2
UndoRedoHistory
Layer: 1
Undoes
EndUndoes
Redoes
EndRedoes
EndUndoRedoHistory
Fore
SplineSet
896 1374 m 1
 896 1264 l 1
 277 1264 l 1
 277 1260 l 1
 675 637 l 1
 264 -51 l 1
 264 -55 l 1
 905 -55 l 1
 905 -168 l 1
 122 -168 l 1
 122 -57 l 1
 537 635 l 1
 133 1264 l 1
 133 1374 l 1
 896 1374 l 1
EndSplineSet
EndChar

StartChar: t
Encoding: 197 116 197
Width: 742
VWidth: 0
Flags: W
PickledData: "(dp1
S'com.typemytype.robofont.layerData'
p2
(dp3
S'B'
(dp4
S'name'
p5
S't'
sS'lib'
p6
(dp7
sS'unicodes'
p8
(tsS'width'
p9
I742
sS'contours'
p10
(tsS'components'
p11
(tsS'anchors'
p12
(tsss."
HStem: -10 106<383.919 656> 895 90<56 209 337 645>
VStem: 209 128<145.439 895 985 1124.41> 238 99<1105.29 1267>
LayerCount: 2
UndoRedoHistory
Layer: 1
Undoes
EndUndoes
Redoes
EndRedoes
EndUndoRedoHistory
Fore
SplineSet
472 -10 m 1xe0
 258 -4 209 119 209 388 c 2
 209 895 l 1xe0
 56 895 l 1
 56 985 l 1
 213 985 l 1
 238 1267 l 1
 337 1267 l 1xd0
 337 985 l 1
 645 985 l 1
 645 895 l 1
 337 895 l 1
 337 386 l 2
 337 123 400 96 506 96 c 0
 568 96 629 99 656 103 c 1
 661 0 l 1
 597 -8 533 -10 472 -10 c 1xe0
EndSplineSet
EndChar

StartChar: three
Encoding: 198 51 198
Width: 1002
VWidth: 0
Flags: W
PickledData: "(dp1
S'com.typemytype.robofont.layerData'
p2
(dp3
S'B'
(dp4
S'name'
p5
S'three'
p6
sS'lib'
p7
(dp8
sS'unicodes'
p9
(tsS'width'
p10
I1002
sS'contours'
p11
(tsS'components'
p12
(tsS'anchors'
p13
(tsss."
HStem: -10 106<172.903 647.462> 608 103<283.747 457.501> 1195 106<178.401 618.73>
VStem: 704 115<849.134 1115.36> 755 116<198.449 510.471>
LayerCount: 2
UndoRedoHistory
Layer: 1
Undoes
EndUndoes
Redoes
EndRedoes
EndUndoRedoHistory
Fore
SplineSet
441 -10 m 0xe8
 334 -10 231 3 132 40 c 1
 159 145 l 1
 249 111 362 96 446 96 c 0
 612 96 755 150 755 360 c 0xe8
 755 543 608 627 460 627 c 0
 407 627 334 619 285 608 c 1
 276 711 l 1
 531 744 704 795 704 980 c 0
 704 1120 610 1195 453 1195 c 0
 356 1195 258 1178 159 1144 c 1
 132 1245 l 1
 245 1282 351 1301 448 1301 c 0
 672 1301 819 1197 819 994 c 0xf0
 819 820 728 739 569 691 c 1
 728 677 871 529 871 349 c 0
 871 79 664 -10 441 -10 c 0xe8
EndSplineSet
EndChar

StartChar: trademark
Encoding: 199 8482 199
Width: 1379
VWidth: 0
Flags: W
HStem: 1114 83<131 306 404 574>
VStem: 306 98<481 1114> 663 91<481 923> 1145 88<481 923>
LayerCount: 2
UndoRedoHistory
Layer: 1
Undoes
EndUndoes
Redoes
EndRedoes
EndUndoRedoHistory
Fore
SplineSet
910 561 m 1
 759 923 l 1
 754 923 l 1
 754 481 l 1
 663 481 l 1
 663 1197 l 1
 747 1197 l 1
 946 703 l 1
 1150 1197 l 1
 1233 1197 l 1
 1233 481 l 1
 1145 481 l 1
 1145 923 l 1
 1138 923 l 1
 979 561 l 1
 910 561 l 1
131 1114 m 1
 131 1197 l 1
 574 1197 l 1
 574 1114 l 1
 404 1114 l 1
 404 481 l 1
 306 481 l 1
 306 1114 l 1
 131 1114 l 1
EndSplineSet
EndChar

StartChar: two
Encoding: 200 50 200
Width: 961
VWidth: 0
Flags: W
HStem: 0 100<265 798> 1195 106<221.53 619.565>
VStem: 707 117<796.702 1106.16>
LayerCount: 2
Back
SplineSet
798 652 m 4
 798 198 673 95 447 95 c 4
 376 95 309 110 257 133 c 5
 257 306 l 5
 148 306 l 5
 148 64 l 5
 258 10 359 -11 458 -11 c 4
 774 -11 926 176 926 649 c 4
 926 1101 715 1301 446 1301 c 4
 342 1301 238 1283 121 1226 c 5
 161 1129 l 5
 264 1179 351 1195 438 1195 c 4
 643 1195 798 1039 798 652 c 4
EndSplineSet
UndoRedoHistory
Layer: 1
Undoes
EndUndoes
Redoes
EndRedoes
EndUndoRedoHistory
Fore
SplineSet
162 1125 m 1
 122 1226 l 1
 220 1271 304 1301 453 1301 c 0
 708 1301 824 1144 824 956 c 0
 824 748 677 622 514 458 c 0
 409 353 287 240 265 100 c 1
 798 100 l 1
 813 0 l 1
 131 0 l 1
 133 269 319 429 482 584 c 0
 602 698 707 807 707 952 c 0
 707 1100 634 1195 444 1195 c 0
 309 1195 185 1137 162 1125 c 1
EndSplineSet
EndChar

StartChar: u
Encoding: 201 117 201
Width: 986
VWidth: 0
Flags: W
PickledData: "(dp1
S'com.typemytype.robofont.layerData'
p2
(dp3
S'B'
(dp4
S'name'
p5
S'u'
sS'lib'
p6
(dp7
sS'unicodes'
p8
(tsS'width'
p9
I986
sS'contours'
p10
(tsS'components'
p11
(tsS'anchors'
p12
(tsss."
HStem: -10 106<302.272 661.845> 965 20G<128 256 717 845>
VStem: 128 128<143.2 985> 717 128<141.172 985> 740 105<0 64>
LayerCount: 2
UndoRedoHistory
Layer: 1
Undoes
EndUndoes
Redoes
EndRedoes
EndUndoRedoHistory
Fore
SplineSet
717 163 m 1xf0
 717 985 l 1
 845 985 l 1xf0
 845 0 l 1
 740 0 l 1xe8
 731 64 l 1
 596 0 519 -10 422 -10 c 0
 219 -10 128 93 128 321 c 2
 128 985 l 1
 256 985 l 1
 256 316 l 2
 256 159 299 96 435 96 c 0
 509 96 597 97 717 163 c 1xf0
EndSplineSet
EndChar

StartChar: underscore
Encoding: 206 95 206
Width: 1066
VWidth: 0
Flags: W
HStem: -219 94<100 968>
LayerCount: 2
UndoRedoHistory
Layer: 1
Undoes
EndUndoes
Redoes
EndRedoes
EndUndoRedoHistory
Fore
SplineSet
100 -219 m 1
 100 -125 l 1
 968 -125 l 1
 968 -219 l 1
 100 -219 l 1
EndSplineSet
EndChar

StartChar: v
Encoding: 207 118 207
Width: 912
VWidth: 0
Flags: W
PickledData: "(dp1
S'com.typemytype.robofont.layerData'
p2
(dp3
S'B'
(dp4
S'name'
p5
S'v'
sS'lib'
p6
(dp7
sS'unicodes'
p8
(tsS'width'
p9
I912
sS'contours'
p10
(tsS'components'
p11
(tsS'anchors'
p12
(tsss."
HStem: 0 21G<387.32 537.416> 965 20G<65 201.321 710.033 847>
LayerCount: 2
UndoRedoHistory
Layer: 1
Undoes
EndUndoes
Redoes
EndRedoes
EndUndoRedoHistory
Fore
SplineSet
463 137 m 1
 716 985 l 1
 847 985 l 1
 531 0 l 1
 394 0 l 1
 65 985 l 1
 195 985 l 1
 463 137 l 1
EndSplineSet
EndChar

StartChar: w
Encoding: 208 119 208
Width: 1298
VWidth: 0
Flags: W
PickledData: "(dp1
S'com.typemytype.robofont.layerData'
p2
(dp3
S'B'
(dp4
S'name'
p5
S'w'
sS'lib'
p6
(dp7
sS'unicodes'
p8
(tsS'width'
p9
I1298
sS'contours'
p10
(tsS'components'
p11
(tsS'anchors'
p12
(tsss."
HStem: 0 21G<299.147 452.73 862.238 1013.55> 965 20G<65 194.381 1103.92 1233>
LayerCount: 2
UndoRedoHistory
Layer: 1
Undoes
EndUndoes
Redoes
EndRedoes
EndUndoRedoHistory
Fore
SplineSet
716 763 m 1
 930 113 l 1
 1108 985 l 1
 1233 985 l 1
 1009 0 l 1
 869 0 l 1
 657 627 l 1
 446 0 l 1
 304 0 l 1
 65 985 l 1
 190 985 l 1
 381 113 l 1
 598 763 l 1
 716 763 l 1
EndSplineSet
EndChar

StartChar: x
Encoding: 209 120 209
Width: 844
VWidth: 0
Flags: W
PickledData: "(dp1
S'com.typemytype.robofont.layerData'
p2
(dp3
S'B'
(dp4
S'name'
p5
S'x'
sS'lib'
p6
(dp7
sS'unicodes'
p8
(tsS'width'
p9
I844
sS'contours'
p10
(tsS'components'
p11
(tsS'anchors'
p12
(tsss."
HStem: 0 21G<58 199.348 652.842 786> 965 20G<70 207.379 628.557 767>
LayerCount: 2
UndoRedoHistory
Layer: 1
Undoes
EndUndoes
Redoes
EndRedoes
EndUndoRedoHistory
Fore
SplineSet
664 0 m 1
 428 423 l 1
 188 0 l 1
 58 0 l 1
 355 504 l 1
 70 985 l 1
 196 985 l 1
 427 579 l 1
 639 985 l 1
 767 985 l 1
 501 503 l 1
 786 0 l 1
 664 0 l 1
EndSplineSet
EndChar

StartChar: y
Encoding: 210 121 210
Width: 963
VWidth: 0
Flags: W
PickledData: "(dp1
S'com.typemytype.robofont.layerData'
p2
(dp3
S'B'
(dp4
S'name'
p5
S'y'
sS'lib'
p6
(dp7
sS'unicodes'
p8
(tsS'width'
p9
I963
sS'contours'
p10
(tsS'components'
p11
(tsS'anchors'
p12
(tsss."
HStem: -390 111<136.1 355.153> 965 20G<52 196 771.529 914>
LayerCount: 2
UndoRedoHistory
Layer: 1
Undoes
EndUndoes
Redoes
EndRedoes
EndUndoRedoHistory
Fore
SplineSet
285 -390 m 0
 234 -390 180 -378 120 -355 c 1
 140 -253 l 1
 141 -252 l 1
 201 -270 246 -279 276 -279 c 0
 367 -279 392 -169 430 -55 c 2
 457 26 l 1
 52 985 l 1
 189 985 l 1
 203 948 513 166 513 166 c 1
 778 985 l 1
 914 985 l 1
 568 -16 l 2
 486 -254 432 -390 285 -390 c 0
EndSplineSet
EndChar

StartChar: yen
Encoding: 212 165 212
Width: 1132
VWidth: 0
Flags: W
HStem: 0 21G<501 629> 355 97<239 501 629 886> 559 96<239 473 656 886> 1264 20G<117 269.552 856.586 1013>
VStem: 501 128<0 355 452 559>
LayerCount: 2
UndoRedoHistory
Layer: 1
Undoes
EndUndoes
Redoes
EndRedoes
EndUndoRedoHistory
Fore
SplineSet
239 559 m 1
 239 655 l 1
 473 655 l 1
 117 1284 l 1
 259 1284 l 1
 565 704 l 1
 867 1284 l 1
 1013 1284 l 1
 656 655 l 1
 887 655 l 1
 886 559 l 1
 629 559 l 1
 629 452 l 1
 886 452 l 1
 886 355 l 1
 629 355 l 1
 629 0 l 1
 501 0 l 1
 501 355 l 1
 239 355 l 1
 239 452 l 1
 501 452 l 1
 501 559 l 1
 239 559 l 1
EndSplineSet
EndChar

StartChar: z
Encoding: 213 122 213
Width: 799
VWidth: 0
Flags: W
PickledData: "(dp1
S'com.typemytype.robofont.layerData'
p2
(dp3
S'B'
(dp4
S'name'
p5
S'z'
sS'lib'
p6
(dp7
sS'unicodes'
p8
(tsS'width'
p9
I799
sS'contours'
p10
(tsS'components'
p11
(tsS'anchors'
p12
(tsss."
HStem: 0 90<260 725> 895 90<130 571>
VStem: 119 606
LayerCount: 2
UndoRedoHistory
Layer: 1
Undoes
EndUndoes
Redoes
EndRedoes
EndUndoRedoHistory
Fore
SplineSet
571 895 m 1
 130 895 l 1
 130 985 l 1
 700 985 l 1
 710 900 l 1
 260 90 l 1
 725 90 l 1
 725 0 l 1
 133 0 l 1
 119 96 l 1
 571 895 l 1
EndSplineSet
EndChar

StartChar: zero
Encoding: 214 48 214
Width: 1012
VWidth: 0
Flags: W
PickledData: "(dp1
S'com.typemytype.robofont.layerData'
p2
(dp3
S'B'
(dp4
S'name'
p5
S'zero'
p6
sS'lib'
p7
(dp8
sS'unicodes'
p9
(tsS'width'
p10
I1012
sS'contours'
p11
(tsS'components'
p12
(tsS'anchors'
p13
(tsss."
HStem: -10 106<362.795 639.729> 1195 106<365.076 649.992>
VStem: 133 116<244.964 1047.96> 763 116<246.742 1047.63>
LayerCount: 2
UndoRedoHistory
Layer: 1
Undoes
EndUndoes
Redoes
EndRedoes
EndUndoRedoHistory
Fore
SplineSet
133 646 m 0
 133 1030 190 1301 507 1301 c 0
 830 1301 879 1003 879 646 c 0
 879 289 828 -10 507 -10 c 0
 181 -10 133 293 133 646 c 0
507 1195 m 0
 265 1195 249 938 249 646 c 0
 249 310 277 96 507 96 c 0
 763 96 763 402 763 646 c 0
 763 983 735 1195 507 1195 c 0
EndSplineSet
EndChar

StartChar: uni0237
Encoding: 302 567 302
Width: 620
VWidth: 0
Flags: W
HStem: -295 113<50.9234 307.916> 895 90<115 339>
VStem: 339 128<-152.524 895>
LayerCount: 2
UndoRedoHistory
Layer: 1
Undoes
EndUndoes
Redoes
EndRedoes
EndUndoRedoHistory
Fore
SplineSet
202 -182 m 0
 315 -182 339 -123 339 28 c 2
 339 895 l 1
 115 895 l 1
 115 985 l 1
 467 985 l 1
 467 18 l 2
 467 -203 378 -295 206 -295 c 0
 149 -295 93 -291 38 -275 c 1
 54 -166 l 1
 99 -177 139 -182 202 -182 c 0
EndSplineSet
EndChar

StartChar: uni0311
Encoding: 303 785 303
Width: 825
VWidth: 0
Flags: W
HStem: 1146 110<316.045 557.78>
VStem: 166 537
LayerCount: 2
UndoRedoHistory
Layer: 1
Undoes
EndUndoes
Redoes
EndRedoes
EndUndoRedoHistory
Fore
SplineSet
243 1031 m 1
 166 1106 l 1
 255 1206 344 1256 434 1256 c 0
 524 1256 614 1206 703 1106 c 1
 626 1031 l 1
 570 1109 504 1146 438 1146 c 0
 370 1146 302 1107 243 1031 c 1
EndSplineSet
EndChar

StartChar: breve
Encoding: 304 728 304
Width: 825
VWidth: 0
Flags: W
HStem: 1031 110<310.935 552.659>
VStem: 166 537
LayerCount: 2
UndoRedoHistory
Layer: 1
Undoes
EndUndoes
Redoes
EndRedoes
EndUndoRedoHistory
Fore
SplineSet
626 1256 m 1
 703 1180 l 1
 614 1080 524 1031 434 1031 c 0
 344 1031 255 1080 166 1180 c 1
 243 1256 l 1
 299 1178 365 1141 431 1141 c 0
 499 1141 567 1180 626 1256 c 1
EndSplineSet
EndChar

StartChar: hungarumlaut
Encoding: 328 733 328
Width: 782
VWidth: 0
Flags: W
HStem: 973 390
VStem: 69 647
LayerCount: 2
UndoRedoHistory
Layer: 1
Undoes
EndUndoes
Redoes
EndRedoes
EndUndoRedoHistory
Fore
SplineSet
69 1022 m 1
 314 1363 l 1
 420 1283 l 1
 323 1174 l 1
 276 1116 122 973 122 973 c 1
 69 1022 l 1
364 1022 m 1
 610 1363 l 1
 716 1283 l 1
 618 1174 l 1
 571 1116 418 973 418 973 c 1
 364 1022 l 1
EndSplineSet
EndChar

StartChar: uni030F
Encoding: 329 783 329
Width: 788
VWidth: 0
Flags: W
HStem: 973 390
VStem: 68 653
LayerCount: 2
UndoRedoHistory
Layer: 1
Undoes
EndUndoes
Redoes
EndRedoes
EndUndoRedoHistory
Fore
SplineSet
419 1022 m 1
 366 973 l 1
 366 973 214 1106 167 1164 c 2
 68 1283 l 1
 174 1363 l 1
 419 1022 l 1
721 1022 m 1
 668 973 l 1
 668 973 516 1106 469 1164 c 2
 370 1283 l 1
 476 1363 l 1
 721 1022 l 1
EndSplineSet
EndChar

StartChar: ogonek
Encoding: 362 731 362
Width: 936
VWidth: 0
Flags: W
HStem: -457 86<463.877 638.189> -371 20G<624 636.75>
VStem: 361 102<-367.161 -212.638>
LayerCount: 2
UndoRedoHistory
Layer: 1
Undoes
EndUndoes
Redoes
EndRedoes
EndUndoRedoHistory
Fore
SplineSet
518 -117 m 1xa0
 612 -117 l 1
 558 -134 463 -249 463 -319 c 0
 463 -358 502 -371 543 -371 c 0xa0
 578 -371 615 -362 633 -351 c 1x60
 648 -431 l 1
 608 -448 563 -457 522 -457 c 0
 435 -457 361 -418 361 -329 c 0
 361 -256 413 -170 518 -117 c 1xa0
EndSplineSet
EndChar

StartChar: Lslash
Encoding: 371 321 371
Width: 825
VWidth: 0
Flags: W
HStem: 0 100<277 769> 980 20G<580.297 619> 1264 20G<149 277>
VStem: 149 128<100 523 744 1284>
LayerCount: 2
UndoRedoHistory
Layer: 1
Undoes
EndUndoes
Redoes
EndRedoes
EndUndoRedoHistory
Fore
SplineSet
606 1000 m 1
 658 920 l 1
 277 623 l 1
 277 100 l 1
 769 100 l 1
 786 0 l 1
 149 0 l 1
 149 523 l 1
 13 418 l 1
 -40 498 l 1
 149 645 l 1
 149 1284 l 1
 277 1284 l 1
 277 744 l 1
 606 1000 l 1
EndSplineSet
EndChar

StartChar: lslash
Encoding: 372 322 372
Width: 744
VWidth: 0
Flags: W
HStem: 0 90<132 355 483 694> 980 20G<700.421 741.065> 1267 91<134 355>
VStem: 355 128<90 589 810 1267>
LayerCount: 2
UndoRedoHistory
Layer: 1
Undoes
EndUndoes
Redoes
EndRedoes
EndUndoRedoHistory
Fore
SplineSet
134 1358 m 1
 483 1358 l 1
 483 810 l 1
 726 1000 l 1
 784 923 l 1
 483 688 l 1
 483 90 l 1
 694 90 l 1
 694 0 l 1
 132 0 l 1
 132 90 l 1
 355 90 l 1
 355 589 l 1
 139 420 l 1
 81 498 l 1
 355 711 l 1
 355 1267 l 1
 134 1267 l 1
 134 1358 l 1
EndSplineSet
EndChar

StartChar: Thorn
Encoding: 373 222 373
Width: 981
VWidth: 0
Flags: W
HStem: 0 21G<149 277> 327 104<277 692.66> 952 100<278 695.644> 1264 20G<149 278>
VStem: 149 128<0 327 431 952 1052 1284> 789 128<518.394 866.329>
LayerCount: 2
UndoRedoHistory
Layer: 1
Undoes
EndUndoes
Redoes
EndRedoes
EndUndoRedoHistory
Fore
SplineSet
277 431 m 1
 366 431 l 2
 656 431 789 447 789 695 c 0
 789 919 663 952 475 952 c 2
 277 952 l 1
 277 431 l 1
278 1284 m 1
 278 1052 l 1
 467 1052 l 2
 726 1052 917 992 917 697 c 0
 917 389 714 327 369 327 c 2
 277 327 l 1
 277 0 l 1
 149 0 l 1
 149 1284 l 1
 278 1284 l 1
EndSplineSet
EndChar

StartChar: eth
Encoding: 396 240 396
Width: 998
VWidth: 0
Flags: W
HStem: -10 106<317.52 644.4> 701 103<327.499 639.1> 1357 20G<793.622 837.294>
VStem: 88 128<203.911 583.404> 751 128<234.352 896.585>
LayerCount: 2
UndoRedoHistory
Layer: 1
Undoes
EndUndoes
Redoes
EndRedoes
EndUndoRedoHistory
Fore
SplineSet
751 450 m 0
 751 650 573 701 469 701 c 0
 326 701 216 601 216 395 c 0
 216 170 322 96 490 96 c 0
 670 96 751 203 751 450 c 0
761 672 m 1
 755 812 688 1041 588 1109 c 1
 382 967 l 1
 330 1035 l 1
 513 1161 l 1
 434 1206 337 1235 224 1245 c 1
 245 1351 l 1
 386 1328 511 1293 612 1229 c 1
 822 1377 l 1
 874 1309 l 1
 684 1175 l 1
 807 1064 879 836 879 544 c 0
 879 183 757 -10 485 -10 c 0
 253 -10 88 121 88 394 c 0
 88 671 272 804 475 804 c 0
 595 804 700 754 761 672 c 1
EndSplineSet
EndChar

StartChar: Dcroat
Encoding: 397 272 397
Width: 1099
VWidth: 0
Flags: W
HStem: 0 104<277 689.252> 609 103<0 149 277 480> 1184 100<277 672.391>
VStem: 149 128<104 609 712 1184> 853 128<279.022 992.662>
LayerCount: 2
UndoRedoHistory
Layer: 1
Undoes
EndUndoes
Redoes
EndRedoes
EndUndoRedoHistory
Fore
SplineSet
-0 609 m 1
 -0 712 l 1
 149 712 l 1
 149 1284 l 1
 422 1284 l 2
 876 1284 981 1101 981 636 c 0
 981 229 905 0 433 0 c 2
 149 0 l 1
 149 609 l 1
 -0 609 l 1
422 1184 m 2
 277 1184 l 1
 277 712 l 1
 480 712 l 1
 480 609 l 1
 277 609 l 1
 277 104 l 1
 433 104 l 2
 817 104 853 269 853 636 c 0
 853 1030 797 1184 422 1184 c 2
EndSplineSet
EndChar

StartChar: dcroat
Encoding: 398 273 398
Width: 1010
VWidth: 0
Flags: W
HStem: -10 106<371.175 723.386> 895 105<364.993 662.848> 1107 88<530 742 870 1010> 1338 20G<742 870>
VStem: 108 128<248.092 737.857> 742 128<119.105 833.252 923 1107 1195 1358> 766 104<0 50>
LayerCount: 2
UndoRedoHistory
Layer: 1
Undoes
EndUndoes
Redoes
EndRedoes
EndUndoRedoHistory
Fore
SplineSet
742 1358 m 1xfc
 870 1358 l 1
 870 1195 l 1
 1010 1195 l 1
 1010 1107 l 1
 870 1107 l 1xfc
 870 0 l 1
 766 0 l 1xfa
 756 50 l 1
 674 6 589 -10 514 -10 c 0
 277 -10 108 126 108 493 c 0
 108 852 284 1000 484 1000 c 0
 568 1000 640 986 742 923 c 1
 742 1107 l 1
 530 1107 l 1
 530 1195 l 1
 742 1195 l 1
 742 1358 l 1xfc
742 137 m 1
 742 809 l 1
 633 872 568 895 500 895 c 0
 343 895 236 767 236 491 c 0
 236 206 352 96 532 96 c 0
 542 96 551 96 560 96 c 0
 612 96 660 99 742 137 c 1
EndSplineSet
EndChar

StartChar: multiply
Encoding: 399 215 399
Width: 996
VWidth: 0
Flags: W
HStem: 261 664
VStem: 166 663
LayerCount: 2
UndoRedoHistory
Layer: 1
Undoes
EndUndoes
Redoes
EndRedoes
EndUndoRedoHistory
Fore
SplineSet
755 925 m 1
 829 851 l 1
 572 593 l 1
 829 335 l 1
 755 261 l 1
 497 519 l 1
 240 261 l 1
 166 335 l 1
 423 593 l 1
 166 851 l 1
 240 925 l 1
 498 667 l 1
 755 925 l 1
EndSplineSet
EndChar

StartChar: uni00AD
Encoding: 400 173 400
Width: 1040
VWidth: 0
Flags: W
HStem: 725 106<153 886>
LayerCount: 2
UndoRedoHistory
Layer: 1
Undoes
EndUndoes
Redoes
EndRedoes
EndUndoRedoHistory
Fore
SplineSet
153 725 m 1
 153 831 l 1
 886 831 l 1
 886 725 l 1
 153 725 l 1
EndSplineSet
EndChar

StartChar: brokenbar
Encoding: 401 166 401
Width: 423
VWidth: 0
Flags: W
VStem: 162 107<-65 527 776 1331>
LayerCount: 2
UndoRedoHistory
Layer: 1
Undoes
EndUndoes
Redoes
EndRedoes
EndUndoRedoHistory
Fore
SplineSet
162 776 m 1
 162 1331 l 1
 269 1331 l 1
 269 776 l 1
 162 776 l 1
162 -65 m 1
 162 527 l 1
 269 527 l 1
 269 -65 l 1
 162 -65 l 1
EndSplineSet
EndChar

StartChar: thorn
Encoding: 403 254 403
Width: 982
VWidth: 0
Flags: W
HStem: -389 21G<140 268> -10 106<286.789 640.878> 895 105<347.822 651.82> 1281 20G<140 268>
VStem: 140 128<-389 43 119.105 833.252 916 1301> 748 128<221.794 778.674>
LayerCount: 2
UndoRedoHistory
Layer: 1
Undoes
EndUndoes
Redoes
EndRedoes
EndUndoRedoHistory
Fore
SplineSet
268 809 m 1
 268 137 l 1
 350 99 408 96 463 96 c 0
 473 96 482 96 492 96 c 0
 672 96 748 206 748 491 c 0
 748 767 681 895 524 895 c 0
 456 895 377 872 268 809 c 1
268 43 m 1
 268 -389 l 1
 140 -389 l 1
 140 1301 l 1
 268 1301 l 1
 268 916 l 1
 370 985 460 1000 540 1000 c 0
 740 1000 876 852 876 493 c 0
 876 126 747 -10 510 -10 c 0
 439 -10 347 4 268 43 c 1
EndSplineSet
EndChar

StartChar: Hbar
Encoding: 404 294 404
Width: 1134
VWidth: 0
Flags: W
HStem: 0 21G<149 277 857 985> 602 101<277 857> 896 88<41 149 277 857 985 1097> 1264 20G<149 277 857 985>
VStem: 149 128<0 602 703 896 984 1284> 857 128<0 602 703 896 984 1284>
LayerCount: 2
UndoRedoHistory
Layer: 1
Undoes
EndUndoes
Redoes
EndRedoes
EndUndoRedoHistory
Fore
SplineSet
857 896 m 5
 277 896 l 5
 277 703 l 1
 857 703 l 1
 857 896 l 5
41 896 m 5
 41 984 l 5
 149 984 l 5
 149 1284 l 1
 277 1284 l 1
 277 984 l 5
 857 984 l 5
 857 1284 l 1
 985 1284 l 1
 985 984 l 5
 1097 984 l 5
 1097 896 l 5
 985 896 l 5
 985 0 l 1
 857 0 l 1
 857 602 l 1
 277 602 l 1
 277 0 l 1
 149 0 l 1
 149 896 l 5
 41 896 l 5
EndSplineSet
EndChar

StartChar: hbar
Encoding: 405 295 405
Width: 991
VWidth: 0
Flags: W
HStem: 0 21G<159 287 735 863> 895 105<393.439 694.17> 1100 95<-31 159 287 499> 1338 20G<159 287>
VStem: 159 128<0 821.38 911 1100 1195 1358> 735 128<0 853.353>
LayerCount: 2
UndoRedoHistory
Layer: 1
Undoes
EndUndoes
Redoes
EndRedoes
EndUndoRedoHistory
Fore
SplineSet
-31 1100 m 1
 -31 1195 l 1
 159 1195 l 1
 159 1358 l 1
 287 1358 l 1
 287 1195 l 1
 499 1195 l 1
 499 1100 l 1
 287 1100 l 1
 287 911 l 1
 394 970 491 1000 586 1000 c 0
 772 1000 863 900 863 663 c 2
 863 0 l 1
 735 0 l 1
 735 669 l 2
 735 826 697 895 578 895 c 0
 507 895 417 870 287 800 c 1
 287 0 l 1
 159 0 l 1
 159 1100 l 1
 -31 1100 l 1
EndSplineSet
EndChar

StartChar: currency
Encoding: 406 164 406
Width: 1048
VWidth: 1000
Flags: W
HStem: 388 85<382.525 665.201> 966 85<382.618 664.981>
VStem: 183 97<570.318 869.06> 767 97<568.793 869.187>
LayerCount: 2
UndoRedoHistory
Layer: 1
Undoes
EndUndoes
Redoes
EndRedoes
EndUndoRedoHistory
Fore
SplineSet
767 720 m 0
 767 884 646 966 524 966 c 0
 402 966 280 883 280 719 c 0
 280 556 402 473 524 473 c 0
 646 473 767 554 767 720 c 0
209 333 m 1
 132 412 l 1
 245 526 l 1
 204 578 183 649 183 720 c 0
 183 791 204 862 245 914 c 1
 132 1030 l 1
 209 1109 l 1
 329 986 l 1
 384 1029 455 1051 524 1051 c 0
 593 1051 663 1029 719 986 c 1
 838 1109 l 1
 916 1030 l 1
 801 914 l 1
 843 861 864 791 864 720 c 0
 864 649 843 579 801 526 c 1
 916 412 l 1
 838 333 l 1
 719 454 l 1
 664 410 593 388 524 388 c 0
 454 388 384 410 329 454 c 1
 209 333 l 1
EndSplineSet
EndChar

StartChar: Eth
Encoding: 407 208 407
Width: 1099
VWidth: 0
Flags: W
HStem: 0 104<277 689.252> 609 103<0 149 277 480> 1184 100<277 672.391>
VStem: 149 128<104 609 712 1184> 853 128<279.022 992.662>
LayerCount: 2
UndoRedoHistory
Layer: 1
Undoes
EndUndoes
Redoes
EndRedoes
EndUndoRedoHistory
Fore
SplineSet
-0 609 m 1
 -0 712 l 1
 149 712 l 1
 149 1284 l 1
 422 1284 l 2
 876 1284 981 1101 981 636 c 0
 981 229 905 0 433 0 c 2
 149 0 l 1
 149 609 l 1
 -0 609 l 1
422 1184 m 2
 277 1184 l 1
 277 712 l 1
 480 712 l 1
 480 609 l 1
 277 609 l 1
 277 104 l 1
 433 104 l 2
 817 104 853 269 853 636 c 0
 853 1030 797 1184 422 1184 c 2
EndSplineSet
EndChar

StartChar: tilde
Encoding: 408 732 408
Width: 882
VWidth: 0
Flags: W
HStem: 475 114<456.32 651.382> 568 116<235.01 420.308>
VStem: 122 637
LayerCount: 2
UndoRedoHistory
Layer: 1
Undoes
EndUndoes
Redoes
EndRedoes
EndUndoRedoHistory
Fore
SplineSet
759 631 m 1xa0
 708 520 661 475 590 475 c 0xa0
 543 475 485 495 410 529 c 1
 359 553 325 568 299 568 c 0
 264 568 240 541 203 472 c 1
 122 518 l 1
 125 518 l 1
 182 638 223 684 288 684 c 0x60
 334 684 391 661 475 625 c 1
 529 604 562 589 588 589 c 0
 621 589 642 613 679 675 c 1
 759 631 l 1xa0
EndSplineSet
EndChar

StartChar: dotaccent
Encoding: 409 729 409
Width: 442
VWidth: 0
HStem: 163 155<-80 57>
VStem: -80 137<163 318>
LayerCount: 2
UndoRedoHistory
Layer: 1
Undoes
EndUndoes
Redoes
EndRedoes
EndUndoRedoHistory
Fore
SplineSet
57 318 m 1
 57 163 l 1
 -80 163 l 1
 -80 318 l 1
 57 318 l 1
EndSplineSet
EndChar

StartChar: ring
Encoding: 410 730 410
Width: 699
VWidth: 0
Flags: W
HStem: 905 84<247.144 452.521> 1266 84<249.367 453.313>
VStem: 116 97<1020.85 1234.78> 486 96<1020.66 1234.81>
LayerCount: 2
UndoRedoHistory
Layer: 1
Undoes
EndUndoes
Redoes
EndRedoes
EndUndoRedoHistory
Fore
SplineSet
350 905 m 0
 209.754 905.417 116 995.165 116 1127 c 0
 116 1265.05 214.319 1350 350 1350 c 0
 485.661 1350 582 1259.74 582 1127 c 0
 582 991.677 483.695 905 350 905 c 0
486 1127 m 0
 486 1211.88 437 1266 350 1266 c 0
 266 1266 213 1210.85 213 1127 c 0
 213 1042.2 265 989 350 989 c 0
 435 989 486 1045.85 486 1127 c 0
EndSplineSet
EndChar

StartChar: uniFB00
Encoding: 411 64256 411
Width: 1272
VWidth: 0
Flags: W
HStem: 0 21G<254 382 840 968> 893 92<62 254 382 840 968 1192> 1268 100<542.812 684.294 1128.81 1270.29> 1289 105<423.916 686.33 1009.92 1272.33>
VStem: 254 128<0 893 985 1245.97> 840 128<0 893 985 1245.97>
LayerCount: 2
UndoRedoHistory
Layer: 1
Undoes
EndUndoes
Redoes
EndRedoes
EndUndoRedoHistory
Fore
SplineSet
254 0 m 1xdc
 254 893 l 1
 62 893 l 1
 62 985 l 1
 254 985 l 1
 254 1271 300 1387 513 1394 c 1xdc
 569 1394 631 1391 698 1368 c 1
 682 1268 l 1xec
 660 1274 579 1289 541 1289 c 0
 425 1289 382 1250 382 985 c 1
 840 985 l 1
 840 1271 886 1387 1099 1394 c 1xdc
 1155 1394 1217 1391 1284 1368 c 1
 1268 1268 l 1xec
 1246 1274 1165 1289 1127 1289 c 0
 1011 1289 968 1250 968 985 c 1
 1192 985 l 1
 1192 893 l 1
 968 893 l 1
 968 0 l 1
 840 0 l 1
 840 893 l 1
 382 893 l 1
 382 0 l 1
 254 0 l 1xdc
EndSplineSet
Ligature2: "'liga' Standard Ligatures lookup 0-1" f f
EndChar

StartChar: uniFB03
Encoding: 412 64259 412
Width: 1944
VWidth: 0
Flags: W
HStem: 0 90<1382 1574 1702 1894> 895 90<62 254 382 897 1025 1574> 1176 180<1558.9 1718.77> 1268 100<541.813 684.294 1185.81 1327.29> 1289 105<423.175 686.328 1066.92 1329.33>
VStem: 254 128<0 893 985 1245.97> 897 128<0 895 985 1245.97> 1547 181<1187.02 1344.12> 1574 128<90 895>
LayerCount: 2
UndoRedoHistory
Layer: 1
Undoes
EndUndoes
Redoes
EndRedoes
EndUndoRedoHistory
Fore
SplineSet
1547 1264 m 0xe7
 1547 1321 1587 1356 1638 1356 c 0
 1691 1356 1728 1326 1728 1266 c 0
 1728 1206 1691 1176 1638 1176 c 0
 1587 1176 1547 1208 1547 1264 c 0xe7
897 0 m 1
 897 895 l 1
 382 893 l 1
 382 0 l 1
 254 0 l 1
 254 893 l 1
 62 893 l 1
 62 985 l 1
 254 985 l 1
 254 1271 299 1387 512 1394 c 1xce80
 568 1394 631 1391 698 1368 c 1
 682 1268 l 1xd680
 660 1274 578 1289 540 1289 c 0
 424 1289 382 1250 382 985 c 1
 897 985 l 1
 897 1271 943 1387 1156 1394 c 1xce80
 1212 1394 1274 1391 1341 1368 c 1
 1325 1268 l 1xd680
 1303 1274 1222 1289 1184 1289 c 0
 1068 1289 1025 1250 1025 985 c 1
 1702 985 l 1
 1702 90 l 1
 1894 90 l 1
 1894 0 l 1
 1382 0 l 1
 1382 90 l 1
 1574 90 l 1
 1574 895 l 1xce80
 1025 895 l 1
 1025 0 l 1
 897 0 l 1
EndSplineSet
Ligature2: "'liga' Standard Ligatures lookup 0-1" f f i
EndChar

StartChar: uniFB04
Encoding: 413 64260 413
Width: 1921
VWidth: 0
Flags: W
HStem: 0 90<1309 1532 1660 1871> 893 92<62 254 382 842 970 1194> 1267 91<542.812 684.271 1033.92 1532> 1289 105<423.916 686.33>
VStem: 254 128<0 893 985 1245.97> 842 128<0 893 985 1201.86> 1532 128<90 1267>
LayerCount: 2
UndoRedoHistory
Layer: 1
Undoes
EndUndoes
Redoes
EndRedoes
EndUndoRedoHistory
Fore
SplineSet
842 0 m 1xee
 842 893 l 1
 382 893 l 1
 382 0 l 1
 254 0 l 1
 254 893 l 1
 62 893 l 1
 62 985 l 1
 254 985 l 1
 254 1271 300 1387 513 1394 c 1
 569 1394 631 1391 698 1368 c 1
 682 1268 l 1
 660 1274 579 1289 541 1289 c 0xde
 425 1289 382 1250 382 985 c 1
 842 985 l 1
 842 1246 904 1358 1191 1358 c 2
 1660 1358 l 1
 1660 90 l 1
 1871 90 l 1
 1871 0 l 1
 1309 0 l 1
 1309 90 l 1
 1532 90 l 1
 1532 1267 l 1
 1219 1267 l 2
 1037 1267 970 1231 970 985 c 1
 1194 985 l 1
 1194 893 l 1
 970 893 l 1
 970 0 l 1
 842 0 l 1xee
EndSplineSet
Ligature2: "'liga' Standard Ligatures lookup 0-1" f f l
EndChar

StartChar: quotesinglbase
Encoding: 414 8218 414
Width: 431
VWidth: 0
Flags: W
HStem: -313 434
VStem: 119 198
LayerCount: 2
UndoRedoHistory
Layer: 1
Undoes
EndUndoes
Redoes
EndRedoes
EndUndoRedoHistory
Fore
SplineSet
187 121 m 1
 317 96 l 1
 279 -65 266 -154 186 -313 c 1
 119 -292 l 1
 118 -292 l 2
 119 -292 167 -18 187 121 c 1
EndSplineSet
EndChar

StartChar: quotedblbase
Encoding: 415 8222 415
Width: 691
VWidth: 0
Flags: W
HStem: -313 434
VStem: 119 457
LayerCount: 2
UndoRedoHistory
Layer: 1
Undoes
EndUndoes
Redoes
EndRedoes
EndUndoRedoHistory
Fore
SplineSet
187 121 m 1
 317 96 l 1
 279 -65 266 -154 186 -313 c 1
 119 -292 l 1
 118 -292 l 2
 119 -292 167 -18 187 121 c 1
446 121 m 1
 576 96 l 1
 538 -65 526 -154 446 -313 c 1
 378 -292 l 1
 379 -292 426 -18 446 121 c 1
EndSplineSet
EndChar

StartChar: Tbar
Encoding: 416 358 416
Width: 891
VWidth: 0
Flags: W
HStem: 0 21G<379 507> 609 103<166 379 507 716> 1184 100<35 379 507 856>
VStem: 379 128<0 609 712 1184>
LayerCount: 2
UndoRedoHistory
Layer: 1
Undoes
EndUndoes
Redoes
EndRedoes
EndUndoRedoHistory
Fore
SplineSet
35 1184 m 1
 35 1284 l 1
 856 1284 l 1
 856 1184 l 1
 507 1184 l 1
 507 712 l 1
 716 712 l 1
 716 609 l 1
 507 609 l 1
 507 0 l 1
 379 0 l 1
 379 609 l 1
 166 609 l 1
 166 712 l 1
 379 712 l 1
 379 1184 l 1
 35 1184 l 1
EndSplineSet
EndChar

StartChar: tbar
Encoding: 417 359 417
Width: 742
VWidth: 0
Flags: W
HStem: -10 106<383.919 656> 551 93<72 209 337 560> 895 90<56 209 337 645>
VStem: 209 128<145.439 551 644 895 985 1124.41> 238 99<1105.29 1267>
LayerCount: 2
UndoRedoHistory
Layer: 1
Undoes
EndUndoes
Redoes
EndRedoes
EndUndoRedoHistory
Fore
SplineSet
472 -10 m 1xf0
 258 -4 209 119 209 388 c 2
 209 551 l 1
 72 551 l 1
 72 644 l 1
 209 644 l 1
 209 895 l 1xf0
 56 895 l 1
 56 985 l 1
 213 985 l 1
 238 1267 l 1
 337 1267 l 1xe8
 337 985 l 1
 645 985 l 1
 645 895 l 1
 337 895 l 1
 337 644 l 1
 560 644 l 1
 560 551 l 1
 337 551 l 1
 337 386 l 2
 337 123 400 96 506 96 c 0
 568 96 629 99 656 103 c 1
 661 0 l 1
 597 -8 533 -10 472 -10 c 1xf0
EndSplineSet
EndChar

StartChar: kgreenlandic
Encoding: 418 312 418
Width: 953
VWidth: 0
Flags: W
HStem: 0 21G<140 268 663.5 921> 965 20G<140 268 619.5 885>
VStem: 140 128<0 364 481 985>
LayerCount: 2
UndoRedoHistory
Layer: 1
Undoes
EndUndoes
Redoes
EndRedoes
EndUndoRedoHistory
Fore
SplineSet
140 0 m 1
 140 985 l 1
 268 985 l 1
 268 481 l 1
 370 593 520 754 719 985 c 1
 885 985 l 1
 457 504 l 1
 921 0 l 1
 760 0 l 1
 567 209 385 416 385 416 c 1
 359 445 l 1
 268 364 l 1
 268 0 l 1
 140 0 l 1
EndSplineSet
EndChar

StartChar: eng
Encoding: 420 331 420
Width: 978
VWidth: 0
Flags: W
HStem: -288 104<426 629.613> 0 21G<133 261> 895 105<326.618 673.84> 965 20G<133 240.812>
VStem: 133 128<0 844.086> 133 105<921 985> 722 128<-97.4725 849.354>
LayerCount: 2
UndoRedoHistory
Layer: 1
Undoes
EndUndoes
Redoes
EndRedoes
EndUndoRedoHistory
Fore
SplineSet
722 108 m 2xe6
 722 668 l 2
 722 825 682 895 546 895 c 0
 472 895 381 888 261 822 c 1
 261 0 l 1
 133 0 l 1xea
 133 985 l 1
 238 985 l 1xd6
 247 921 l 1
 382 985 456 1000 553 1000 c 0
 756 1000 850 891 850 663 c 2
 850 128 l 2
 850 -206 685 -288 425 -288 c 1
 426 -184 l 1
 626 -184 722 -137 722 108 c 2xe6
EndSplineSet
EndChar

StartChar: Eng
Encoding: 422 330 422
Width: 1193
VWidth: 0
Flags: W
HStem: -250 107<612 836.62> 0 21G<149 271> 1264 20G<149 298.299 928 1044>
VStem: 149 122<0 1081> 912 132<-67.4858 122> 928 116<317 1284>
LayerCount: 2
UndoRedoHistory
Layer: 1
Undoes
EndUndoes
Redoes
EndRedoes
EndUndoRedoHistory
Fore
SplineSet
1044 100 m 2xf8
 1044 -211 832 -250 612 -250 c 1
 610 -143 l 1
 811 -143 912 -121 912 122 c 1xf8
 271 1081 l 1
 271 0 l 1
 149 0 l 1
 149 1284 l 1
 285 1284 l 1
 928 317 l 1
 928 1284 l 1
 1044 1284 l 1xf4
 1044 100 l 2xf8
EndSplineSet
EndChar

StartChar: uni00B9
Encoding: 423 185 423
Width: 653
VWidth: 198
Flags: W
HStem: 280 93<129 298 410 556>
VStem: 298 112<373 1085>
LayerCount: 2
UndoRedoHistory
Layer: 1
Undoes
EndUndoes
Redoes
EndRedoes
EndUndoRedoHistory
Fore
SplineSet
410 373 m 1
 556 373 l 1
 556 280 l 1
 129 280 l 1
 129 373 l 1
 298 373 l 1
 298 1085 l 1
 133 1014 l 1
 89 1099 l 1
 316 1196 l 1
 410 1196 l 1
 410 373 l 1
EndSplineSet
EndChar

StartChar: uni00B2
Encoding: 424 178 424
Width: 775
VWidth: 201
Flags: W
HStem: 264 105<253 637> 1100 97<196.718 498.352>
VStem: 535 123<818.135 1063.44>
LayerCount: 2
UndoRedoHistory
Layer: 1
Undoes
EndUndoes
Redoes
EndRedoes
EndUndoRedoHistory
Fore
SplineSet
658 946 m 0
 658 698 308 583 253 369 c 1
 637 369 l 1
 637 264 l 1
 122 264 l 1
 124 468 252 580 373 691 c 0
 461 772 535 844 535 939 c 0
 535 1040 492 1100 366 1100 c 0
 254 1100 169 1041 143 1022 c 1
 102 1122 l 1
 182 1165 250 1197 372 1197 c 0
 567 1197 658 1082 658 946 c 0
EndSplineSet
EndChar

StartChar: uni00B3
Encoding: 425 179 425
Width: 736
VWidth: 199
Flags: W
HStem: 266 97<98.361 490.908> 693 96<197.507 336.927> 1104 97<98.706 472.236>
VStem: 507 109<869.512 1068.29> 545 110<415.065 649.607>
LayerCount: 2
UndoRedoHistory
Layer: 1
Undoes
EndUndoes
Redoes
EndRedoes
EndUndoRedoHistory
Fore
SplineSet
82 1158 m 1xf0
 167 1184 254 1201 330 1201 c 0
 500 1201 616 1124 616 975 c 0xf0
 616 863 558 804 466 768 c 1
 573 738 655 642 655 527 c 0
 655 330 492 266 325 266 c 0
 240 266 159 278 82 305 c 1
 108 401 l 1
 174 377 262 363 328 363 c 0
 449 363 545 398 545 535 c 0xe8
 545 654 444 709 339 709 c 0
 295 709 237 701 199 693 c 1
 189 789 l 1
 382 812 507 845 507 966 c 0
 507 1056 446 1104 334 1104 c 0
 260 1104 181 1088 108 1064 c 1
 82 1158 l 1xf0
EndSplineSet
EndChar

StartChar: onequarter
Encoding: 426 188 426
Width: 1863
VWidth: 198
Flags: W
HStem: -120 21<513 619.245> 0 21G<1498 1609> 260 87<1128 1498 1609 1769> 280 93<127 296 408 554>
VStem: 296 112<373 1085> 513 625 1498 111<0 260 347 662>
LayerCount: 2
UndoRedoHistory
Layer: 1
Undoes
EndUndoes
Redoes
EndRedoes
EndUndoRedoHistory
Fore
SplineSet
1498 0 m 1xee
 1498 260 l 1
 1005 260 l 1
 1005 343 l 1
 1363 1130 l 1
 1477 1130 l 1
 1128 347 l 1
 1498 347 l 1
 1498 662 l 1
 1609 662 l 1
 1609 347 l 1
 1769 347 l 1
 1769 260 l 1
 1609 260 l 1
 1609 0 l 1
 1498 0 l 1xee
EndSplineSet
Refer: 118 8260 S 1 0 0 1 404 -114 2
Refer: 423 185 N 1 0 0 1 -2 0 2
EndChar

StartChar: threequarters
Encoding: 428 190 428
Width: 2036
VWidth: 199
Flags: W
HStem: -120 21<654 760.245> 0 21G<1639 1750> 260 87<1269 1639 1750 1910> 266 97<148.361 540.908> 693 96<247.507 386.927> 1104 97<148.706 522.236>
VStem: 557 109<869.512 1068.29> 595 110<415.065 649.607> 654 625 1639 111<0 260 347 662>
LayerCount: 2
UndoRedoHistory
Layer: 1
Undoes
EndUndoes
Redoes
EndRedoes
EndUndoRedoHistory
Fore
SplineSet
1639 0 m 1xec40
 1639 260 l 1
 1146 260 l 1
 1146 343 l 1
 1504 1130 l 1
 1618 1130 l 1
 1269 347 l 1
 1639 347 l 1
 1639 662 l 1
 1750 662 l 1
 1750 347 l 1
 1910 347 l 1
 1910 260 l 1
 1750 260 l 1
 1750 0 l 1
 1639 0 l 1xec40
EndSplineSet
Refer: 118 8260 S 1 0 0 1 545 -114 2
Refer: 425 179 N 1 0 0 1 50 0 2
EndChar

